<svg id="Layer_1" data-name="Layer 1" xmlns="http://www.w3.org/2000/svg" width="9.61in" height="8.33in" viewBox="0 0 691.68 599.64">
  <defs>
    <style>
      .cls-1 {
        fill: #25140f;
      }

      .cls-2 {
        fill: #f47c21;
      }
    </style>
  </defs>
  <g>
    <path class="cls-1" d="M186.82,59.79H533.66c-.21.65.3,1.06.57,1.51q34.2,59.28,68.44,118.54,51.41,89,102.84,178a3,3,0,0,1,0,3.47q-11.19,19.23-22.29,38.51-74.31,128.7-148.58,257.42a3.69,3.69,0,0,1-3.7,2.19q-170.77-.07-341.55,0a3.48,3.48,0,0,1-3.54-2q-16.11-28.14-32.37-56.2Q84.22,481.31,15,361.45a3.29,3.29,0,0,1,0-3.82Q93.68,221.51,172.26,85.34C177.16,76.85,182,68.31,186.82,59.79ZM439,495c-.35-1-.6-1.72-.88-2.45q-35-90.86-69.95-181.72Q348.8,260.4,329.4,210c-.49-1.27-.8-2.33-2.7-2.32q-25.81.13-51.64,0a2.35,2.35,0,0,0-2.59,1.8q-10.39,27.18-20.9,54.32-41.65,107.91-83.33,215.82c-1.94,5-3.86,10.09-5.81,15.17a4.52,4.52,0,0,0,.72.15c18.17,0,36.34,0,54.51.06,1.66,0,1.93-.93,2.37-2.06,7.2-18.27,14.45-36.53,21.58-54.82.71-1.82,1.6-2.29,3.48-2.29q56.07.09,112.15,0c2.07,0,2.84.72,3.53,2.54,6.79,18.09,13.7,36.13,20.49,54.22.66,1.75,1.37,2.44,3.36,2.43,17.37-.1,34.74-.06,52.12-.06Zm84.2-106.14q0-51.87.06-103.74c0-2.5-.69-3-3-3q-24,.17-48,0c-1.94,0-2.55.39-2.54,2.45q.07,104,0,208c0,2,.56,2.48,2.52,2.47,15.93-.08,31.86,0,47.79-.06,3.66,0,3.23.54,3.23-3.11Q523.24,440.34,523.23,388.83ZM462.52,229a34.14,34.14,0,1,0,68.27.79c0-18.94-15.24-34.58-33.78-34.58C477.46,195.24,462.52,209.88,462.52,229Z" transform="translate(-14.37 -59.79)"/>
    <path class="cls-2" d="M439,495h-2.29c-17.38,0-34.75,0-52.12.06-2,0-2.7-.68-3.36-2.43-6.79-18.09-13.7-36.13-20.49-54.22-.69-1.82-1.46-2.55-3.53-2.54q-56.07.11-112.15,0c-1.88,0-2.77.47-3.48,2.29C234.48,456.43,227.23,474.69,220,493c-.44,1.13-.71,2.07-2.37,2.06-18.17-.08-36.34-.06-54.51-.06a4.52,4.52,0,0,1-.72-.15c1.95-5.08,3.87-10.13,5.81-15.17q41.67-107.91,83.33-215.82,10.49-27.15,20.9-54.32a2.35,2.35,0,0,1,2.59-1.8q25.83.08,51.64,0c1.9,0,2.21,1,2.7,2.32q19.39,50.42,38.8,100.8,35,90.87,69.95,181.72C438.43,493.25,438.68,494,439,495ZM301.26,284.38c-.48,1.06-.73,1.55-.93,2.06Q281.79,333.71,263.22,381c-.83,2.1,0,2.12,1.67,2.12q36.38-.06,72.77,0c.59,0,1.25.24,1.92-.38C326.88,350.07,314.16,317.46,301.26,284.38Z" transform="translate(-14.37 -59.79)"/>
    <path class="cls-2" d="M523.23,388.83q0,51.51,0,103c0,3.65.43,3.11-3.23,3.11-15.93,0-31.86,0-47.79.06-2,0-2.53-.43-2.52-2.47q.07-104,0-208c0-2.06.6-2.46,2.54-2.45q24,.12,48,0c2.35,0,3,.46,3,3Q523.16,337,523.23,388.83Z" transform="translate(-14.37 -59.79)"/>
    <path class="cls-2" d="M462.52,229c0-19.16,14.94-33.8,34.49-33.79,18.54,0,33.78,15.64,33.78,34.58a34.14,34.14,0,1,1-68.27-.79Z" transform="translate(-14.37 -59.79)"/>
    <path class="cls-1" d="M301.26,284.38c12.9,33.08,25.62,65.69,38.32,98.28-.67.62-1.33.38-1.92.38q-36.39,0-72.77,0c-1.68,0-2.5,0-1.67-2.12q18.61-47.23,37.11-94.52C300.53,285.93,300.78,285.44,301.26,284.38Z" transform="translate(-14.37 -59.79)"/>
  </g>
</svg>
