<svg id="Layer_1" data-name="Layer 1" xmlns="http://www.w3.org/2000/svg" width="9.73in" height="8.43in" viewBox="0 0 700.65 606.78">
  <defs>
    <style>
      .cls-1 {
        fill: #fff;
        stroke: #1fa0da;
        stroke-miterlimit: 10;
        stroke-width: 45px;
      }

      .cls-2 {
        fill: #0a8aca;
      }

      .cls-3 {
        fill: #1baae2;
      }

      .cls-4 {
        fill: #0981c0;
      }

      .cls-5 {
        fill: #005a9b;
      }

      .cls-6 {
        fill: #1fa0da;
      }

      .cls-7 {
        fill: #1499d6;
      }

      .cls-8 {
        fill: #59c0ee;
      }

      .cls-9 {
        fill: #0060a2;
      }

      .cls-10 {
        fill: #2cb5e9;
      }

      .cls-11 {
        fill: #87cbef;
      }

      .cls-12 {
        fill: #d7f0fc;
      }

      .cls-13 {
        fill: #056cad;
      }

      .cls-14 {
        fill: #c4e2f7;
      }

      .cls-15 {
        fill: #a9dff9;
      }

      .cls-16 {
        fill: #0675b7;
      }
    </style>
  </defs>
  <polygon class="cls-1" points="512.5 22.5 188.15 22.5 25.98 303.39 188.15 584.28 512.5 584.28 674.67 303.39 512.5 22.5"/>
  <g>
    <path class="cls-2" d="M515.58,264.43c8.44-.65,16.88-.15,25.32-.27,5-.07,10.05,0,15.07,0-1.43,4.4-4.47,8-6.12,12.32l-.48.66c-.08.23-.16.45-.23.68a48.23,48.23,0,0,0-4.8,8.92,178.64,178.64,0,0,0-10.24,19.89,37.33,37.33,0,0,0-4.84,9.6,29,29,0,0,0-4.15,8.23c-1.66,2-2.38,4.52-3.41,6.85-2,3.95-4.05,7.85-5.92,11.85-1.33,2.86-3.38,5.43-3.74,8.71l-3.42,5.49c-5.44-1.81-11-.18-16.52-.52-9.1-.58-18.26-.15-27.4-.15,8.52-12.75,16.59-25.79,24-39.22,3.33-6.06,7.16-11.87,9.65-18.37,5.17-8.61,9-17.9,13.58-26.8.64-1.23,1.88-2.39,1.53-4.06C515,267.42,515.35,266,515.58,264.43Z" transform="translate(-9.68 -56.61)"/>
    <path class="cls-3" d="M315.44,396.7a43.52,43.52,0,0,1-3.38-9.67c3.63-1.11,7.35-.4,11-.53,1.93-.06,4.88.55,4.39-2.26-.63-3.55-1.22-7.36-3.61-10.41-.21-3.34-1.61-6.35-2.65-9.45-2.85-8.49-4.84-17.26-8.32-25.55l0-.68,11.61,0c2,5.17,3.93,10.36,6,15.48,2.59,6.26,4.28,12.86,7.59,18.83a30.85,30.85,0,0,0,4.18,10.3,68.93,68.93,0,0,0,6.82,15.14,68.21,68.21,0,0,0,8.87,15.83,43.34,43.34,0,0,0,7,9.48A50.54,50.54,0,0,0,380,435.65a29.07,29.07,0,0,1-12.18,2.65c-8.5-3.68-15.87-8.83-21.32-16.46a58,58,0,0,1-6.17-9.61q-3.46-6.94-6.94-13.9c-.78-1.57-1.46-3.22-3.77-2.09-.78.39-1.54-.33-2.28-.3C323.37,396.08,319.29,394.77,315.44,396.7Z" transform="translate(-9.68 -56.61)"/>
    <path class="cls-4" d="M255.22,268.2l1.4-.29a17.28,17.28,0,0,0,5.42.18l1.33.15a1.18,1.18,0,0,0,1.56.4l1.19.1a68,68,0,0,1,17.14,10c.71,2.45,3.59,3.28,4.28,5.74-.38,2-3.11,2-3.5,4-1.44.19-2.4,1.15-3.45,2-2.94,2.47-5.94,4.87-8.91,7.29a6.88,6.88,0,0,1,.86-3.94c1-2.12-.45-3.05-2-2.6-3.58,1.07-7.27.71-10.91,1.45-7.89,1.62-15.85,3.13-23.75,4.72-5.64,1.13-11.57,1-17,3.3-1.39.6-2.63,0-3.63-1.09a3.76,3.76,0,0,1,1.2-2.71c3.55-4.27,7.06-8.57,10.57-12.86,5.5-4.79,11.2-9.31,18-12.11C248.41,270.57,251.83,269.44,255.22,268.2Z" transform="translate(-9.68 -56.61)"/>
    <path class="cls-5" d="M176.87,443.76c-8.44,1.07-16.92.49-25.39.46,1-12.74,3.62-25.16,6.83-37.48,9.43-.28,18.46-3,27.69-4.46,3.78-.59,7.49-2.7,11.49-1-1.25,3.59-3.88,6.54-4.8,10.28a27.46,27.46,0,0,0-4.11,8.2A192.93,192.93,0,0,0,176.87,443.76Z" transform="translate(-9.68 -56.61)"/>
    <path class="cls-3" d="M409.08,353.92,411,361.5c-4,1.27-8.17.78-12.21.58s-5,1.57-3.6,5.63c1.08,3.16.26,4.67-3.14,4.74-3.7.08-7.4-1.1-11.1,0-.22-.23-.44-.47-.67-.7a24.6,24.6,0,0,0-.54-3c-2.1-6.84-4-13.73-6.42-20.48-2.06-5.87-3.12-12.09-6-17.66-.26-1.36-.53-2.73-.79-4.09a27.09,27.09,0,0,1,8.93-.26c2.91.36,5.6.3,8.21-1.09a39.36,39.36,0,0,1,2.8,8.86c1.61,5.42,3.27,10.83,4.82,16.26.62,2.21,1.38,4.19,4.07,4.31A92.13,92.13,0,0,0,409.08,353.92Z" transform="translate(-9.68 -56.61)"/>
    <path class="cls-6" d="M238.3,394.45c-7.68,28-25,44.92-53.27,48.71a25.06,25.06,0,0,1-6.11.55c13.31-3.43,22.75-11.45,28.43-23.92a26.62,26.62,0,0,0,4.2-8.19c2.53-2.54,3.53-6,5.23-9,2.5-4,5.33-7.79,6.83-12.33l2-2.06C229.84,390.35,233.3,394,238.3,394.45Z" transform="translate(-9.68 -56.61)"/>
    <path class="cls-5" d="M329.31,267.93l7.62.05,1.36.13,2,.15.27.52c-2.69,1.63-6.13,1.34-9,3.35,1.9,1.3,3.61,2.38,5.21,3.61s3.29,2.77,4.92,4.16a56.49,56.49,0,0,1,7.57,10.29c-3.34.5-6.71,0-10.09.54a33,33,0,0,1-7.54.34,104.06,104.06,0,0,0-13.33-.55c-5.48.33-11-.52-16.43,1l-1.37-.76c-1.19-4-4.77-6.33-6.95-9.64,4.31-3.05,9.14-5.14,13.79-7.56l.78-.5,0,0,17.2-4.85Z" transform="translate(-9.68 -56.61)"/>
    <path class="cls-7" d="M508.62,357.37l3.42-5.49a13.42,13.42,0,0,0,4.66.7c3.23-.39,5.9.94,8.41,2.73,0,.23,0,.45,0,.68a32.37,32.37,0,0,0-4.83,8.89c-3.52,3.86-5.35,8.78-8.2,13.06-3.26,4.15-3.25,4.15.48,7.17a1.91,1.91,0,0,1,.33.58,104.46,104.46,0,0,1-9.63,13.54,29.31,29.31,0,0,1-13.84-3.46l1.46-3.41.66-1.36a4.64,4.64,0,0,1,.17-.64,13.44,13.44,0,0,0,1.89-2.35c3-6.08,5.94-12.19,8.9-18.29A65.52,65.52,0,0,0,508.62,357.37Z" transform="translate(-9.68 -56.61)"/>
    <path class="cls-6" d="M380.92,372.44c3.7-1.09,7.4.09,11.1,0,3.4-.07,4.22-1.58,3.14-4.74-1.4-4.06-.58-5.84,3.6-5.63s8.19.69,12.21-.58a69,69,0,0,1,2.28,10.25c-4.62,0-9.23.06-13.84,0-1.73,0-2.35.89-2,2.34.88,3.34,1,6.88,2.68,10q2.4,8.91,4.79,17.82c-4.15-.43-8.29,0-12.44.05-1.56-1.63-1.36-4.27-3.27-5.71q-2.77-7.45-5.57-14.9C383.24,378.23,381.84,375.41,380.92,372.44Z" transform="translate(-9.68 -56.61)"/>
    <path class="cls-3" d="M515.58,264.43c-.23,1.54-.63,3-2.13,3.82a5.62,5.62,0,0,0-1,.18C497.7,273.58,487,283.37,479.78,297a3.69,3.69,0,0,0-3.72-2.12c-4.5,0-9-.45-13.51-.7,7.65-14.51,19.94-23.06,35.5-27.23A63,63,0,0,1,515.58,264.43Z" transform="translate(-9.68 -56.61)"/>
    <path class="cls-3" d="M256.05,339l-2.45,6c-3.66,3.61-6,8.11-8.7,12.41-1.91.73-1.58,3.34-3.44,4.11A23.2,23.2,0,0,0,231,360.38c-2.69.28-5.81,1.34-8.24-1.14l.23-1.17,14.55-21.2L242,332a6.92,6.92,0,0,0,3.58.76c3.94,0,7.87,0,11.81,0Z" transform="translate(-9.68 -56.61)"/>
    <path class="cls-8" d="M312.9,338.83c3.48,8.29,5.47,17.06,8.32,25.55,1,3.1,2.44,6.11,2.65,9.45-5,1.65-10.23,1.28-15.4,1.43-2.89-8-4.35-16.35-6.54-24.53-1-3.92-1.79-7.92-2.67-11.89Z" transform="translate(-9.68 -56.61)"/>
    <path class="cls-7" d="M423.36,407.25a1.17,1.17,0,0,1,.11-.49,128,128,0,0,0,17.27-18.48,109,109,0,0,0,10.95-13.75c1.28-.53,1.31-2.31,2.72-2.72-.92,6.21-3.73,11.85-5.46,17.81q-2.06,5.49-4.12,11a209.45,209.45,0,0,1-9,19.1L431,425.86a82.1,82.1,0,0,1-7.62-17.68C423.39,407.87,423.38,407.56,423.36,407.25Z" transform="translate(-9.68 -56.61)"/>
    <path class="cls-9" d="M423.4,408.18A82.64,82.64,0,0,0,431,425.86l.67,1.45c-4.29,2.15-6.91,6.44-11.64,8.31,3.59,2.68,7.49,2.63,10.92,3.91H404.27c4.68-1.12,9.69-1.11,14.54-4-6.14-3.18-9.7-8.52-14.58-12.37,0-.26,0-.53,0-.8,2.88-1,5.39-2.52,6.87-5.34,2.06-.55,3.49-2,5.05-3.35C418.5,411.73,420.46,409.31,423.4,408.18Z" transform="translate(-9.68 -56.61)"/>
    <path class="cls-10" d="M462.55,294.22c4.5.25,9,.67,13.51.7a3.69,3.69,0,0,1,3.72,2.12v.69a19.11,19.11,0,0,0-2.21,4.17c-1.92,5.49-4,10.93-6,16.4-.32-1.9-1.83-1.35-3-1.36-5-.05-10,0-15,0C455.6,309,458.08,301.2,462.55,294.22Z" transform="translate(-9.68 -56.61)"/>
    <path class="cls-11" d="M441.31,356.69c2-7.41,3.86-14.84,6.76-22,3.94,0,7.88-.09,11.81.06,2.07.08,4.27-.75,6.19.68a157.61,157.61,0,0,1-6.85,21.95c-.87-1.08-2.1-.71-3.19-.72C451.12,356.67,446.22,356.69,441.31,356.69Z" transform="translate(-9.68 -56.61)"/>
    <path class="cls-12" d="M560.81,264.19c7.18,0,14.36-.05,21.54,0,1,0,3.17-.43,1.87,1.78-3.42,5.81-6.42,11.87-10.33,17.38a12.53,12.53,0,0,0-5.92-.82c-4,.36-8,.12-12,.13.24-1.37.47-2.73.71-4.1C558.94,274,559.64,269,560.81,264.19Z" transform="translate(-9.68 -56.61)"/>
    <path class="cls-2" d="M404.91,401.93q-2.4-8.91-4.79-17.82c.88-1,2.09-.56,3.17-.68,4.42-.48,8.73.84,13.13.7q3.13,11.31,6.28,22.62H407C405.73,405.37,405.86,403.42,404.91,401.93Z" transform="translate(-9.68 -56.61)"/>
    <path class="cls-13" d="M404.23,423.18c4.88,3.85,8.44,9.19,14.58,12.37-4.85,2.87-9.86,2.86-14.54,4l-39.86,0c.86-1.19,2.58,0,3.42-1.25A29.15,29.15,0,0,0,380,435.65C389.08,433.41,396.77,428.52,404.23,423.18Z" transform="translate(-9.68 -56.61)"/>
    <path class="cls-9" d="M207.36,419.79c-5.69,12.47-15.13,20.49-28.44,23.92l-2,.05a192.93,192.93,0,0,1,11.71-24Z" transform="translate(-9.68 -56.61)"/>
    <path class="cls-14" d="M556,282.64c4,0,8,.23,12-.13a12.53,12.53,0,0,1,5.92.82q-6.15,11-12.29,21.95H548.47a40.16,40.16,0,0,1,1.16-4.24A115.84,115.84,0,0,0,554,287.45Z" transform="translate(-9.68 -56.61)"/>
    <path class="cls-10" d="M409.08,353.92a92.13,92.13,0,0,1-13.79.68c-2.69-.12-3.45-2.1-4.07-4.31-1.55-5.43-3.21-10.84-4.82-16.25l17.7,0A169.63,169.63,0,0,1,409.08,353.92Z" transform="translate(-9.68 -56.61)"/>
    <path class="cls-11" d="M152.09,384.8c2.91-8.49,7-16.47,11-24.47,1.2-2.43,2.1-5,3.95-7.11,2.86,0,5.92-2,8.52.78-.94,2.43-1.9,4.85-2.82,7.28q-4.43,11.76-8.83,23.52C160,384.29,156,385.69,152.09,384.8Z" transform="translate(-9.68 -56.61)"/>
    <path class="cls-8" d="M466.07,335.47c-1.92-1.43-4.12-.6-6.19-.68-3.93-.15-7.87-.06-11.81-.06a143.94,143.94,0,0,1,5.51-17.82c5,0,10,0,15,0,1.14,0,2.65-.54,3,1.36A112.75,112.75,0,0,1,466.07,335.47Z" transform="translate(-9.68 -56.61)"/>
    <path class="cls-2" d="M367.83,438.3c-.84,1.25-2.56.06-3.42,1.25-15.53,1.29-27.39-4.88-36-17.67a178.54,178.54,0,0,1,18.07,0C352,429.47,359.33,434.62,367.83,438.3Z" transform="translate(-9.68 -56.61)"/>
    <path class="cls-15" d="M441.31,356.69c4.91,0,9.81,0,14.72,0,1.09,0,2.32-.36,3.18.72l-2.1,8.86h0c-.64.25-.64.82-.69,1.37L455,371l-.6.82h0c-1.41.41-1.44,2.19-2.72,2.72l-16.46,0C437.37,368.59,438.61,362.39,441.31,356.69Z" transform="translate(-9.68 -56.61)"/>
    <path class="cls-11" d="M307.37,273.6c-4.65,2.42-9.48,4.51-13.79,7.56a3.11,3.11,0,0,1-.6.09c-.76-1.67-2.54-2.19-3.78-3.33-3-2.78-3.33-2.69-5.94.78a68,68,0,0,0-17.14-10,2.75,2.75,0,0,1,2.24-.55c12.95,0,25.91,0,38.85-.52,1.21-.05,2.52-.39,3.62.49.11,2.2-2.9,2.72-2.7,5l0,0Z" transform="translate(-9.68 -56.61)"/>
    <path class="cls-6" d="M315.44,396.7c3.85-1.93,7.93-.62,11.91-.76.74,0,1.5.69,2.28.3,2.31-1.13,3,.52,3.77,2.09q3.47,7,6.94,13.9a25.26,25.26,0,0,1-5.64.12c-3.09-.26-6.25.34-9.39-.1a2,2,0,0,0-2.14,1.37A73.11,73.11,0,0,1,315.44,396.7Z" transform="translate(-9.68 -56.61)"/>
    <path class="cls-6" d="M158.31,406.74c-3.21,12.32-5.88,24.74-6.83,37.48l-14.33.16c-.32-1.14.44-1.93.92-2.82q3.63-6.76,7.23-13.54c4.27-7.12,8-14.52,11.66-22l1.34-1.47Z" transform="translate(-9.68 -56.61)"/>
    <path class="cls-15" d="M158.3,404.59,157,406.06c-4.37-.44-8.74.73-13.11,0a118.9,118.9,0,0,1,8.24-21.25c3.93.89,7.86-.51,11.79,0-.74,4.89-3.09,9.37-3.64,14.31Z" transform="translate(-9.68 -56.61)"/>
    <path class="cls-8" d="M404.1,334.09l-17.7,0a39.28,39.28,0,0,0-2.8-8.87c0-2.08-1.14-3.74-2-5.51l-.07-1.36,17.77,0A143.71,143.71,0,0,1,404.1,334.09Z" transform="translate(-9.68 -56.61)"/>
    <path class="cls-8" d="M175.53,354c-2.6-2.81-5.66-.74-8.52-.78a225.8,225.8,0,0,1,21.52-35c1.69,1,3.63,1.08,5.5,1.4q-1.6,2.77-3.22,5.55a152.92,152.92,0,0,0-8.45,15.7C179.29,344.87,178.45,350,175.53,354Z" transform="translate(-9.68 -56.61)"/>
    <path class="cls-11" d="M289.46,301.9c-3.87,1.7-6,5.27-8.83,8.14s-5.49,6-8.22,9c-3-1-6.11.32-9.05-.81-.08-1.87.74-3.51,1.32-5.23,1.33-3.95,3.38-7.65,4.26-11.77l1.31-1.47c1,1.13,2.32.67,3.51.7,5.05.14,10.13-.36,15.15.62Z" transform="translate(-9.68 -56.61)"/>
    <path class="cls-11" d="M399.3,318.34l-17.77,0q-3-7.56-6-15.13c4.68,0,9.36.05,14,0,1.1,0,2.34.35,3.1-.88A67.28,67.28,0,0,1,399.3,318.34Z" transform="translate(-9.68 -56.61)"/>
    <path class="cls-3" d="M238.3,394.45c-5-.5-8.46-4.1-12.66-6.22.17-1.64,1.62-2.63,2.08-4.11,1.62-2.38,3.43-4.65,4.12-7.54,2.63-1.94,3.13-5.42,5.49-7.55,3,.35,5.07,2.66,7.82,3.51C243.11,379.92,240.87,387.23,238.3,394.45Z" transform="translate(-9.68 -56.61)"/>
    <path class="cls-2" d="M489.4,395.77a29.31,29.31,0,0,0,13.84,3.46,98,98,0,0,1-10,12.46c-2.47-1-5.24-1.73-7.42-.14-3,2.16-5.43,5-8.11,7.53-3.42,2.56-6.31,5.84-10.37,7.5.39-2.15,2.66-2.9,3.53-4.69,5.83-5.91,10.33-12.77,14.38-20Z" transform="translate(-9.68 -56.61)"/>
    <path class="cls-15" d="M392.65,302.32c-.76,1.23-2,.88-3.1.88-4.68,0-9.36,0-14,0-.46-.73-.91-1.46-1.36-2.2a34.09,34.09,0,0,0-4.29-8c-.3-.74-.61-1.48-.92-2.22.79-1.6,2.29-1.17,3.59-1.21,4.38-.12,8.8.37,13.14-.68C388.58,293,391.57,297.18,392.65,302.32Z" transform="translate(-9.68 -56.61)"/>
    <path class="cls-14" d="M143.85,406.05c4.37.74,8.74-.43,13.11,0-3.66,7.44-7.39,14.84-11.66,22-2.86-1.58-6-.29-8.9-.74,2.47-6.17,3.39-12.84,6.13-18.92A5.2,5.2,0,0,1,143.85,406.05Z" transform="translate(-9.68 -56.61)"/>
    <path class="cls-12" d="M340.59,268.78l-.27-.52c4.67-1.49,9.5-.76,14.21-.58,8.11.3,15.14,3.74,21.29,8.94,1,.85,2.25,1.66,2.33,3.24-3.84,1.6-7.86.3-11.77.74-1.4.16-3-.62-4.13.89l-4.76-4.18C352.68,272.84,347.22,269.66,340.59,268.78Z" transform="translate(-9.68 -56.61)"/>
    <path class="cls-11" d="M553.31,319.7c-4,7.71-8.34,15.29-13.12,22.59-2.51-.37-5.17.83-7.57-.75l3.58-8.83a22.74,22.74,0,0,0,3.4-7.54c1.67-1.76,1.5-4.47,3.25-6.18C546.33,319.38,549.92,318.14,553.31,319.7Z" transform="translate(-9.68 -56.61)"/>
    <path class="cls-16" d="M467.36,426.58c4.06-1.66,6.95-4.94,10.37-7.5,2.4,1.57,5.16-.47,7.59.75-1.23,2.73-3.71,4.28-5.87,6.09-7.5,6.32-15.36,12-25.49,13.4a25,25,0,0,1-5.8.23c-1-1-2.22-.45-3.35-.6,3.78-1.83,7.85-3,11.56-5,2.9-1.58,5-4.29,8.28-5.29l.71-.73,0,0a1.36,1.36,0,0,0,1.41-.71l0,0,.71-.7Z" transform="translate(-9.68 -56.61)"/>
    <path class="cls-10" d="M312.9,338.83H299.26q-2.07-8.56-4.16-17.12l12.24,0q2.09,5.47,4.16,10.94c-.06,2,1.13,3.59,1.43,5.46Z" transform="translate(-9.68 -56.61)"/>
    <path class="cls-7" d="M416.42,384.13c-4.4.14-8.71-1.18-13.13-.7-1.08.12-2.29-.36-3.17.68-1.64-3.13-1.8-6.67-2.68-10-.38-1.45.24-2.36,2-2.34,4.61.05,9.22,0,13.84,0A103.53,103.53,0,0,1,416.42,384.13Z" transform="translate(-9.68 -56.61)"/>
    <path class="cls-3" d="M255.22,268.2c-3.39,1.24-6.81,2.37-10.15,3.73-6.82,2.8-12.52,7.32-18,12.11a3.15,3.15,0,0,0-2.51.74c-2.15,2-4.43,3.81-6.52,5.86-2.8,2.74-5.46,5.63-8.19,8.45-.56-2.2-2.33-2-4-2,10.76-11.7,22.67-21.83,38-27.14A25.8,25.8,0,0,1,255.22,268.2Z" transform="translate(-9.68 -56.61)"/>
    <path class="cls-10" d="M308.47,375.26c5.17-.15,10.38.22,15.4-1.43,2.39,3.05,3,6.86,3.61,10.41.49,2.81-2.46,2.2-4.39,2.26-3.68.13-7.4-.58-11,.53A53.19,53.19,0,0,1,308.47,375.26Z" transform="translate(-9.68 -56.61)"/>
    <path class="cls-15" d="M553.31,319.7c-3.39-1.56-7-.32-10.46-.71l.78-2.74a46.84,46.84,0,0,0,3.53-9.6l1.31-1.38H561.6A100.65,100.65,0,0,1,553.31,319.7Z" transform="translate(-9.68 -56.61)"/>
    <path class="cls-14" d="M435.23,374.48l16.46,0a109,109,0,0,1-10.95,13.75c-2.73-2.37-6-1.11-9.09-1.42Q433.43,380.67,435.23,374.48Z" transform="translate(-9.68 -56.61)"/>
    <path class="cls-7" d="M323.17,413.62a2,2,0,0,1,2.14-1.37c3.14.44,6.3-.16,9.39.1a25.26,25.26,0,0,0,5.64-.12,58,58,0,0,0,6.17,9.61,178.54,178.54,0,0,0-18.07,0A30.39,30.39,0,0,1,323.17,413.62Z" transform="translate(-9.68 -56.61)"/>
    <path class="cls-14" d="M362.25,281.49c1.11-1.51,2.73-.73,4.13-.89,3.91-.44,7.93.86,11.77-.74,3.6,2.07,5.58,5.5,7.52,9-4.34,1.05-8.76.56-13.14.68-1.3,0-2.8-.39-3.59,1.21Z" transform="translate(-9.68 -56.61)"/>
    <path class="cls-10" d="M205.81,297.06c1.69,0,3.46-.17,4,2-2.11,2.63-4.29,5.21-6.33,7.89-3.21,4.2-6.32,8.46-9.47,12.7-1.87-.33-3.81-.39-5.5-1.41A139.12,139.12,0,0,1,205.81,297.06Z" transform="translate(-9.68 -56.61)"/>
    <path class="cls-13" d="M444.81,439c1.13.15,2.38-.41,3.35.6l-17.18,0c-3.43-1.28-7.33-1.23-10.92-3.91,4.73-1.87,7.35-6.16,11.64-8.31C434.82,432.59,438.57,437.17,444.81,439Z" transform="translate(-9.68 -56.61)"/>
    <path class="cls-12" d="M136.4,427.28c2.95.45,6-.84,8.9.74q-3.62,6.76-7.23,13.54c-.48.89-1.24,1.68-.92,2.82-5.56.14-5.62.13-4.21-5.42A76.74,76.74,0,0,1,136.4,427.28Z" transform="translate(-9.68 -56.61)"/>
    <path class="cls-15" d="M263.36,318.22c2.94,1.13,6.1-.18,9.05.81q-7.28,9.59-14.55,19.17a2.48,2.48,0,0,1-1.81.78l1.32-6.27c1.57-2.28,2.14-4.92,2.72-7.56C261.8,323.13,261.32,320.08,263.36,318.22Z" transform="translate(-9.68 -56.61)"/>
    <path class="cls-12" d="M431.65,386.86c3.06.31,6.36-.95,9.09,1.42a128,128,0,0,1-17.27,18.48q3.69-9.64,7.39-19.28C431,387.21,431.38,387.06,431.65,386.86Z" transform="translate(-9.68 -56.61)"/>
    <path class="cls-8" d="M532.62,341.54c2.4,1.58,5.06.38,7.57.75-3.05,5.34-5.88,10.82-9.56,15.79-1.57-1.43-4-.66-5.54-2.09,0-.23,0-.45,0-.68Q528.88,348.43,532.62,341.54Z" transform="translate(-9.68 -56.61)"/>
    <path class="cls-6" d="M293.12,314.17q-1.42-5.15-2.86-10.28l9.62.67c1.88,2.24,2.49,5.16,4.07,7.56l.64,2.08A73.2,73.2,0,0,0,293.12,314.17Z" transform="translate(-9.68 -56.61)"/>
    <path class="cls-4" d="M407,406.74H422.7l.66.5c0,.31,0,.62.05.93-3,1.13-4.91,3.55-7.21,5.51-1.56,1.33-3,2.8-5.05,3.35A32.11,32.11,0,0,1,407,406.74Z" transform="translate(-9.68 -56.61)"/>
    <path class="cls-10" d="M245.15,372.54c-2.75-.85-4.84-3.16-7.82-3.51.93-2.76,3.42-4.66,4.13-7.53,1.86-.77,1.53-3.38,3.44-4.11.94,1.69,2.75,1.6,4.29,2.06A93.42,93.42,0,0,1,245.15,372.54Z" transform="translate(-9.68 -56.61)"/>
    <path class="cls-3" d="M293.12,314.17a73.2,73.2,0,0,1,11.47,0l2.15,6.12.6,1.43-12.24,0Z" transform="translate(-9.68 -56.61)"/>
    <path class="cls-14" d="M560.81,264.19c-1.17,4.84-1.87,9.81-4.08,14.35-2.41-1.49-5.07-.32-7.59-.71.07-.23.15-.45.23-.68l.48-.66c1.65-4.3,4.69-7.92,6.12-12.32Z" transform="translate(-9.68 -56.61)"/>
    <path class="cls-3" d="M512.06,377.94c2.85-4.28,4.68-9.2,8.2-13.06,1.26,1.29,2,3.4,4.44,2.84a76.41,76.41,0,0,1-7.1,11C515.94,377,513.7,379.76,512.06,377.94Z" transform="translate(-9.68 -56.61)"/>
    <path class="cls-4" d="M485.32,419.83c-2.43-1.22-5.19.82-7.59-.75,2.68-2.54,5.15-5.37,8.11-7.53,2.18-1.59,5-.9,7.42.14C490.73,414.52,488.83,418,485.32,419.83Z" transform="translate(-9.68 -56.61)"/>
    <path class="cls-10" d="M524.7,367.72c-2.45.56-3.18-1.55-4.44-2.84a32.37,32.37,0,0,1,4.83-8.89c1.57,1.43,4,.66,5.54,2.09A68.51,68.51,0,0,1,524.7,367.72Z" transform="translate(-9.68 -56.61)"/>
    <path class="cls-7" d="M299.88,304.56l-9.62-.67c-.27-.66-.54-1.33-.8-2l-.55-.83a1.58,1.58,0,0,1,0-.65c2.26-.36,3.18-2.44,4.7-3.74,1.09-.93,2-1.24,2.69.23,1.14,2.35,2.95,4.35,3.6,6.95C299.91,304.09,299.89,304.32,299.88,304.56Z" transform="translate(-9.68 -56.61)"/>
    <path class="cls-8" d="M249.19,359.45c-1.54-.46-3.35-.37-4.29-2.06,2.67-4.3,5-8.8,8.7-12.41C252.78,350,250.93,354.71,249.19,359.45Z" transform="translate(-9.68 -56.61)"/>
    <path class="cls-6" d="M512.06,377.94c1.64,1.82,3.88-.91,5.54.75a38.58,38.58,0,0,1-4.73,7,1.91,1.91,0,0,0-.33-.58C508.81,382.09,508.8,382.09,512.06,377.94Z" transform="translate(-9.68 -56.61)"/>
    <path class="cls-8" d="M308.13,273.14c-.2-2.26,2.81-2.78,2.7-5l13.78-.23.72.36Z" transform="translate(-9.68 -56.61)"/>
    <path class="cls-12" d="M262,268.09a17.28,17.28,0,0,1-5.42-.18A7,7,0,0,1,262,268.09Z" transform="translate(-9.68 -56.61)"/>
    <path class="cls-12" d="M325.33,268.29l-.72-.36a6.26,6.26,0,0,1,4.7,0Z" transform="translate(-9.68 -56.61)"/>
    <path class="cls-11" d="M264.93,268.64a1.18,1.18,0,0,1-1.56-.4A1.43,1.43,0,0,1,264.93,268.64Z" transform="translate(-9.68 -56.61)"/>
    <path class="cls-12" d="M338.29,268.11l-1.36-.13A.77.77,0,0,1,338.29,268.11Z" transform="translate(-9.68 -56.61)"/>
    <path class="cls-6" d="M457.11,366.28l2.1-8.86a156.32,156.32,0,0,0,6.86-21.95,112.75,112.75,0,0,0,5.47-17.17c2-5.47,4.11-10.91,6-16.4a19.11,19.11,0,0,1,2.21-4.17,20,20,0,0,0,6.94.86c3.87,0,7.84-1.48,11.62.52-2.49,6.5-6.32,12.31-9.65,18.37-7.4,13.43-15.47,26.47-24,39.22C462.08,359.82,460.83,364,457.11,366.28Z" transform="translate(-9.68 -56.61)"/>
    <path class="cls-4" d="M457.11,366.28c3.72-2.25,5-6.46,7.59-9.58,9.14,0,18.3-.43,27.4.15,5.52.34,11.08-1.29,16.52.52a65.52,65.52,0,0,1-6.14,12.35c-4.45-.51-8.94-.38-13.41-.57-9.32-.39-18.67-.11-28-.13-1.43,0-3,.42-3.94-1.28,0-.48,0-1,0-1.45Z" transform="translate(-9.68 -56.61)"/>
    <path class="cls-7" d="M498.34,299.11c-3.78-2-7.75-.49-11.62-.52a20,20,0,0,1-6.94-.86V297c7.25-13.67,17.92-23.46,32.66-28.61a5.62,5.62,0,0,1,1-.18c.35,1.67-.89,2.83-1.53,4.06C507.33,281.21,503.51,290.5,498.34,299.11Z" transform="translate(-9.68 -56.61)"/>
    <path class="cls-6" d="M532.62,341.54q-3.75,6.88-7.51,13.77c-2.51-1.79-5.18-3.12-8.41-2.73a13.42,13.42,0,0,1-4.66-.7c.36-3.28,2.41-5.85,3.74-8.71,1.87-4,3.94-7.9,5.92-11.85a84,84,0,0,0,14.5,1.39Z" transform="translate(-9.68 -56.61)"/>
    <path class="cls-11" d="M548.47,305.27l-1.31,1.38c-4.35-.33-8.71,1.75-13.06,0a178.64,178.64,0,0,1,10.24-19.89,2,2,0,0,0,2.42.63c2.46-1.09,4.81-.17,7.2.07A115.84,115.84,0,0,1,549.63,301,40.16,40.16,0,0,0,548.47,305.27Z" transform="translate(-9.68 -56.61)"/>
    <path class="cls-8" d="M534.1,306.64c4.35,1.76,8.71-.32,13.06,0a46.84,46.84,0,0,1-3.53,9.6H529.26A37.33,37.33,0,0,1,534.1,306.64Z" transform="translate(-9.68 -56.61)"/>
    <path class="cls-3" d="M536.2,332.71a84,84,0,0,1-14.5-1.39c1-2.33,1.75-4.83,3.41-6.85a24.11,24.11,0,0,1,2.65-.29c4-.05,8-.49,11.84,1A22.74,22.74,0,0,1,536.2,332.71Z" transform="translate(-9.68 -56.61)"/>
    <path class="cls-10" d="M539.6,325.17c-3.85-1.48-7.86-1-11.84-1a24.11,24.11,0,0,0-2.65.29,29,29,0,0,1,4.15-8.23h14.37l-.78,2.74C541.1,320.7,541.27,323.41,539.6,325.17Z" transform="translate(-9.68 -56.61)"/>
    <path class="cls-15" d="M554,287.45c-2.39-.24-4.74-1.16-7.2-.07a2,2,0,0,1-2.42-.63,48.23,48.23,0,0,1,4.8-8.92c2.52.39,5.18-.78,7.59.71-.24,1.37-.47,2.73-.71,4.1C555.33,284.24,554.65,285.85,554,287.45Z" transform="translate(-9.68 -56.61)"/>
    <path class="cls-15" d="M549.85,276.49l-.48.66Z" transform="translate(-9.68 -56.61)"/>
    <path class="cls-2" d="M367.25,330.61c2.92,5.57,4,11.79,6,17.66,2.37,6.75,4.32,13.64,6.42,20.48a24.6,24.6,0,0,1,.54,3c-9.07.21-18.16.81-27.22.46-5-.19-9.91-.63-14.85.29-3.31-6-5-12.57-7.59-18.83-2.12-5.12-4-10.31-6-15.48l-2.07-5.48v-1.36a7.22,7.22,0,0,1,2.26-.65,117.36,117.36,0,0,0,15.12-.09c3.46-.24,6.83,1.24,10.18.65C355.77,330.22,361.55,331.53,367.25,330.61Z" transform="translate(-9.68 -56.61)"/>
    <path class="cls-16" d="M383.63,381.37q2.79,7.44,5.57,14.9c-1.61,2-3.35-.16-5.05.16-4.76.88-9.62.31-14.4.37-4.45.05-8.95-.22-13.43.09-2.4.17-4.92-.35-7.14,1a68.93,68.93,0,0,1-6.82-15.14c.57-1.23,1.71-1.18,2.84-1.48,4-1,8.23-.45,12.08-.21C366.09,381.65,374.88,380,383.63,381.37Z" transform="translate(-9.68 -56.61)"/>
    <path class="cls-13" d="M349.18,397.93c2.22-1.39,4.74-.87,7.14-1,4.48-.31,9,0,13.43-.09,4.78-.06,9.64.51,14.4-.37,1.7-.32,3.44,1.87,5.05-.16,1.91,1.44,1.71,4.08,3.28,5.71l4.89,10.24c-5.48.18-11,1-16.42.38-6-.7-11.93.45-17.86-.35a5.91,5.91,0,0,0-5,1.51A68.21,68.21,0,0,1,349.18,397.93Z" transform="translate(-9.68 -56.61)"/>
    <path class="cls-4" d="M383.63,381.37c-8.75-1.33-17.54.28-26.35-.27-3.85-.24-8.06-.83-12.08.21-1.13.3-2.27.25-2.84,1.48a30.85,30.85,0,0,1-4.18-10.3c4.94-.92,9.86-.48,14.85-.29,9.06.35,18.15-.25,27.22-.46.23.23.45.47.67.7C381.84,375.41,383.24,378.23,383.63,381.37Z" transform="translate(-9.68 -56.61)"/>
    <path class="cls-9" d="M358.05,413.76a5.91,5.91,0,0,1,5-1.51c5.93.8,11.86-.35,17.86.35,5.38.62,10.94-.2,16.42-.38l5.6,8.64c-1,1.48-2.47.93-3.76.94-10.28,0-20.56,0-30.84.05-1.22,0-2.91-.71-3.31,1.39A43.34,43.34,0,0,1,358.05,413.76Z" transform="translate(-9.68 -56.61)"/>
    <path class="cls-5" d="M365.06,423.24c.4-2.1,2.09-1.39,3.31-1.39,10.28-.05,20.56,0,30.84-.05,1.29,0,2.8.54,3.76-.94.43.51.87,1,1.31,1.52,0,.27,0,.54,0,.8-7.46,5.34-15.15,10.23-24.21,12.47A50.45,50.45,0,0,1,365.06,423.24Z" transform="translate(-9.68 -56.61)"/>
    <path class="cls-6" d="M322.47,332.71l2.07,5.47-11.61,0c-.3-1.87-1.49-3.5-1.43-5.46Z" transform="translate(-9.68 -56.61)"/>
    <path class="cls-16" d="M270.25,299.75l-1.31,1.47a32.62,32.62,0,0,0-2.84,2.39c-4,4.28-8,8.64-12.05,12.92-2.14,2.26-4.47,4.35-5.73,7.29A39.35,39.35,0,0,0,242,332c-1.48,1.64-2.95,3.28-4.44,4.92-2.11-.22-4.48-2.26-6.17-1-3.23,2.49-7.09,1.87-10.46,2.44-5.52.94-11,2.28-16.59,2.75-5.15.43-9.9,2.6-15.06,2.57.91-2.06,1.83-4.11,2.74-6.17,4.73-8.29,9.33-16.65,14.21-24.84,2.71-4.55,5.07-9.39,9.07-13.05,1,1.05,2.24,1.69,3.63,1.09,5.41-2.35,11.34-2.17,17-3.3,7.9-1.59,15.86-3.1,23.75-4.72,3.64-.74,7.33-.38,10.91-1.45,1.54-.45,3,.48,2,2.6a6.88,6.88,0,0,0-.86,3.94Z" transform="translate(-9.68 -56.61)"/>
    <path class="cls-6" d="M215.28,299.61c-4,3.66-6.36,8.5-9.07,13.05-4.88,8.19-9.48,16.55-14.21,24.84a16.6,16.6,0,0,0-9.64,3.42,152.92,152.92,0,0,1,8.45-15.7q1.62-2.78,3.22-5.55c3.15-4.23,6.26-8.49,9.47-12.69,2-2.68,4.22-5.26,6.33-7.89,2.73-2.82,5.39-5.71,8.19-8.45,2.09-2.05,4.37-3.89,6.52-5.86a3.15,3.15,0,0,1,2.51-.74c-3.51,4.29-7,8.59-10.57,12.86A3.76,3.76,0,0,0,215.28,299.61Z" transform="translate(-9.68 -56.61)"/>
    <path class="cls-16" d="M299.92,303.86c-.65-2.6-2.46-4.6-3.6-6.95-.73-1.47-1.6-1.16-2.69-.23-1.52,1.3-2.44,3.38-4.7,3.74-1.37-4.09-2.58-8.25-4.89-12,.39-2,3.12-2,3.5-4,.21.08.41.17.6.26,1.17,1.52,2.43,3,3.49,4.56,3.82,5.71,3.79,5.73,8.9,1.54l1.37.76,4.13,6.83c1,1.77,2.4,3.37,2.74,5.49Z" transform="translate(-9.68 -56.61)"/>
    <path class="cls-8" d="M284,288.46c2.31,3.71,3.52,7.87,4.89,12a1.58,1.58,0,0,0,0,.65c-5-1-10.1-.48-15.15-.62-1.19,0-2.52.43-3.51-.7l1.43-2c3-2.42,6-4.82,8.91-7.29C281.64,289.61,282.6,288.65,284,288.46Z" transform="translate(-9.68 -56.61)"/>
    <path class="cls-10" d="M288.14,284.7c-.19-.09-.39-.18-.6-.26-.69-2.46-3.57-3.29-4.28-5.74,2.61-3.47,2.91-3.56,5.94-.78,1.24,1.14,3,1.66,3.78,3.33Z" transform="translate(-9.68 -56.61)"/>
    <path class="cls-9" d="M158.3,404.59q1-2.73,1.94-5.48c1.36-.52,1.5-1.92,2-3,5.4-10.38,10.74-20.79,16.1-31.19,10.06-1,20-2.77,30-4.37,4.89-.78,9.57-2.72,14.62-2.51-.08.39-.16.78-.23,1.17a100.74,100.74,0,0,0-9.54,15.26c-1.82,2-2.88,4.47-4.08,6.86a25,25,0,0,0-4.21,7.46,62.92,62.92,0,0,0-6.77,12.43l-.68,0c-4-1.69-7.71.42-11.49,1-9.23,1.46-18.26,4.18-27.69,4.46C158.31,406,158.3,405.31,158.3,404.59Z" transform="translate(-9.68 -56.61)"/>
    <path class="cls-16" d="M197.49,401.27l.68,0c.66.85,1.62.65,2.51.68l16.1.69c-1.7,3-2.7,6.44-5.23,9a123.68,123.68,0,0,1-18.86-.05C193.61,407.81,196.24,404.86,197.49,401.27Z" transform="translate(-9.68 -56.61)"/>
    <path class="cls-13" d="M192.69,411.55a123.68,123.68,0,0,0,18.86.05,26.62,26.62,0,0,1-4.2,8.19l-18.77,0A27.46,27.46,0,0,1,192.69,411.55Z" transform="translate(-9.68 -56.61)"/>
    <path class="cls-4" d="M367.25,330.61c-5.7.92-11.48-.39-17.22.64-3.35.59-6.72-.89-10.18-.65a117.36,117.36,0,0,1-15.12.09,7.22,7.22,0,0,0-2.26.65c-2-2.69-2.89-5.88-4.1-8.93,3.12-1.32,6.24-.37,9.37,0,4.32.49,8.64-1.09,12.87-.53,8,1.08,15.84-.24,23.76-.16,1,1.48.82,3.46,2.09,4.81C366.72,327.88,367,329.25,367.25,330.61Z" transform="translate(-9.68 -56.61)"/>
    <path class="cls-6" d="M366.46,326.52c-1.27-1.35-1.11-3.33-2.09-4.81,0-.42,0-.85,0-1.28.84-1.09,2-.74,3.12-.75,4.72,0,9.44,0,14.15,0,.86,1.77,2,3.43,2,5.51-2.61,1.39-5.3,1.45-8.21,1.09A27.09,27.09,0,0,0,366.46,326.52Z" transform="translate(-9.68 -56.61)"/>
    <path class="cls-4" d="M216.78,402.62l-16.1-.69c-.89,0-1.85.17-2.51-.68a62.92,62.92,0,0,1,6.77-12.43c1.08,1.26,2.53.69,3.83.77,4.94.31,9.95-.66,14.84.7C222.11,394.83,219.28,398.63,216.78,402.62Z" transform="translate(-9.68 -56.61)"/>
    <path class="cls-2" d="M223.61,390.29c-4.89-1.36-9.9-.39-14.84-.7-1.3-.08-2.75.49-3.83-.77a25,25,0,0,1,4.21-7.46c.33,1.9,1.85,1.35,3,1.36,4,0,8,0,12,0,1.37,0,2.82-.22,3.56,1.38-.46,1.48-1.91,2.47-2.08,4.11C225,388.91,224.29,389.6,223.61,390.29Z" transform="translate(-9.68 -56.61)"/>
    <path class="cls-9" d="M306,298.39l-4.13-6.83c5.4-1.56,11-.71,16.43-1a104.06,104.06,0,0,1,13.33.55,33,33,0,0,0,7.54-.34c3.38-.57,6.75,0,10.09-.54l3.42,4.8c.58,1.34,1.49,2.56,1.55,4.1C338.2,297.86,322.11,298.93,306,298.39Z" transform="translate(-9.68 -56.61)"/>
    <path class="cls-4" d="M352.71,295l-3.42-4.8a56.49,56.49,0,0,0-7.57-10.29,2.05,2.05,0,0,1,2.49-1.18,47.09,47.09,0,0,0,11.92-.19,1.32,1.32,0,0,0,1.36-1.22l4.76,4.18,6.69,9.23c.31.74.62,1.48.92,2.22-4.35,1.45-8.84.32-13.26.67C355.17,293.72,353.54,293.22,352.71,295Z" transform="translate(-9.68 -56.61)"/>
    <path class="cls-16" d="M357.49,277.31a1.32,1.32,0,0,1-1.36,1.22,47.09,47.09,0,0,1-11.92.19,2.05,2.05,0,0,0-2.49,1.18c-1.63-1.39-3.22-2.85-4.92-4.16s-3.31-2.31-5.21-3.61c2.87-2,6.31-1.72,9-3.35C347.22,269.66,352.68,272.84,357.49,277.31Z" transform="translate(-9.68 -56.61)"/>
    <path class="cls-9" d="M288.14,284.7l4.84-3.45a3.11,3.11,0,0,0,.6-.09c2.18,3.31,5.76,5.62,6.95,9.64-5.11,4.19-5.08,4.17-8.9-1.54C290.57,287.67,289.31,286.22,288.14,284.7Z" transform="translate(-9.68 -56.61)"/>
    <path class="cls-8" d="M307.37,273.6l.78-.5Z" transform="translate(-9.68 -56.61)"/>
    <path class="cls-16" d="M457.12,367.74c.9,1.7,2.51,1.28,3.94,1.28,9.34,0,18.69-.26,28,.13,4.47.19,9,.06,13.41.57-3,6.1-5.89,12.21-8.9,18.29a13.44,13.44,0,0,1-1.89,2.35c-4.21-1.07-8.55-.76-12.79-.91-7.5-.26-15,.54-22.53.3-2.55-.09-1.2,1.69-2.19,2.61-.85-2.9-3-2.87-5.23-2.74,1.73-6,4.54-11.6,5.46-17.81h0L455,371l1.41-3.32Z" transform="translate(-9.68 -56.61)"/>
    <path class="cls-13" d="M449,389.62c2.22-.13,4.38-.16,5.23,2.74,1-.92-.36-2.7,2.19-2.61,7.5.24,15-.56,22.53-.3,4.24.15,8.58-.16,12.79.91a4.64,4.64,0,0,0-.17.64c-.91.12-1.83.23-.66,1.36l-1.46,3.41-4.13,6.16c-3.83-2.31-8.12-.88-12.12-1.15-9.4-.64-18.88-.2-28.32-.19Q446.89,395.1,449,389.62Z" transform="translate(-9.68 -56.61)"/>
    <path class="cls-16" d="M490.86,392.36c-1.17-1.13-.25-1.24.66-1.36Z" transform="translate(-9.68 -56.61)"/>
    <path class="cls-7" d="M404.28,422.38c-.44-.51-.88-1-1.31-1.52l-5.6-8.64L392.48,402c4.14-.07,8.28-.48,12.43-.05.95,1.49.82,3.44,2.06,4.81a32.11,32.11,0,0,0,4.18,10.3C409.67,419.86,407.16,421.36,404.28,422.38Z" transform="translate(-9.68 -56.61)"/>
    <path class="cls-13" d="M223,358.07c-5.05-.21-9.73,1.73-14.62,2.51-10,1.6-19.93,3.35-30,4.37l10.87-21.28c5.16,0,9.91-2.14,15.06-2.57,5.55-.47,11.07-1.81,16.59-2.75,3.37-.57,7.23,0,10.46-2.44,1.69-1.3,4.06.74,6.17,1Q230.28,347.48,223,358.07Z" transform="translate(-9.68 -56.61)"/>
    <path class="cls-6" d="M213.23,374.5a100.74,100.74,0,0,1,9.54-15.26c2.43,2.48,5.55,1.42,8.24,1.14a23.2,23.2,0,0,1,10.45,1.12c-.71,2.87-3.2,4.77-4.13,7.53-2.36,2.13-2.86,5.61-5.49,7.55a2,2,0,0,0-2.12-1.35c-3.46.56-6.93-.54-10.33.06A10.75,10.75,0,0,1,213.23,374.5Z" transform="translate(-9.68 -56.61)"/>
    <path class="cls-10" d="M242,332a39.35,39.35,0,0,1,6.34-8.13c.26,1.67,1.57,1.31,2.64,1.32,3,0,6.08,0,9.13,0-.58,2.64-1.15,5.28-2.72,7.56-3.94,0-7.87,0-11.81,0A6.92,6.92,0,0,1,242,332Z" transform="translate(-9.68 -56.61)"/>
    <path class="cls-9" d="M444.83,400.59c9.44,0,18.92-.45,28.32.19,4,.27,8.29-1.16,12.12,1.15-4,7.19-8.55,14.05-14.38,20-.47-3-2.83-2.24-4.55-2a44.51,44.51,0,0,1-4.6.06c-4.37.29-8.71-.4-13.08.14a34.64,34.64,0,0,1-12.87-.42A209.45,209.45,0,0,0,444.83,400.59Z" transform="translate(-9.68 -56.61)"/>
    <path class="cls-5" d="M435.79,419.69a34.64,34.64,0,0,0,12.87.42c4.37-.54,8.71.15,13.08-.14a44.51,44.51,0,0,0,4.6-.06c1.72-.26,4.08-1,4.55,2-.87,1.79-3.14,2.54-3.53,4.69h.05l-.71.7,0,0a1.36,1.36,0,0,0-1.41.71l0,0-.71.73c-3.24,1-5.38,3.71-8.28,5.29-3.71,2-7.78,3.15-11.56,5-6.24-1.78-10-6.36-13.11-11.64l-.67-1.45Z" transform="translate(-9.68 -56.61)"/>
    <path class="cls-7" d="M189.26,343.67,178.39,365c-5.36,10.4-10.7,20.81-16.1,31.19-.55,1.05-.69,2.45-2,3,.55-4.94,2.9-9.42,3.64-14.31q4.43-11.76,8.83-23.52c.92-2.43,1.88-4.85,2.82-7.28,2.92-4,3.76-9.13,6.83-13.08A16.6,16.6,0,0,1,192,337.5C191.09,339.56,190.17,341.61,189.26,343.67Z" transform="translate(-9.68 -56.61)"/>
    <path class="cls-6" d="M457.12,367.74l-.7-.08c.05-.55.05-1.12.69-1.37C457.12,366.77,457.12,367.26,457.12,367.74Z" transform="translate(-9.68 -56.61)"/>
    <path class="cls-7" d="M455,371l-.61.82Z" transform="translate(-9.68 -56.61)"/>
    <path class="cls-7" d="M381.6,319.66c-4.71,0-9.43,0-14.15,0-1.08,0-2.28-.34-3.12.75-1.64-1.49-1.21-4-2.72-5.56l-4.78-12.34a69.21,69.21,0,0,1,15.56-.21c1,.07,1.36-.66,1.76-1.35.45.74.9,1.47,1.36,2.2q3,7.56,6,15.13C381.55,318.75,381.58,319.2,381.6,319.66Z" transform="translate(-9.68 -56.61)"/>
    <path class="cls-8" d="M260.09,325.15c-3,0-6.09,0-9.13,0-1.07,0-2.38.35-2.64-1.32,1.26-2.94,3.59-5,5.73-7.29,4.05-4.28,8-8.64,12.05-12.92a32.62,32.62,0,0,1,2.84-2.39c-.88,4.12-2.93,7.82-4.26,11.77-.58,1.72-1.4,3.36-1.32,5.23C261.32,320.08,261.8,323.13,260.09,325.15Z" transform="translate(-9.68 -56.61)"/>
    <path class="cls-7" d="M213.23,374.5a10.75,10.75,0,0,0,6.16.79c3.4-.6,6.87.5,10.33-.06a2,2,0,0,1,2.12,1.35c-.69,2.89-2.5,5.16-4.12,7.54-.74-1.6-2.19-1.38-3.56-1.38-4,0-8,0-12,0-1.15,0-2.67.54-3-1.36C210.35,379,211.41,376.51,213.23,374.5Z" transform="translate(-9.68 -56.61)"/>
    <path class="cls-2" d="M374.15,301c-.4.69-.76,1.42-1.76,1.35a69.21,69.21,0,0,0-15.56.21c-1.23-.87-1.15-2.71-2.56-3.44-.07-1.54-1-2.76-1.56-4.1.83-1.77,2.46-1.27,3.89-1.38,4.42-.35,8.91.78,13.26-.67A34.09,34.09,0,0,1,374.15,301Z" transform="translate(-9.68 -56.61)"/>
    <path class="cls-2" d="M465.32,428a1.36,1.36,0,0,1,1.41-.71A1.36,1.36,0,0,1,465.32,428Z" transform="translate(-9.68 -56.61)"/>
    <path class="cls-2" d="M466.7,427.29l.71-.7Z" transform="translate(-9.68 -56.61)"/>
    <path class="cls-2" d="M464.65,428.68l.71-.73Z" transform="translate(-9.68 -56.61)"/>
    <path class="cls-7" d="M318.37,322.41c1.21,3,2.1,6.24,4.1,8.93v1.36h-11q-2.07-5.46-4.16-10.94l-.6-1.43,10.27,0C317.46,321,317.91,321.72,318.37,322.41Z" transform="translate(-9.68 -56.61)"/>
    <path class="cls-2" d="M317,320.34l-10.27,0-2.15-6.12c-.22-.69-.43-1.38-.64-2.08h9.6l1.41,2.73C315.64,316.69,316.33,318.51,317,320.34Z" transform="translate(-9.68 -56.61)"/>
    <path class="cls-4" d="M313.55,312.13H304c-1.58-2.4-2.19-5.32-4.07-7.56,0-.24,0-.47,0-.7l8.85,0C311.24,306.12,311.94,309.39,313.55,312.13Z" transform="translate(-9.68 -56.61)"/>
    <path class="cls-13" d="M313.55,312.13c-1.61-2.74-2.31-6-4.78-8.25-.34-2.12-1.7-3.72-2.74-5.49,16.08.54,32.17-.53,48.23.7,1.42.73,1.34,2.57,2.57,3.44l4.78,12.34c-6.11,1.33-12.31-.09-18.47.51-1.31.13-2.54-.84-4.18-.74-8,.49-16,1.84-24,.22Z" transform="translate(-9.68 -56.61)"/>
    <path class="cls-16" d="M315,314.86c8,1.62,16,.27,24-.22,1.64-.1,2.87.87,4.18.74,6.16-.6,12.36.82,18.47-.51,1.51,1.56,1.08,4.07,2.72,5.56,0,.43,0,.86,0,1.28-7.92-.08-15.8,1.24-23.76.16-4.23-.56-8.55,1-12.87.53-3.13-.36-6.25-1.31-9.37,0-.46-.69-.91-1.38-1.36-2.07C316.33,318.51,315.64,316.69,315,314.86Z" transform="translate(-9.68 -56.61)"/>
  </g>
</svg>
