<svg id="Layer_1" data-name="Layer 1" xmlns="http://www.w3.org/2000/svg" width="9.57in" height="8.3in" viewBox="0 0 689.05 597.88">
  <defs>
    <style>
      .cls-1 {
        fill: #5793be;
      }

      .cls-2 {
        fill: #fefeff;
      }

      .cls-3 {
        font-size: 109.4px;
        fill: #fff;
        font-family: Montserrat-Bold, Montserrat;
        font-weight: 700;
      }
    </style>
  </defs>
  <g>
    <path class="cls-1" d="M187.31,56.81H533.17c-.1,1,.59,1.62,1,2.36q84.87,147,169.82,294a4.43,4.43,0,0,1-.08,5.16Q619,505.27,534.26,652.23a4.23,4.23,0,0,1-4.29,2.46q-55.7-.09-111.37-.05-114.11,0-228.23.05a4.17,4.17,0,0,1-4.28-2.47c-3.78-6.84-7.77-13.56-11.68-20.33Q95.68,495.53,16.89,359.2c-1.43-2.48-1.58-4.27-.08-6.85Q98.24,211.6,179.49,70.77C182.16,66.15,185.08,61.67,187.31,56.81Zm-5.18,301.57a221.58,221.58,0,0,0,4.21,40.35c13.39,66.14,69,123.13,148.35,130.31a236.5,236.5,0,0,0,48.25-.39c19.33-2.21,37.93-7,55.42-15.66,23.08-11.43,42.61-27.66,61-45.4.78-.75.74-1.22,0-1.94-2-2-3.86-4-5.79-6.06q-17.28-18.09-34.54-36.19c-1.2-1.27-1.89-1.09-3,.06-2.33,2.4-4.79,4.69-7.27,6.94-12,10.91-24.66,21.07-39.55,27.89-26,11.9-53.13,14-80.68,7.39-32.34-7.77-57-26.1-72.09-56.2-7.2-14.32-10.58-29.66-11.43-45.62-.9-17.19.73-34.12,7.7-49.93,17.29-39.21,47-62.54,89.92-67.94,23.6-3,46.27,1,67.79,11.13,17.33,8.16,32.2,19.7,45.46,33.41,1.34,1.38,2.09,1.53,3.57.11Q479.65,271.23,500,252c1.36-1.28,1.45-2,.2-3.38a190.25,190.25,0,0,0-163.35-63.34,176.46,176.46,0,0,0-63,19.19c-30.63,16-55.2,38.25-71.79,68.85C187.91,299.4,182.22,327.49,182.13,358.38Zm274.21-8.44c-2.47,0-4.95.07-7.42,0-1.38-.05-1.81.48-1.78,1.8.06,2.71.11,5.43,0,8.13-.08,1.76.64,2.13,2.24,2.1,4.3-.09,8.61-.05,12.92,0,3.59,0,3.25-.42,3.27,3.14,0,4.23.05,8.46,0,12.69,0,1.44.42,2,1.9,1.92,2.79-.1,5.59-.1,8.38,0,1.5.05,1.91-.51,1.89-1.94-.07-4.38.08-8.78-.07-13.16-.07-2,.4-2.8,2.61-2.71,4.54.19,9.1,0,13.64.09,1.59,0,2.09-.5,2-2.05-.11-2.63-.13-5.27,0-7.9.09-1.76-.62-2.12-2.22-2.09-4.63.09-9.26,0-13.88.07-1.68,0-2.21-.49-2.17-2.17.11-4.3-.06-8.62.08-12.92.06-2-.34-2.92-2.59-2.72a49,49,0,0,1-7.17,0c-1.84-.11-2.52.4-2.45,2.35.14,4.47,0,8.94.07,13.41,0,1.57-.48,2.1-2.06,2C461.14,349.85,458.74,349.94,456.34,349.94Zm59.73,12c2.23,0,4.48.13,6.7,0,2-.16,2.8.4,2.71,2.6-.18,4.38,0,8.77-.08,13.16,0,1.57.48,2.09,2,2,2.71-.11,5.43-.12,8.14,0,1.61.07,2-.55,2-2.07-.08-4.46,0-8.93-.06-13.4,0-1.74.4-2.38,2.25-2.33,4.63.13,9.26,0,13.88.08,1.71,0,2.22-.54,2.14-2.18a59.31,59.31,0,0,1,0-7.18c.14-2-.4-2.79-2.6-2.7-4.54.18-9.1,0-13.65.08-1.6,0-2-.51-2-2.05.08-4.47,0-8.94.06-13.4,0-1.71-.34-2.46-2.23-2.34a65.25,65.25,0,0,1-7.66,0c-1.76-.09-2.36.43-2.31,2.26.12,4.46,0,8.93.07,13.4,0,1.71-.55,2.17-2.19,2.13-4.78-.09-9.57,0-14.36-.05-1.25,0-1.93.25-1.9,1.69.08,2.87.08,5.75,0,8.62,0,1.42.6,1.75,1.88,1.71C511.28,361.86,513.68,361.92,516.07,361.92Z" transform="translate(-15.75 -56.81)"/>
    <path class="cls-2" d="M182.13,358.38c.09-30.89,5.78-59,19.92-85.05,16.59-30.6,41.16-52.9,71.79-68.85a176.46,176.46,0,0,1,63-19.19,190.25,190.25,0,0,1,163.35,63.34c1.25,1.41,1.16,2.1-.2,3.38q-20.36,19.23-40.56,38.63c-1.48,1.42-2.23,1.27-3.57-.11-13.26-13.71-28.13-25.25-45.46-33.41C388.91,247,366.24,243,342.64,246c-42.89,5.4-72.63,28.73-89.92,67.94-7,15.81-8.6,32.74-7.7,49.93.85,16,4.23,31.3,11.43,45.62,15.12,30.1,39.75,48.43,72.09,56.2,27.55,6.61,54.69,4.51,80.68-7.39,14.89-6.82,27.51-17,39.55-27.89,2.48-2.25,4.94-4.54,7.27-6.94,1.13-1.15,1.82-1.33,3-.06q17.22,18.15,34.54,36.19c1.93,2,3.83,4.07,5.79,6.06.71.72.75,1.19,0,1.94-18.39,17.74-37.92,34-61,45.4-17.49,8.65-36.09,13.45-55.42,15.66a236.5,236.5,0,0,1-48.25.39c-79.33-7.18-135-64.17-148.35-130.31A221.58,221.58,0,0,1,182.13,358.38Z" transform="translate(-15.75 -56.81)"/>
  </g>
  <rect class="cls-1" x="409.06" y="258.55" width="156.38" height="86.17"/>
  <text class="cls-3" transform="translate(455.77 337.87)">#</text>
</svg>
