<svg id="Layer_1" data-name="Layer 1" xmlns="http://www.w3.org/2000/svg" width="9.65in" height="8.37in" viewBox="0 0 695 602.73">
  <defs>
    <style>
      .cls-1 {
        fill: #1276bc;
      }

      .cls-2 {
        fill: #fdfdfe;
      }
    </style>
  </defs>
  <g>
    <path class="cls-1" d="M185.91,58.21H534.58c-.15,1,.6,1.62,1,2.36Q621.25,209,707,357.29a3.94,3.94,0,0,1,0,4.57q-18.12,31.15-36.1,62.4Q603.09,541.62,535.37,659a3.39,3.39,0,0,1-3.41,1.93q-171.8-.06-343.6,0a3.35,3.35,0,0,1-3.37-2q-16.34-28.44-32.77-56.82Q82.85,482,13.41,361.83a3.91,3.91,0,0,1,0-4.54q81.51-141,162.91-282.11C179.57,69.56,183.08,64.07,185.91,58.21ZM486,428.29c.62,18,1.43,30.69.76,43.4-.57,11-5.5,17.11-15.64,19.51a57.28,57.28,0,0,1-7.14,1.11c-9.7,1-19.45.66-29.17.67-1.68,0-2.17.47-2.16,2.16q.12,12.8,0,25.58c0,1.81.45,2.32,2.26,2.3,10.3-.08,20.61.08,30.9-.07A140.76,140.76,0,0,0,499,518.9c19-4.89,30.65-16.45,33.38-36.26,2-14.21,1-28.42-.47-42.58-1.28-12.07-2.79-24.11-2.68-36.29.07-7.77,3-14,9.41-18.56a43.36,43.36,0,0,1,11-5.44c9.68-3.37,19.74-4.33,29.89-4.69,1.85-.07,2.58-.45,2.55-2.54-.13-9.49-.09-19,0-28.48,0-1.67-.47-2.19-2.16-2.22a115,115,0,0,1-18.24-1.65c-8-1.43-15.82-3.59-22.69-8.27a20.73,20.73,0,0,1-9.57-16.23,120.37,120.37,0,0,1,.11-13c.44-12.15,2.69-24.13,3.35-36.26.66-12,1.36-23.93-1.13-35.8-3.05-14.56-11.18-24.77-25.29-30.09-10-3.76-20.32-5.44-30.86-6.12-13.58-.88-27.19-.23-40.78-.46-1.74,0-2.13.55-2.12,2.19.08,7.32,0,14.64,0,22,0,5.82,0,5.81,5.88,5.83,10.12,0,20.27-.33,30.33,1.36s15.33,6.41,17.24,15.33a47.56,47.56,0,0,1,.86,9.6c.14,14.47-.86,28.92-1.21,43.39-.26,10.52-.87,21,.48,31.55,1.86,14.48,9.35,24.3,23.3,29a109.44,109.44,0,0,0,12.09,3.26c.69.15,1.9-.22,1.91.95s-1.27.94-2,1.14c-3.19.81-6.42,1.49-9.57,2.41-15.27,4.48-23.95,14.48-25.75,30.45C484.64,406.15,486,419.87,486,428.29ZM252.34,523c8.35,0,15.11,0,21.87,0,1.55,0,2.06-.41,2-2-.08-8,0-16.09,0-24.14,0-3.83,0-3.81-3.79-3.83-10.53-.07-21.09.4-31.56-1.18-4.9-.75-9.61-2-13.35-5.56-4.49-4.26-5.59-9.87-5.83-15.64-.75-18,1.22-36,1.6-54,.19-9.32.58-18.65-1.19-27.89-2-10.49-7.17-18.63-17-23.49a70.87,70.87,0,0,0-17.6-5.69c-.81-.17-2.1.13-2.15-1-.07-1.47,1.44-1,2.23-1.15a86.76,86.76,0,0,0,13-3.67c10-3.83,17.36-10.25,20.38-20.92a57.84,57.84,0,0,0,2.16-12.32c.83-13.91,0-27.8-.77-41.69-.6-10.93-1.06-21.86-.65-32.8.43-11.29,5.08-17.39,15-20a47.79,47.79,0,0,1,6.41-1.14c10.25-1.28,20.56-.86,30.85-.85,1.76,0,2.33-.38,2.31-2.24q-.17-12.67,0-25.35c0-1.84-.39-2.46-2.36-2.45-10.86.1-21.73-.12-32.59.1-11.44.22-22.81,1.33-33.81,4.76-10.4,3.23-19.58,8.2-25.19,18.12a50.51,50.51,0,0,0-6,19.19c-1.65,14.06-.52,28.1.75,42.12,1.08,11.93,2.47,23.85,2.21,35.86a20.74,20.74,0,0,1-8.16,16.73A38.54,38.54,0,0,1,161,336.4c-10.28,4-21.05,5.08-31.93,5.46-1.37,0-2.21.14-2.19,1.93.08,9.82.06,19.64,0,29.46,0,1.39.46,1.75,1.79,1.77,2.65,0,5.3.23,7.94.45,9.75.8,19.31,2.43,28.21,6.74,9.55,4.63,14.61,11.9,14.49,22.92-.17,15.16-2.38,30.14-3.26,45.23-.65,11.24-1.29,22.5.71,33.68,1.76,9.9,5.46,18.86,13.48,25.42,6.89,5.63,15.09,8.44,23.62,10.39C227.06,522.86,240.48,523.11,252.34,523Z" transform="translate(-12.69 -58.21)"/>
    <path class="cls-2" d="M486,428.29c0-8.42-1.35-22.14.2-35.89,1.8-16,10.48-26,25.75-30.45,3.15-.92,6.38-1.6,9.57-2.41.78-.2,2,.14,2-1.14s-1.22-.8-1.91-.95a109.44,109.44,0,0,1-12.09-3.26c-13.95-4.74-21.44-14.56-23.3-29-1.35-10.51-.74-21-.48-31.55.35-14.47,1.35-28.92,1.21-43.39a47.56,47.56,0,0,0-.86-9.6c-1.91-8.92-7.26-13.66-17.24-15.33s-20.21-1.34-30.33-1.36c-5.88,0-5.88,0-5.88-5.83,0-7.32,0-14.64,0-22,0-1.64.38-2.22,2.12-2.19,13.59.23,27.2-.42,40.78.46,10.54.68,20.89,2.36,30.86,6.12,14.11,5.32,22.24,15.53,25.29,30.09,2.49,11.87,1.79,23.84,1.13,35.8-.66,12.13-2.91,24.11-3.35,36.26a120.37,120.37,0,0,0-.11,13,20.73,20.73,0,0,0,9.57,16.23c6.87,4.68,14.65,6.84,22.69,8.27a115,115,0,0,0,18.24,1.65c1.69,0,2.17.55,2.16,2.22-.07,9.49-.11,19,0,28.48,0,2.09-.7,2.47-2.55,2.54-10.15.36-20.21,1.32-29.89,4.69a43.36,43.36,0,0,0-11,5.44c-6.4,4.54-9.34,10.79-9.41,18.56-.11,12.18,1.4,24.22,2.68,36.29,1.5,14.16,2.44,28.37.47,42.58C529.64,502.45,518,514,499,518.9A140.76,140.76,0,0,1,465.8,523c-10.29.15-20.6,0-30.9.07-1.81,0-2.29-.49-2.26-2.3q.14-12.78,0-25.58c0-1.69.48-2.16,2.16-2.16,9.72,0,19.47.36,29.17-.67a57.28,57.28,0,0,0,7.14-1.11c10.14-2.4,15.07-8.52,15.64-19.51C487.42,459,486.61,446.29,486,428.29Z" transform="translate(-12.69 -58.21)"/>
    <path class="cls-2" d="M252.34,523c-11.86.13-25.28-.12-38.48-3.13-8.53-2-16.73-4.76-23.62-10.39-8-6.56-11.72-15.52-13.48-25.42-2-11.18-1.36-22.44-.71-33.68.88-15.09,3.09-30.07,3.26-45.23.12-11-4.94-18.29-14.49-22.92-8.9-4.31-18.46-5.94-28.21-6.74-2.64-.22-5.29-.41-7.94-.45-1.33,0-1.8-.38-1.79-1.77.05-9.82.07-19.64,0-29.46,0-1.79.82-1.89,2.19-1.93,10.88-.38,21.65-1.49,31.93-5.46a38.54,38.54,0,0,0,10.07-5.6,20.74,20.74,0,0,0,8.16-16.73c.26-12-1.13-23.93-2.21-35.86-1.27-14-2.4-28.06-.75-42.12a50.51,50.51,0,0,1,6-19.19c5.61-9.92,14.79-14.89,25.19-18.12,11-3.43,22.37-4.54,33.81-4.76,10.86-.22,21.73,0,32.59-.1,2,0,2.38.61,2.36,2.45q-.13,12.67,0,25.35c0,1.86-.55,2.24-2.31,2.24-10.29,0-20.6-.43-30.85.85a47.79,47.79,0,0,0-6.41,1.14c-9.93,2.64-14.58,8.74-15,20-.41,10.94,0,21.87.65,32.8.77,13.89,1.6,27.78.77,41.69a57.84,57.84,0,0,1-2.16,12.32c-3,10.67-10.36,17.09-20.38,20.92a86.76,86.76,0,0,1-13,3.67c-.79.16-2.3-.32-2.23,1.15,0,1.16,1.34.86,2.15,1a70.87,70.87,0,0,1,17.6,5.69c9.81,4.86,15,13,17,23.49,1.77,9.24,1.38,18.57,1.19,27.89-.38,18-2.35,36-1.6,54,.24,5.77,1.34,11.38,5.83,15.64,3.74,3.56,8.45,4.81,13.35,5.56,10.47,1.58,21,1.11,31.56,1.18,3.79,0,3.79,0,3.79,3.83,0,8.05,0,16.1,0,24.14,0,1.62-.49,2-2,2C267.45,522.94,260.69,523,252.34,523Z" transform="translate(-12.69 -58.21)"/>
  </g>
</svg>
