<svg id="Layer_1" data-name="Layer 1" xmlns="http://www.w3.org/2000/svg" width="8.78in" height="4.1in" viewBox="0 0 632.32 295.52">
  <defs>
    <style>
      .cls-1 {
        fill: #2a9d8f;
      }
    </style>
  </defs>
  <path d="M171.94,170.68" transform="translate(-43.84 -173.26)"/>
  <g>
    <path class="cls-1" d="M358.89,262.75c6.46,43.93,14,50.41,57.78,49.66,6.37,16.08-4.6,42.62-23,56C374.19,382.65,346.14,383,327,369c-22.45-16.45-30.66-40.89-22.33-66.49A57,57,0,0,1,358.89,262.75Z" transform="translate(-43.84 -173.26)"/>
    <path class="cls-1" d="M43.84,321s285,332.46,632.32,0C328.8-11.43,43.84,321,43.84,321ZM360,430.67A109.65,109.65,0,1,1,469.64,321,109.64,109.64,0,0,1,360,430.67Z" transform="translate(-43.84 -173.26)"/>
  </g>
</svg>
