<svg id="Layer_1" data-name="Layer 1" xmlns="http://www.w3.org/2000/svg" width="8.77in" height="4.1in" viewBox="0 0 631.64 295.19">
  <defs>
    <style>
      .cls-1 {
        fill: #63c299;
      }
    </style>
  </defs>
  <path d="M128.22-2.58" transform="translate(-0.26 0.01)"/>
  <g>
    <path class="cls-1" d="M315,89.39c6.45,43.89,14,50.36,57.72,49.61,6.36,16.06-4.6,42.57-23,55.94-19.46,14.22-47.47,14.57-66.59.59-22.43-16.43-30.63-40.85-22.31-66.42A56.94,56.94,0,0,1,315,89.39Z" transform="translate(-0.26 0.01)"/>
    <path class="cls-1" d="M.26,147.58s284.69,332.1,631.64,0C284.91-184.49.26,147.58.26,147.58ZM316.08,257.13A109.53,109.53,0,1,1,425.6,147.58,109.53,109.53,0,0,1,316.08,257.13Z" transform="translate(-0.26 0.01)"/>
  </g>
</svg>
