<svg id="Layer_1" data-name="Layer 1" xmlns="http://www.w3.org/2000/svg" width="9.41in" height="8.16in" viewBox="0 0 677.31 587.36">
  <defs>
    <style>
      .cls-1 {
        fill: #fff;
      }

      .cls-2 {
        fill: #231f20;
      }

      .cls-3 {
        fill: #1e1f1e;
      }
    </style>
  </defs>
  <g>
    <path d="M190.52,66.1H530c-.22.74.37,1.19.67,1.72q48.74,84.44,97.5,168.87,35,60.66,70.07,121.29a3.14,3.14,0,0,1,0,3.68c-3.76,6.32-7.39,12.72-11.06,19.08Q609,516.07,530.91,651.41a3.48,3.48,0,0,1-3.51,2.05q-167.29-.08-334.59,0a3.28,3.28,0,0,1-3.36-1.91q-17.85-31.1-35.83-62.12Q87.89,475.6,22.12,361.81a3.48,3.48,0,0,1,.08-4.08q11.91-20.4,23.68-40.89,61-105.73,122.06-211.46Q179.27,85.76,190.52,66.1ZM463.74,522.6c-3.29,1.23-6.16,3.27-9.28,4.85a4,4,0,0,1-4,.1c-21.19-10.93-40.88-23.94-57.36-41.38-10.08-10.68-19.63-21.78-26.71-34.77-4.66-8.55-8.29-17.61-12.47-26.4-9.09-19.12-14.63-39.19-15.41-60.39a233.82,233.82,0,0,1,4-50.93c4-21.91,9.12-43.63,13.76-65.43.74-3.48,2-6.75,4.58-9.33a6.63,6.63,0,0,1,7.68-1.65,37.68,37.68,0,0,1,6.38,3.28c5,3.18,9.95,6.42,14.93,9.62a12.89,12.89,0,0,0,7.71,2.21c2.83-.14,3.35-.89,2.8-3.65a23,23,0,0,0-8-13.32q-7.06-6-14.34-11.69c-3.22-2.51-6.06-5.55-9.72-7.43a33.71,33.71,0,0,1-10.67-8.79c-3.51-4.26-6.88-8.74-12.1-11.11-1.47-.67-2-1.34-1.76-3,.66-4.07-1.15-7-4.67-8.88-2.17-1.18-4.38-2.3-6.59-3.4a63,63,0,0,1-13.92-9.33c-2.24-2-2.21-2.62-.61-5.23,2.78-4.52,2.3-7.78-2.95-9.53l-2.72-.9c-4.17-1.36-8.54-2.06-12.6-3.8-4.59-2-5.75-5.74-3-9.9.92-1.4,2-2.72,2.8-4.18,2.46-4.41,1.74-9.13-1.84-12.2a16.18,16.18,0,0,0-12-3.94c-6.66.48-9.71,5-8.06,11.53a16.45,16.45,0,0,0,3,6.48c4.7,5.8,3.95,8.77-3.74,12.12-.81.35-1.64.64-2.44,1-3.22,1.39-6.45,2.76-9.65,4.2-2.1,1-2.65,2.44-1.69,4.68a11.31,11.31,0,0,1-7.81,15.2,31.79,31.79,0,0,1-9.34.29c-4.51-.29-8.4,1-11,4.92a5.41,5.41,0,0,0-.45,6.12c1.31,2.1,3.54,2.5,5.75,2,3.87-.89,7.82-.63,11.7-1.1.52-.06,1.17-.2,1.37.59a2.16,2.16,0,0,1-1.7.71,126.91,126.91,0,0,1-12.93.94,36.43,36.43,0,0,0-16.19,3.83c-10.63,5.27-16,14.27-15,25.29.29,3,1.07,6,1.35,9,1.4,15,.3,29.93-.56,44.89a285.78,285.78,0,0,0,.79,44.66,361.68,361.68,0,0,0,6.1,38.12,302.85,302.85,0,0,0,24.31,72.18,213.09,213.09,0,0,0,79.38,88c15.78,9.89,32.74,17.24,49.92,24.23,18.58,7.56,37.39,14.35,57,18.84,12.32,2.81,24.84,4.5,37.22,7a86.52,86.52,0,0,0,23.87,1.56c8.42-.65,16.71-.27,23.67,5.57a2.13,2.13,0,0,0,2.27.05c4.71-1.72,9.55-1.67,14.46-1.17,5.34.54,10.7.88,16,1.28a6.36,6.36,0,0,0,5.14-1.5c5-4.66,3.54-12-2.88-14-4.72-1.48-9.55-2.6-14.33-3.88-4.61-1.23-9.11-2.79-12-6.88-1-1.43-1.66-1.14-2.83-.47a12.86,12.86,0,0,1-13.65-.14c-1.94-1.13-3.83-2.33-5.7-3.57a27.6,27.6,0,0,0-12.44-4.67,23.44,23.44,0,0,1-7.5-2.36c-2.53-1.18-2.74-2.72-.54-4.48,1.63-1.29,3.39-2.41,5.13-3.54a33.27,33.27,0,0,0,8.17-7c1.58-2,1.5-3-.46-4.64a11.33,11.33,0,0,0-9-2.42c-6.21.74-11.38,3.93-16.56,7.1Z" transform="translate(-21.5 -66.1)"/>
    <path class="cls-1" d="M463.72,522.57c5.18-3.17,10.35-6.36,16.56-7.1a11.33,11.33,0,0,1,9,2.42c2,1.62,2,2.67.46,4.64a33.27,33.27,0,0,1-8.17,7c-1.74,1.13-3.5,2.25-5.13,3.54-2.2,1.76-2,3.3.54,4.48a23.44,23.44,0,0,0,7.5,2.36,27.6,27.6,0,0,1,12.44,4.67c1.87,1.24,3.76,2.44,5.7,3.57a12.86,12.86,0,0,0,13.65.14c1.17-.67,1.81-1,2.83.47,2.9,4.09,7.4,5.65,12,6.88,4.78,1.28,9.61,2.4,14.33,3.88,6.42,2,7.85,9.38,2.88,14a6.36,6.36,0,0,1-5.14,1.5c-5.35-.4-10.71-.74-16-1.28-4.91-.5-9.75-.55-14.46,1.17a2.13,2.13,0,0,1-2.27-.05c-7-5.84-15.25-6.22-23.67-5.57a86.52,86.52,0,0,1-23.87-1.56c-12.38-2.49-24.9-4.18-37.22-7-19.58-4.49-38.39-11.28-57-18.84-17.18-7-34.14-14.34-49.92-24.23a213.09,213.09,0,0,1-79.38-88,302.85,302.85,0,0,1-24.31-72.18,361.68,361.68,0,0,1-6.1-38.12,285.78,285.78,0,0,1-.79-44.66c.86-15,2-29.91.56-44.89-.28-3-1.06-6-1.35-9-1-11,4.34-20,15-25.29a36.43,36.43,0,0,1,16.19-3.83,126.91,126.91,0,0,0,12.93-.94,2.16,2.16,0,0,0,1.7-.71c-.2-.79-.85-.65-1.37-.59-3.88.47-7.83.21-11.7,1.1-2.21.52-4.44.12-5.75-2a5.41,5.41,0,0,1,.45-6.12c2.62-3.89,6.51-5.21,11-4.92a31.79,31.79,0,0,0,9.34-.29,11.31,11.31,0,0,0,7.81-15.2c-1-2.24-.41-3.72,1.69-4.68,3.2-1.44,6.43-2.81,9.65-4.2.8-.35,1.63-.64,2.44-1,7.69-3.35,8.44-6.32,3.74-12.12a16.45,16.45,0,0,1-3-6.48c-1.65-6.55,1.4-11.05,8.06-11.53a16.18,16.18,0,0,1,12,3.94c3.58,3.07,4.3,7.79,1.84,12.2-.81,1.46-1.88,2.78-2.8,4.18-2.72,4.16-1.56,7.93,3,9.9,4.06,1.74,8.43,2.44,12.6,3.8l2.72.9c5.25,1.75,5.73,5,2.95,9.53-1.6,2.61-1.63,3.25.61,5.23a63,63,0,0,0,13.92,9.33c2.21,1.1,4.42,2.22,6.59,3.4,3.52,1.91,5.33,4.81,4.67,8.88-.28,1.67.29,2.34,1.76,3,5.22,2.37,8.59,6.85,12.1,11.11a33.71,33.71,0,0,0,10.67,8.79c3.66,1.88,6.5,4.92,9.72,7.43q7.29,5.7,14.34,11.69a23,23,0,0,1,8,13.32c.55,2.76,0,3.51-2.8,3.65a12.89,12.89,0,0,1-7.71-2.21c-5-3.2-9.93-6.44-14.93-9.62a37.68,37.68,0,0,0-6.38-3.28,6.63,6.63,0,0,0-7.68,1.65c-2.61,2.58-3.84,5.85-4.58,9.33-4.64,21.8-9.71,43.52-13.76,65.43a233.82,233.82,0,0,0-4,50.93c.78,21.2,6.32,41.27,15.41,60.39,4.18,8.79,7.81,17.85,12.47,26.4,7.08,13,16.63,24.09,26.71,34.77,16.48,17.44,36.17,30.45,57.36,41.38a4,4,0,0,0,4-.1c3.12-1.58,6-3.62,9.29-4.85.36-.21.56-.08.66.29.31,1.08,1,2.05,2.09,1.92a2.42,2.42,0,0,0,2-2.24Zm-243.54-218c.5.38.89,1.24,1.49,1.05.81-.26.57-1.23.59-1.9.05-3,.22-6.1,0-9.13A48.83,48.83,0,0,0,219,280.87c-1.15,5.37-.23,10.15-.71,15.52-.69-2.63-1.17-4.62-1.73-6.59a14.52,14.52,0,0,0-2.85-5.7c-.76.79-.47,1.62-.49,2.37a59.06,59.06,0,0,0,.89,10.28c1.27,8.53,2.45,17.08,3.9,25.59a21.18,21.18,0,0,0,4.76,10.6c-1.21-9.3-.85-18.74-3-27.9Zm38.27,84-.17-.05,0,.14.23-.17c-.56,1.76.38,3,1.44,4.22.85.95,1.79,1.83,2.7,2.74,5.33,5.32,10.63,10.68,16,15.94,1,1,2.05,2.38,4.18,2.18-.81-1.31-1.45-2.4-2.13-3.46-1-1.54-2-2.95-.4-4.81.82-.95.12-2.19-.4-3.16-.75-1.4-1.69-2.71-2.54-4.06-.57-.91-1.18-2.1-.53-2.91,1.13-1.41.18-2.07-.55-3-1.5-1.9-3.51-3.44-4.35-6,2.06-.22,3.74,1.05,5.82.91a24.44,24.44,0,0,1-2.64-3.91c-.66-1.1-.15-1.4.69-1.64a25.12,25.12,0,0,1,5.37-1.18c.53,0,1.19,0,1.28-.8.07-.61-.46-.8-.85-1-4.48-2.62-9-5.21-13.46-7.84a2,2,0,0,0-2.24-.14c-.56.45.23,1.12.37,1.7s.65,1.16.57,2c-.4-.24-.67-.39-.94-.57-3.41-2.34-3.41-2.34-3.78,1.87-1-.42-1.9-.87-2.87-1.2-.49-.16-1-.76-1.53-.33-.73.61.07,1.17.31,1.67,1.07,2.24,2.57,4.28,3.52,7l-3.67-.84c2.72,4.12,5.28,8,7.84,11.84C262.82,392.45,261.05,390,258.45,388.58ZM303.57,499a10.57,10.57,0,0,1-1.23-.7c-7.65-5.74-14.25-12.66-21.4-19a11.23,11.23,0,0,0-3.61-2.41,14.14,14.14,0,0,0,2.52,3.72c6.35,7.5,13.87,13.75,21.45,19.91,9.89,8,19.87,15.93,31.52,21.33q15.63,7.25,31.31,14.39c16.73,7.59,33.68,14.59,51.93,17.74a46.41,46.41,0,0,0,10.4,1.15,15.69,15.69,0,0,0-5.14-3.24c-4.26-1.33-8.52-2.67-12.8-3.93-5.8-1.71-12-2.5-17.09-5.94-3.29-2.22-6.74-3.14-10.49-4-19.12-4.6-37-12-52.51-24.43-13.8-11.07-28.27-21.36-40.45-34.35a15.48,15.48,0,0,0-6.12-3.76c.35,2.35,2,3.37,3.25,4.61,6.27,6.2,12.58,12.35,18.88,18.52Zm32-97.22c-.25-1.76-.39-3.09-.64-4.4-.79-4.09-1.91-8.08-6.17-9.9-1.62-.69-1.37-1.32-.72-2.43a7,7,0,0,1,4.82-3.22c1.34-.32,2.93-.8,1.94-2.69s-.87-3.87-.85-5.86c.18-13.21,0-26.44,1.48-39.61.13-1.16.09-2.66-.79-3.08s-2.28.32-3.22,1.15c-1.48,1.33-3,2.64-4.87,4.32a32.41,32.41,0,0,1,4.17-8.79c.73-1.1,1.54-.84,2.33.08.28.33.33,1.41,1.08.79,1.41-1.16,2.82-2.41,3.23-4.33a2.86,2.86,0,0,0-1.79-3.3c-1.12-.6-1.09-1.18-.41-2.22a25.36,25.36,0,0,0,4.31-11c.13-1,.29-2.22-.56-2.65-1.44-.73-1-1.49-.53-2.47,3.15-7,5-14.44,7-21.82.44-1.6.32-3.34-1.13-4.4-1.22-.89-1.11-1.5-.37-2.66a62.85,62.85,0,0,0,7.28-16.34c1-3.43,2.05-6.89,1.19-10.6s-2.49-5.16-6.07-4.41c-5.09,1.06-10,.12-15-.4-4.57-.47-9.15-1.07-14.09-.41,1.45,1.77,2.73,3.28,3.93,4.86.45.58,1.63,1.12,1.07,1.88s-1.42-.2-2.05-.54c-3.52-1.89-7-3.8-10.49-5.78-1.12-.64-1.78-.79-2.69.49-2.12,3-3.38,3.36-7,2.22-2.39-.75-4.73-1.69-7.3-2.62,1.69,3.6,1.47,4.2-2,5.54-5.55,2.14-11,2.36-16.42-.61a3.79,3.79,0,0,0-5.69,3,11.37,11.37,0,0,0,.22,4.3c.58,2.32,1.12,4.65,1.55,7a4.65,4.65,0,0,1-2.33,5.44c-2.66,1.64-5.09,1.63-7.95.9-5.35-1.37-7.29-.49-9.81,4.2-.65,1.21-1.22,1.33-2.34.79a2.12,2.12,0,0,0-3.25,1.35,9.77,9.77,0,0,0,.82,7.88c1.14,2,2.91,2.54,5.08,2.21a1.91,1.91,0,0,1,.7.12c4.37,1.29,9.06,8.26,8.51,12.85-.57,4.8-2.32,9.28-4.07,13.73-.73,1.86-2,1.91-3.16.23a11.12,11.12,0,0,1-1.85-5.12c-.62-5.91.51-7.35,6.36-7.84-1.06-2.46-2-4.91-3.18-7.24s-2.74-2.75-4.94-1.5c-2.85,1.62-5.57,3.47-8.42,5.09-1.3.74-.94,1.31-.22,2.2,1.56,1.92,3.14,3.85,4.54,5.89,2.92,4.27,2.43,5.85-2.24,8-.2.09-.39.22-.63.35,5.55,3.59,7.57,7.13,7.76,13.41.07,2.25,0,4.5.11,6.74.19,3.79,2.58,5.16,5.82,3.26,1.87-1.1,3.67-1.74,5.82-.54-2.21-4.13-4.51-8-6.76-12-.87-1.52-1.67-3.09-2.41-4.68a1.46,1.46,0,0,1,.08-1.8c.48-.42,1-.13,1.57.09,1.1.47,2.25.83,3.31,1.37s1.59.36,1.79-.87c.39-2.36.79-4.72,1.33-7.05.83-3.62,2.57-4.9,6.06-4.67-1.4,3.81-2.79,7.62-4.21,11.43-.48,1.29-.57,2.7.45,3.57s2.3.34,3.4-.22c2.14-1.07,4.25-2.2,6.38-3.29,1.6-.82,2.76-.4,3.42,1.29.74,1.85,1.58,3.67,2.19,5.56.69,2.11,1.81,4.11,1.73,6.44-.11,3.15-1.55,4.21-4.53,3.25a17.12,17.12,0,0,1-6.17-3.59c-.71-.62-1.3-1.53-2.39-1.73-.33,1.08.32,1.7.63,2.4a59,59,0,0,0,5.27,9.12c2.63,3.86,3.87,7.87,1.76,12.39a4.83,4.83,0,0,0-.4,1.87c0,4.17.8,8,4,7.85,3.79-.15,4.83,1.55,4.89,4.75a2,2,0,0,0,0,.24c.08.46.06,1,.73,1s.76-.48,1-.88c.82-1.46,1.67-2.92,2.45-4.4.41-.8.81-1,1.66-.48a13.09,13.09,0,0,1,6.32,7.79c.7,2.45.22,5,.68,7.4.25,1.36.52,3.3,1.9,3.2,1.58-.12,1.3-2.1,1.18-3.4-.34-3.8-.78-7.59-1.19-11.38,3.4,5,6.45,10.23,7.93,16.12,1.44,5.69-1.85,9-7.68,8.07l-5.23-.8c2.72,4.15,4.86,8.08,7.7,11.55a12.93,12.93,0,0,0,4.47,3.57c5.66,2.68,8,7.65,8.83,13.4.34,2.23.4,4.94-1.86,6.34-2.09,1.28-4-.4-5.71-1.45-4.76-2.9-8.56-7-12.68-10.64a13.24,13.24,0,0,0-3.6-2.76c-.58-.24-1.29-1-1.89-.18s.34,1.13.69,1.58a64.25,64.25,0,0,0,8.92,9.07c9.87,8.31,19.75,16.6,28.89,25.74,8.24,8.24,13.05,18.62,18.56,28.93A22.87,22.87,0,0,1,329.67,467c-1-.84-2.45-1.82-2.2-3.23.28-1.64,2.09-1.36,3.37-1.64a3.32,3.32,0,0,0,.74-.42,47.3,47.3,0,0,0-9-5c-1.4-.59-2.64-.33-2.49,1.62.28,3.73,1.34,7.11,4.83,9.12,6.63,3.83,13.31,7.59,20.65,10,.7.22,1.55.28,2.06,1.07l-5.6,4.72,3.07,1.95c-.79.39-1.5.71-2.19,1.07a1.38,1.38,0,0,0-.7,1.82c.59,1.92,5.63,5.53,7.72,5.51,3,0,4.62,1,5.76,3.74.54,1.33,1,2.71,1.38,4.08,1.58,5.1,3.57,5.94,8.3,3.47.85-.45,1.66-1,2.54-1.35a15.55,15.55,0,0,1,5.5-1.75,38.35,38.35,0,0,0-3.31,2.41c-1,.91-3.38,1.68-2.83,2.6.71,1.21,2.77.06,4.16-.3,2.95-.76,5.84-1.48,9-1.15,5.5.6,10,3.32,14.12,6.65a205.7,205.7,0,0,0,30.65,21A17.7,17.7,0,0,0,438,535c.76-.17,1.52-.41,1.65-1.17s-.78-.89-1.3-1.2c-6.09-3.69-12.16-7.41-18-11.54-2.8-2-2.85-2.43-.88-5.27-.83-.16-1.6-.36-2.38-.45a23.88,23.88,0,0,1-13.1-6c-4.54-3.9-7.54-8.88-9.85-14.31a10.49,10.49,0,0,0-4.67-5.23,85.76,85.76,0,0,1-16.85-12.69c-7.11-6.79-12.84-14.45-15.28-24.2-.22-.88-.65-2,.07-2.48,1.95-1.23,1.05-2.52.35-3.82A143.43,143.43,0,0,1,345,411.72c-1.26-5.29-4.36-9.76-6.94-14.85Zm-99-187.46-1.44.12c-4.93.5-6.58,3.3-4.56,7.8a17.78,17.78,0,0,0,7.6,8.4c3.69,2.08,5.5,1.34,6.75-2.71.27-.86.41-1.66,1.69-1.44,3.15.54,6.32.94,9.48,1.44,2.87.45,3.11,1,1.6,3.43-.33.53-1,1.05-.7,1.69.38.82,1.28.34,2,.39,7.68.61,15.1-1.25,22.59-2.46,6.64-1.08,13.28-2.39,20-.67a173.84,173.84,0,0,0,37.9,5.32c4.78.15,9.57,0,14.36.16A20.1,20.1,0,0,0,368.11,230a9.64,9.64,0,0,0,3.25-6c.35-2.86-.42-4.06-3.18-5-1.74-.59-3.46-1.23-5.21-1.76-19.12-5.81-38.76-7.88-58.67-8.3-15.69-.34-31.41.26-47.07-1.32-1.26-.13-3-.32-3.47.86s.79,2.47,1.73,3.45,2.32,1.72,2.8,3.19c-4.28.87-4.52,1.58-1.67,4.85.05.06.12.12.16.18.64.95,2.24,1.66,1.5,3-.61,1.08-2.14.81-3.32.89a3.74,3.74,0,0,1-2.27-.6,53.13,53.13,0,0,1-8-5.76,5.68,5.68,0,0,1-1.76-6.5c.36-1.1,1.72-2.32,1-3.17-.57-.69-2.23-.53-3.42-.66-5.91-.62-11.8-.87-17.54,1.14-5.56,1.94-7.92,5.32-8,11.11-.06,3.28,1,6.3,1.81,9.37.16.58.45,1.18,1.16,1.23.53-.41.4-.93.48-1.39.88-4.64,1.82-9.26,4.66-13.19C226.59,210.79,232.28,210.18,236.61,214.31Zm19.13,216.4c-4.65-.8-7-3.48-8-7.47-.62-2.47-1.25-4.95-1.91-7.41a5.29,5.29,0,0,0-3.21-3.88c-3.35-1.38-4.8-4.22-5.45-7.62a59.58,59.58,0,0,1-.53-9.34c-.14-4.65-1.17-9.1-4.06-12.81a10.74,10.74,0,0,1-2.55-6.49,20.76,20.76,0,0,0-1.82-6.66c-1.59-4.16-3.21-8.32-4.75-12.51-1.91-5.17-3.77-10.38-4-15.94s-1.88-11-3.41-16.36c-.17-.57-.21-1.16-1-1s-.52.72-.54,1.16a13.46,13.46,0,0,0,0,1.68,159,159,0,0,0,7,36.61c4.24,13.62,8.88,27.12,12.1,41,2.4,10.35,6.07,20.14,12.13,28.94a150.73,150.73,0,0,1,10.78,17.82c2.36,4.71,6.28,7.81,11,10,.92.43,2.14.91,2.88.06a2.94,2.94,0,0,0,.12-3c-1.67-4.06-3.68-8.07-7.53-10.27-3.25-1.86-5-4.56-6.46-7.66-.63-1.29-1.27-2.57-1.94-3.84C253.7,433.93,253.51,432.24,255.74,430.71Zm63.19-232.09a35.7,35.7,0,0,0,2.26,3.12c.94,1,1.49,3.53,2.72,2.86s-.31-2.69-.71-4.06c-.55-1.88-1.16-3.59,0-5.5.51-.81,2.1-1.53,1.15-2.69a6.5,6.5,0,0,0-2.95-1.49,7.64,7.64,0,0,0-2.15-.13c-5.84-.17-11.69-.28-17.53-.52-11.82-.48-23.64-1-35.48-.87-1.18,0-3.37-.79-3.42.86,0,1.13,2.34,1.06,3.7,1a118.77,118.77,0,0,1,13.21.12c7,.4,13.56,2.13,19,6.95.55.49,1,1.23,2,1.26.16-.88.36-1.73.47-2.59.16-1.17.49-2.44,1.72-2.58s1.68,1.06,2.13,2c.25.5.39,1,.62,1.55a79.34,79.34,0,0,0,3.36,7.38c1.86,3.27,4.76,3.3,7.14.36C317.74,203.73,318.29,201.42,318.93,198.62Zm-49,143c0-1.68.07-2.88,0-4.08a2.39,2.39,0,0,0-2.07-2.32c-.95-.17-1.94-.42-1.48,1.35a18,18,0,0,1,.73,6.17c-.23,2.59-1.63,3.37-3.91,2.12s-4.23-3.15-6.33-4.75a30.44,30.44,0,0,0-6.14-4.16c-1.75-.76-2.8-.08-2.84,1.84,0,.86.3,1.73.34,2.6.06,1.58,1.29,3,.82,4.59a2,2,0,0,0,.81,2.44c4.26,3.76,8.47,7.58,12.74,11.33,2.89,2.53,5.88,5,8.78,7.47a2.43,2.43,0,0,0,2.62.67c1-.47.53-1.52.37-2.36-.54-2.83-1.06-5.71-2.86-8.05a9.63,9.63,0,0,1-2-6.71C269.6,346.91,269.76,344,269.9,341.64ZM265,418.16c.22,2.44.12,5,2.16,6.69a85.37,85.37,0,0,0,7.59,5.83c3.59,2.37,7.74,3.28,12,3.8a4,4,0,0,0,3.66-1.31c.51-.76-.95-2-1.68-2.86a6.19,6.19,0,0,0-1.12-.91c-5-3.9-10.55-6.89-16-10.11A8.78,8.78,0,0,0,265,418.16Zm48.4-235.71c-.16-2.75-1.72-4.61-3.54-6.24-3.34-3-7.5-4.85-10.95-7.71-.65-.55-.81-.23-1.13.42a11.32,11.32,0,0,0-.5,8c1,4,2.82,7.66,6.4,10,3.36,2.25,5.47,1.16,5.72-2.83.07-1.24,0-2.48,0-4.09ZM486.9,548.58c-2.35-1.13-4.3-2.13-6.29-3-7.39-3.33-14.62-7.07-22.6-8.88a18.42,18.42,0,0,0-6.39-.72,3.24,3.24,0,0,0-2.84,2.29c-.27,1.27,1.38,1.31,2.21,1.55,8.86,2.57,17.46,5.93,26.2,8.85C480.17,549.63,483.33,550.13,486.9,548.58Zm-205-412.38c.62-.66.22-1.1.17-1.53-.45-3.4.37-4.11,3.68-3,2.41.79,4.7,1.94,7.23,2.39s3.81-.61,3.39-3.22c-.52-3.2-2.27-5.52-5.43-6.31-3.45-.86-6.27.58-8.44,3.26S279.9,133.1,281.89,136.2ZM391.35,516c0-1.65.2-3.56-2.3-3.19a31.5,31.5,0,0,0-10.12,3.52,2.92,2.92,0,0,0-1.54,3c.33,1.05,1.79.42,2.77.33a2.35,2.35,0,0,0,.71-.13c1.88-.89,2.63-.1,2.69,1.77.06,2.06,1.08,2.36,2.88,1.74C389.74,522,391.3,519.83,391.35,516Zm-39.13,7.64a9.66,9.66,0,0,0-4.76-5c-4.71-2.65-9.66-4.86-14.29-7.68-2.95-1.78-6-3.32-9.07-5l-.38.67C331.56,514.84,341.1,520.19,352.22,523.67ZM251.41,244.92l-.33.55,8.34,6.9a15.34,15.34,0,0,1-4.23-1c-.83-.3-1.84-.77-2.36.14s.24,1.65.87,2.29c2.4,2.43,7.75,2.74,10.44.61,1.65-1.31,1.83-2.93.23-4.23C260.58,247.06,255.9,246.22,251.41,244.92ZM291.5,427.14c1.58,2.44,2.89,4.39,4.12,6.39,2.56,4.16,6.39,6.55,10.91,8,.84.27,1.91.61,2.35-.28.35-.7-.44-1.47-1.11-1.93-4.55-3.14-8.45-7.05-12.62-10.63A5.66,5.66,0,0,0,291.5,427.14Zm-18.13-250.6-.12,1.21c7.9-1,15.06,1.63,22.38,4.25-.63-4.38-2.5-6.14-6.36-6.18s-8,0-12,.07A29,29,0,0,0,273.37,176.54ZM302.92,431c4.69,5.59,13.4,11.52,18.28,10.4a11.06,11.06,0,0,0-1.5-1.24,47.89,47.89,0,0,1-9.23-6.74A9.82,9.82,0,0,0,302.92,431ZM522.06,559.41c4,3.81,13.11,5.17,20,5.11A55.17,55.17,0,0,0,522.06,559.41ZM388.75,239.11c2.38,3.39,4.68,6.69,7,10,1.92-1.73,1.93-3.55.92-5.54A8.19,8.19,0,0,0,388.75,239.11ZM309.13,461.59a23.75,23.75,0,0,0-11.2-9.48C299.17,456.84,304.37,461.19,309.13,461.59Zm92.48,58.88a6.55,6.55,0,0,1-.76-.46c-1.71-1.19-7.65,0-8.61,1.82a2.31,2.31,0,0,0,.08,2.51c.58.8,1.35.61,2.15.26,1.82-.78,3.67-1.48,5.48-2.28A2.55,2.55,0,0,0,401.61,520.47ZM306,160.75c-2-2.92-5.18-4-7.69-2.68-.56.3-1.53.39-1.4,1.35.1.76.9.83,1.47,1A12.22,12.22,0,0,0,306,160.75Zm-66.82,86c-1,.12-2.16.21-2.39,1.63-.21,1.25,1.76,3.45,3.09,3.57.82.08,3.95-1.86,3.68-2.28A7.17,7.17,0,0,0,239.16,246.77Zm71.18,202.79a18.68,18.68,0,0,0-9.06-6.69C303.06,447.29,306.55,449.86,310.34,449.56ZM235.16,276.69c.46-4-.19-5.56-2.34-6.11-1.08-.28-2.19-.24-2.73.8a2,2,0,0,0,.85,2.51C232.22,274.82,233.56,275.64,235.16,276.69ZM231.76,264a11.7,11.7,0,0,0,3.9,4.82,2,2,0,0,0,3-.21c.69-.88,0-1.84-.79-2.43A8.85,8.85,0,0,0,231.76,264Zm53.71,152.78c1.94,4.48,5.45,6,9.68,7.82C292.32,421,289.77,418.29,285.47,416.76ZM397.94,525.42c-1.37.44-3,.92-4.55,1.48-.51.18-1.11.5-1.1,1.14s.61,1,1.22,1.3c1.71.72,5.34-1.37,5.49-3.16C399.06,525.55,398.79,525.29,397.94,525.42Zm24.85,11.26c-4.56-1.41-7.62,0-8.05,3.59,2.48-1,4.91-2,7.33-2.95C422.26,537.24,422.4,537,422.79,536.68ZM220.3,272.9c0-1.25,0-2.51,0-3.77a8.23,8.23,0,0,0-.24-1.18c-.14-.87-.61-1.65-1.48-1.58a1.9,1.9,0,0,0-1.61,1.81C216.61,270.29,217.69,271.81,220.3,272.9Zm96.85,203.15c-.06-1.62-2.22-3.11-4.22-2.9-.55.06-1.19.15-1.3.8s.48.71.83,1c.94.72,1.87,1.45,2.81,2.16.42.32.82.86,1.45.47S317.05,476.57,317.15,476.05Zm17.23,7.2c1.63,3,4.14,3.42,6.71,1.07C338.31,482.89,337.38,482.74,334.38,483.25ZM292.64,379.68c.37-3-.49-4.77-2.33-5-.62-.09-1.37-.21-1.74.43s0,1.24.52,1.66C290.17,377.69,291.3,378.58,292.64,379.68Zm116,148.37c-2.91-1.71-5.43-.64-6.16,2.6C404.79,530.44,406.93,529.88,408.6,528.05ZM237.05,313.74c2.66,3.75,4.26,4,7,1.54Zm6.77,51.64c.18-3.8-.87-5.08-4-5.37ZM226.66,228.49c-1.11-.21-1.95-.13-1.84.67A2,2,0,0,0,227,231c1-.06,2.55-.55,2.33-1.54C229,228.2,227.29,228.76,226.66,228.49Zm74.73,254.82a1.85,1.85,0,0,0-2-1.28c-.73.05-1.91-.19-1.82.84a2.33,2.33,0,0,0,2.06,2.26C300.57,485.19,301.23,484.59,301.39,483.31Zm-29.06-70.48a43.12,43.12,0,0,0-6.7-3.55A5.7,5.7,0,0,0,272.33,412.83Zm-25-42.42L253,376A6,6,0,0,0,247.29,370.41Zm61,99.33a18.9,18.9,0,0,0-4.36-1.71c-.58-.21-1,0-.82.64C303.55,470.44,306.86,471.14,308.3,469.74Zm102,63.16a3.74,3.74,0,0,0-4.57-.06,1.35,1.35,0,0,0-.49,1.68c.31.76,1.08.63,1.63.35C407.94,534.32,409,533.65,410.26,532.9ZM288.79,463.11h-5.44C285.4,465.45,287,465.46,288.79,463.11Zm-14.2-47.82-.48.48a7.6,7.6,0,0,0,3.84,3.4c.57.19,1.21.19,1.44-.4s-.42-.75-.79-1C277.27,416.94,275.93,416.12,274.59,415.29Zm42,85.39c-.31-1.88-2-1.53-3.14-2-.59-.26-1.13.15-1,.55.31,1.4,1.63,1.77,2.77,2.2A1,1,0,0,0,316.62,500.68ZM237.46,372.76c-.27.28-.55.47-.65.73s.09.44.21.62q1.46,2.33,2.95,4.61a1.74,1.74,0,0,0,.54-.28c-.37-1.74-1.56-3.07-2.34-4.61A10.34,10.34,0,0,0,237.46,372.76Zm-5.64-92.34c-.73-3.5-1.49-4.15-4.66-4.13C228.74,277.68,230.13,278.92,231.82,280.42ZM411,534.67c2.73,1.08,4.54.59,6.43-1.84ZM293.74,454.75c-.42-1.73-2.09-1.47-3.21-2-.49-.25-1.2.16-1,.57a5,5,0,0,0,2.93,2.23C293,455.71,293.47,455.26,293.74,454.75Zm42.06,35a18.65,18.65,0,0,0-7-2.58A17.58,17.58,0,0,0,335.8,489.76Zm-89.71-235c-.52-.09-1.34-.37-1.22.47.16,1.1,1.27,1.58,2.21,1.89a1,1,0,0,0,1.31-.93C248.31,254.69,247.13,254.78,246.09,254.72Zm135.2,257a13.72,13.72,0,0,0-5.61,1.48s.06.57.14.58c1.73.25,3.16-.83,4.78-1.12C380.75,512.68,380.86,512.38,381.29,511.77Zm-72.61-55c1.48.83,2.4,1.82,3.76,2.19C312.45,456.32,312,456.07,308.68,456.75ZM435.2,556.24l-4-.27C433,558.72,433.31,558.75,435.2,556.24Zm-72.29-98.08c1.33.45,1.65,2.18,3,1.32,1.09-.69.15-1.76-.27-2.2C364.43,456,364.12,457.8,362.91,458.16ZM239.33,257.48c1.24.43,1.35,2.3,2.82,1.51.87-.47.35-1.61-.09-2.1C241.16,255.87,240.45,257,239.33,257.48ZM368.57,467.57l3.75,2.51C371.75,467.74,371.2,466.5,368.57,467.57ZM261.25,324.7c.56-.07,1.19-.19.9-.81s.09-1.86-1-2.08a.91.91,0,0,0-1,1C260.3,323.59,260.44,324.4,261.25,324.7ZM487,521.53c-.44-1.08,1.34-2,.17-3-.51-.45-.8.23-1.09.56C485.16,520.12,485.47,520.91,487,521.53Zm9.23,29c-.12-.49-.47-.93-.77-.79-.82.36-1.82.69-2,1.73-.05.35.51.93,1,.73A3.66,3.66,0,0,0,496.22,550.56ZM244.65,349.08c-.59-.27-1.11-.43-1.17.29-.12,1.27,1.16.69,1.7,1.14a.65.65,0,0,0,1-.5C246.34,348.6,245.05,349.44,244.65,349.08ZM354.94,515.57c2.93.29,3.07.14,2.22-2Z" transform="translate(-21.5 -66.1)"/>
    <path d="M335.58,401.77l2.49-4.9c2.58,5.09,5.68,9.56,6.94,14.85a143.43,143.43,0,0,0,12.78,34.94c.7,1.3,1.6,2.59-.35,3.82-.72.45-.29,1.6-.07,2.48,2.44,9.75,8.17,17.41,15.28,24.2a85.76,85.76,0,0,0,16.85,12.69,10.49,10.49,0,0,1,4.67,5.23c2.31,5.43,5.31,10.41,9.85,14.31a23.88,23.88,0,0,0,13.1,6c.78.09,1.55.29,2.38.45-2,2.84-1.92,3.26.88,5.27,5.8,4.13,11.87,7.85,18,11.54.52.31,1.43.42,1.3,1.2s-.89,1-1.65,1.17a17.7,17.7,0,0,1-12.87-2,205.7,205.7,0,0,1-30.65-21c-4.16-3.33-8.62-6.05-14.12-6.65-3.12-.33-6,.39-9,1.15-1.39.36-3.45,1.51-4.16.3-.55-.92,1.83-1.69,2.83-2.6a38.35,38.35,0,0,1,3.31-2.41,15.55,15.55,0,0,0-5.5,1.75c-.88.38-1.69.9-2.54,1.35-4.73,2.47-6.72,1.63-8.3-3.47-.42-1.37-.84-2.75-1.38-4.08-1.14-2.74-2.77-3.76-5.76-3.74-2.09,0-7.13-3.59-7.72-5.51a1.38,1.38,0,0,1,.7-1.82c.69-.36,1.4-.68,2.19-1.07L342,483.24l5.6-4.72c-.51-.79-1.36-.85-2.06-1.07-7.34-2.39-14-6.15-20.65-10-3.49-2-4.55-5.39-4.83-9.12-.15-2,1.09-2.21,2.49-1.62a47.3,47.3,0,0,1,9,5,3.32,3.32,0,0,1-.74.42c-1.28.28-3.09,0-3.37,1.64-.25,1.41,1.16,2.39,2.2,3.23A22.87,22.87,0,0,0,345,472.34c-5.51-10.31-10.32-20.69-18.56-28.93-9.14-9.14-19-17.43-28.89-25.74a64.25,64.25,0,0,1-8.92-9.07c-.35-.45-1.22-.85-.69-1.58s1.31-.06,1.89.18a13.24,13.24,0,0,1,3.6,2.76c4.12,3.67,7.92,7.74,12.68,10.64,1.73,1,3.62,2.73,5.71,1.45,2.26-1.4,2.2-4.11,1.86-6.34-.87-5.75-3.17-10.72-8.83-13.4a12.93,12.93,0,0,1-4.47-3.57c-2.84-3.47-5-7.4-7.7-11.55l5.23.8c5.83.92,9.12-2.38,7.68-8.07-1.48-5.89-4.53-11.1-7.93-16.12.41,3.79.85,7.58,1.19,11.38.12,1.3.4,3.28-1.18,3.4-1.38.1-1.65-1.84-1.9-3.2-.46-2.44,0-4.95-.68-7.4a13.09,13.09,0,0,0-6.32-7.79c-.85-.5-1.25-.32-1.66.48-.78,1.48-1.63,2.94-2.45,4.4-.22.4-.33.94-1,.88s-.65-.58-.73-1a2,2,0,0,1,0-.24c-.06-3.2-1.1-4.9-4.89-4.75-3.23.12-4.07-3.68-4-7.85a4.83,4.83,0,0,1,.4-1.87c2.11-4.52.87-8.53-1.76-12.39a59,59,0,0,1-5.27-9.12c-.31-.7-1-1.32-.63-2.4,1.09.2,1.68,1.11,2.39,1.73a17.12,17.12,0,0,0,6.17,3.59c3,1,4.42-.1,4.53-3.25.08-2.33-1-4.33-1.73-6.44-.61-1.89-1.45-3.71-2.19-5.56-.66-1.69-1.82-2.11-3.42-1.29-2.13,1.09-4.24,2.22-6.38,3.29-1.1.56-2.44,1-3.4.22s-.93-2.28-.45-3.57c1.42-3.81,2.81-7.62,4.21-11.43-3.49-.23-5.23,1.05-6.06,4.67-.54,2.33-.94,4.69-1.33,7.05-.2,1.23-.71,1.42-1.79.87s-2.21-.9-3.31-1.37c-.53-.22-1.09-.51-1.57-.09a1.46,1.46,0,0,0-.08,1.8c.74,1.59,1.54,3.16,2.41,4.68,2.25,3.93,4.55,7.84,6.76,12-2.15-1.2-3.95-.56-5.82.54-3.24,1.9-5.63.53-5.82-3.26-.11-2.24,0-4.49-.11-6.74-.19-6.28-2.21-9.82-7.76-13.41.24-.13.43-.26.63-.35,4.67-2.13,5.16-3.71,2.24-8-1.4-2-3-4-4.54-5.89-.72-.89-1.08-1.46.22-2.2,2.85-1.62,5.57-3.47,8.42-5.09,2.2-1.25,3.78-.79,4.94,1.5s2.12,4.78,3.18,7.24c-5.85.49-7,1.93-6.36,7.84a11.12,11.12,0,0,0,1.85,5.12c1.14,1.68,2.43,1.63,3.16-.23,1.75-4.45,3.5-8.93,4.07-13.73.55-4.59-4.14-11.56-8.51-12.85a1.91,1.91,0,0,0-.7-.12c-2.17.33-3.94-.18-5.08-2.21a9.77,9.77,0,0,1-.82-7.88,2.12,2.12,0,0,1,3.25-1.35c1.12.54,1.69.42,2.34-.79,2.52-4.69,4.46-5.57,9.81-4.2,2.86.73,5.29.74,7.95-.9a4.65,4.65,0,0,0,2.33-5.44c-.43-2.36-1-4.69-1.55-7a11.37,11.37,0,0,1-.22-4.3,3.79,3.79,0,0,1,5.69-3c5.4,3,10.87,2.75,16.42.61,3.47-1.34,3.69-1.94,2-5.54,2.57.93,4.91,1.87,7.3,2.62,3.62,1.14,4.88.79,7-2.22.91-1.28,1.57-1.13,2.69-.49,3.47,2,7,3.89,10.49,5.78.63.34,1.42,1.38,2.05.54s-.62-1.3-1.07-1.88c-1.2-1.58-2.48-3.09-3.93-4.86,4.94-.66,9.52-.06,14.09.41,5,.52,9.94,1.46,15,.4,3.58-.75,5.23.81,6.07,4.41s-.19,7.17-1.19,10.6a62.85,62.85,0,0,1-7.28,16.34c-.74,1.16-.85,1.77.37,2.66,1.45,1.06,1.57,2.8,1.13,4.4-2,7.38-3.87,14.81-7,21.82-.44,1-.91,1.74.53,2.47.85.43.69,1.64.56,2.65a25.36,25.36,0,0,1-4.31,11c-.68,1-.71,1.62.41,2.22a2.86,2.86,0,0,1,1.79,3.3c-.41,1.92-1.82,3.17-3.23,4.33-.75.62-.8-.46-1.08-.79-.79-.92-1.6-1.18-2.33-.08a32.41,32.41,0,0,0-4.17,8.79c1.9-1.68,3.39-3,4.87-4.32.94-.83,2.22-1.63,3.22-1.15s.92,1.92.79,3.08c-1.5,13.17-1.3,26.4-1.48,39.61,0,2-.14,4,.85,5.86s-.6,2.37-1.94,2.69a7,7,0,0,0-4.82,3.22c-.65,1.11-.9,1.74.72,2.43,4.26,1.82,5.38,5.81,6.17,9.9C335.19,398.68,335.33,400,335.58,401.77Zm-43.12-71.43c.24-1.61-.47-3.8,1.76-4.4,2.49-.68,2.18-2.05,1.36-3.8-2.34-5-4.65-10-7-15a6.37,6.37,0,0,0-.93-1.39c-.29-.36-.72-.79-1.18-.62s-.48.79-.42,1.27c.19,1.75.42,3.49.6,5.24.26,2.39.7,4.8-.51,7.26q-1.62-8.49-3.22-17A41.49,41.49,0,0,0,284,327.34c.59,1.6,1.85,1.8,3.08.9,2.15-1.59,3.47-.88,4.47,1.28C291.72,329.87,291.85,330.28,292.46,330.34Zm18.41-7a24.92,24.92,0,0,0,2,9.8c.83,2,1.77,2.15,3,.61,1-1.24,1.95-2.53,2.93-3.79.59-.76.92-1.55.14-2.36-1.08-1.12-.76-2.36-.34-3.58.51-1.51,1.17-3,1.68-4.48.44-1.26.31-2.56-1.14-2.95-1.77-.48-1.86-1.63-1.77-3.07.07-1.12,0-2.24,0-3.36,0-.53.23-1.23-.41-1.51-.81-.36-1.1.45-1.47.9C312.3,313.55,311.06,318.26,310.87,323.32Zm27.8-50.52c-.65-2.72,1-4.51,2-6.54a32.85,32.85,0,0,0,2.35-5.5,2.83,2.83,0,0,0-.59-2.7c-.46-.43-1.57.16-2.1.7-4.5,4.58-7.68,9.82-7.69,16.48,0,1.3.35,2.63,1.77,3.14s2.31-.35,3.14-1.25c3.06-3.29,5.92-6.74,7.64-11,.31-.76,1.63-1.77.44-2.43s-1.38,1-1.87,1.66C342,267.81,340.34,270.32,338.67,272.8Zm-75.12,15.5c-1.76-1.94-3.33-3.69-4.92-5.43-.3-.32-.61-.87-1.16-.57s-.18.87,0,1.26a57.14,57.14,0,0,0,5.74,11.56c1.46,2.18,3.56,2.29,5.31.29a6.05,6.05,0,0,0,1.49-4c.1-3.43-3.12-7.91-7.57-10.43C262.74,283.36,264.25,285.47,263.55,288.3Zm23.61,2.47a3.71,3.71,0,0,0-.62-2.68,34.83,34.83,0,0,0-11.06-12.71,9.57,9.57,0,0,0-1.92-1c-.63-.26-1.19-.18-1,.7.57,2.79.61,5.89,3.2,7.77C279.45,285.55,283,288.47,287.16,290.77Zm6-18.8c-1.94-3.26-5.88-5.66-7.41-9.93-.09,3.25-2.95,6.4-.49,9.39,2.13,2.6,4.19,5.47,7.39,7a22.37,22.37,0,0,0-1.55-3.89C289.79,271.73,293.07,273.76,293.12,272Zm-17.3,17.21c-1.19-4.58-7.27-11.81-10.63-12.66C265.49,282.37,271.47,289.48,275.82,289.18Zm67.32,140.28c-1.84,4.9.52,13,4.37,15.21C348.2,439,346.41,434.15,343.14,429.46ZM276.9,273.62l15.41,11.85C291.26,281,282.46,274.29,276.9,273.62Zm50.42,101.65c.06.85.14,2.11.26,3.38,0,.37,0,.87.61.8a1.34,1.34,0,0,0,.72-.49c1.39-1.69,1.85-6.39.79-8.24-.3-.52-.62-1.37-1.29-1.15a2,2,0,0,0-1,1.47A35.92,35.92,0,0,0,327.32,375.27Zm6.48-60.2c.2-.69.1-1-.27-1.05s-.78,0-.85.09c-1.19,2.51-2.33,5-3.46,7.57-.15.34.1.58.41.74s.46-.05.56-.24C331.45,319.71,332.7,317.24,333.8,315.07Zm-54.59-1.48c0-1.13.16-2.08-.85-2.74-.69-.45-1,0-1.45.35-1.07.72-.8,1.69-.35,2.55s.27,2.68,1.65,2.52S278.76,314.36,279.21,313.59Zm57.91,97c-1.82,4-.72,6.27,2.68,6.22ZM296,269.15c.9-1.83,2.94-2.68,1-4.48-1-.93-1.65-.55-2.29.25C293.07,266.87,295.64,267.24,296,269.15Zm-25.46,40.4c.25-1.93.45-3.49.7-5.41C268.9,305.83,268.47,307.38,270.51,309.55ZM330.59,312c-2.14,1.92-3.23,3.77-2.41,6.94C329.07,316.42,329.76,314.42,330.59,312Zm-51.48-12.7c-.78-1.89-1.16-3.64-2.47-4.94C276.44,296.44,276.23,298.48,279.11,299.34ZM329.28,397a11.82,11.82,0,0,0,1.22-3.62c.12-.44-.6-.76-.81-.59-1,.85-1.07,2.2-1.48,3.35C328,396.78,328.62,396.84,329.28,397ZM307.12,305.4c-.58,1.65-1.6,3.23-1,5.05A6.9,6.9,0,0,0,307.12,305.4Z" transform="translate(-21.5 -66.1)"/>
    <path class="cls-2" d="M236.61,214.31c-4.33-4.13-10-3.52-13.51,1.32-2.84,3.93-3.78,8.55-4.66,13.19-.08.46.05,1-.48,1.39-.71-.05-1-.65-1.16-1.23-.85-3.07-1.87-6.09-1.81-9.37.11-5.79,2.47-9.17,8-11.11,5.74-2,11.63-1.76,17.54-1.14,1.19.13,2.85,0,3.42.66.7.85-.66,2.07-1,3.17a5.68,5.68,0,0,0,1.76,6.5,53.13,53.13,0,0,0,8,5.76,3.74,3.74,0,0,0,2.27.6c1.18-.08,2.71.19,3.32-.89.74-1.32-.86-2-1.5-3,0-.06-.11-.12-.16-.18-2.85-3.27-2.61-4,1.67-4.85-.48-1.47-1.82-2.17-2.8-3.19s-2.22-2.2-1.73-3.45,2.21-1,3.47-.86c15.66,1.58,31.38,1,47.07,1.32,19.91.42,39.55,2.49,58.67,8.3,1.75.53,3.47,1.17,5.21,1.76,2.76.95,3.53,2.15,3.18,5a9.64,9.64,0,0,1-3.25,6,20.1,20.1,0,0,1-14.32,5.75c-4.79-.12-9.58,0-14.36-.16a173.84,173.84,0,0,1-37.9-5.32c-6.68-1.72-13.32-.41-20,.67-7.49,1.21-14.91,3.07-22.59,2.46-.67-.05-1.57.43-2-.39-.29-.64.37-1.16.7-1.69,1.51-2.43,1.27-3-1.6-3.43-3.16-.5-6.33-.9-9.48-1.44-1.28-.22-1.42.58-1.69,1.44-1.25,4.05-3.06,4.79-6.75,2.71a17.78,17.78,0,0,1-7.6-8.4c-2-4.5-.37-7.3,4.56-7.8Zm35.63,3a5,5,0,0,0-3.87,2.49c-.38.55-.15.86.23,1.21,2.8,2.5,5.58,5,8.41,7.49.45.39,1.09.82,1.74.37a1.57,1.57,0,0,0,.64-1.89c-1-2.61-1.7-5.34-3.52-7.56A5.43,5.43,0,0,0,272.24,217.33Zm21.15-2.83c1.6.91,3.26.53,4.87.39,3.09-.27,5.9,0,8.65,1.9s5.88,1.65,9,.38C312.07,212.59,298,210.94,293.39,214.5Zm48.9,4.63c0-3.14-2.4-6.73-4.4-6.65-1.73.07-4.38,3.75-4.35,6.05,0,1.64,3.46,4.08,5.84,4.13C341.3,222.7,342.31,221.47,342.29,219.13Zm-57.92,1.71c.48-.24,1.47.25,1.92-.62a2.2,2.2,0,0,0-.49-2.44,8.15,8.15,0,0,0-4.83-3.27c-2-.38-3.05.91-2.36,2.85C279.53,220,281.76,220.5,284.37,220.84ZM344.72,225c1.78-3.19,3.9-4.34,6.89-3.66a2.07,2.07,0,0,0,1.33-.4c.4-.23.95-.62,1-1,0-.57-.63-.85-1.1-1.08C349.66,217.39,344.5,220.83,344.72,225Zm-74.13-11c2.1,1.33,2.55,1.21,3.12-1C272.68,213.62,271.49,213.22,270.59,214Z" transform="translate(-21.5 -66.1)"/>
    <path class="cls-2" d="M304,498.61c-6.3-6.17-12.61-12.32-18.88-18.52-1.26-1.24-2.9-2.26-3.25-4.61a15.48,15.48,0,0,1,6.12,3.76c12.18,13,26.65,23.28,40.45,34.35C343.92,526,361.82,533.42,380.94,538c3.75.9,7.2,1.82,10.49,4,5.09,3.44,11.29,4.23,17.09,5.94,4.28,1.26,8.54,2.6,12.8,3.93a15.69,15.69,0,0,1,5.14,3.24,46.41,46.41,0,0,1-10.4-1.15c-18.25-3.15-35.2-10.15-51.93-17.74q-15.69-7.12-31.31-14.39c-11.65-5.4-21.63-13.29-31.52-21.33-7.58-6.16-15.1-12.41-21.45-19.91a14.14,14.14,0,0,1-2.52-3.72,11.23,11.23,0,0,1,3.61,2.41c7.15,6.29,13.75,13.21,21.4,19a10.57,10.57,0,0,0,1.23.7c.25.32.62.9.93.61S304.27,498.9,304,498.61Z" transform="translate(-21.5 -66.1)"/>
    <path class="cls-2" d="M255.74,430.71c-2.23,1.53-2,3.22-1.07,5,.67,1.27,1.31,2.55,1.94,3.84,1.5,3.1,3.21,5.8,6.46,7.66,3.85,2.2,5.86,6.21,7.53,10.27a2.94,2.94,0,0,1-.12,3c-.74.85-2,.37-2.88-.06-4.69-2.18-8.61-5.28-11-10a150.73,150.73,0,0,0-10.78-17.82c-6.06-8.8-9.73-18.59-12.13-28.94-3.22-13.92-7.86-27.42-12.1-41a159,159,0,0,1-7-36.61,13.46,13.46,0,0,1,0-1.68c0-.44-.11-1,.54-1.16s.82.46,1,1c1.53,5.37,3.18,10.69,3.41,16.36s2.09,10.77,4,15.94c1.54,4.19,3.16,8.35,4.75,12.51a20.76,20.76,0,0,1,1.82,6.66,10.74,10.74,0,0,0,2.55,6.49c2.89,3.71,3.92,8.16,4.06,12.81a59.58,59.58,0,0,0,.53,9.34c.65,3.4,2.1,6.24,5.45,7.62a5.29,5.29,0,0,1,3.21,3.88c.66,2.46,1.29,4.94,1.91,7.41C248.79,427.23,251.09,429.91,255.74,430.71Z" transform="translate(-21.5 -66.1)"/>
    <path class="cls-2" d="M258.45,388.57c2.6,1.4,4.37,3.88,7.26,5.11-2.56-3.86-5.12-7.72-7.84-11.84l3.67.84c-1-2.7-2.45-4.74-3.52-7-.24-.5-1-1.06-.31-1.67.52-.43,1,.17,1.53.33,1,.33,1.89.78,2.87,1.2.37-4.21.37-4.21,3.78-1.87.27.18.54.33.94.57.08-.82-.42-1.36-.57-2s-.93-1.25-.37-1.7a2,2,0,0,1,2.24.14c4.48,2.63,9,5.22,13.46,7.84.39.23.92.42.85,1-.09.76-.75.77-1.28.8a25.12,25.12,0,0,0-5.37,1.18c-.84.24-1.35.54-.69,1.64a24.44,24.44,0,0,0,2.64,3.91c-2.08.14-3.76-1.13-5.82-.91.84,2.55,2.85,4.09,4.35,6,.73.91,1.68,1.57.55,3-.65.81,0,2,.53,2.91.85,1.35,1.79,2.66,2.54,4.06.52,1,1.22,2.21.4,3.16-1.61,1.86-.58,3.27.4,4.81.68,1.06,1.32,2.15,2.13,3.46-2.13.2-3.15-1.16-4.18-2.18-5.39-5.26-10.69-10.62-16-15.94-.91-.91-1.85-1.79-2.7-2.74-1.06-1.19-2-2.46-1.44-4.22Z" transform="translate(-21.5 -66.1)"/>
    <path class="cls-2" d="M318.93,198.62c-.64,2.8-1.19,5.11-2.74,7-2.38,2.94-5.28,2.91-7.14-.36a79.34,79.34,0,0,1-3.36-7.38c-.23-.51-.37-1.05-.62-1.55-.45-.95-1-2.14-2.13-2s-1.56,1.41-1.72,2.58c-.11.86-.31,1.71-.47,2.59-1,0-1.45-.77-2-1.26-5.42-4.82-12-6.55-19-6.95a118.77,118.77,0,0,0-13.21-.12c-1.36.08-3.73.15-3.7-1,.05-1.65,2.24-.85,3.42-.86,11.84-.14,23.66.39,35.48.87,5.84.24,11.69.35,17.53.52a7.64,7.64,0,0,1,2.15.13,6.5,6.5,0,0,1,2.95,1.49c.95,1.16-.64,1.88-1.15,2.69-1.2,1.91-.59,3.62,0,5.5.4,1.37,2,3.36.71,4.06s-1.78-1.84-2.72-2.86A35.7,35.7,0,0,1,318.93,198.62Z" transform="translate(-21.5 -66.1)"/>
    <path class="cls-2" d="M269.9,341.64c-.14,2.4-.3,5.27-.45,8.15a9.63,9.63,0,0,0,2,6.71c1.8,2.34,2.32,5.22,2.86,8.05.16.84.6,1.89-.37,2.36a2.43,2.43,0,0,1-2.62-.67c-2.9-2.52-5.89-4.94-8.78-7.47-4.27-3.75-8.48-7.57-12.74-11.33A2,2,0,0,1,249,345c.47-1.56-.76-3-.82-4.59,0-.87-.36-1.74-.34-2.6,0-1.92,1.09-2.6,2.84-1.84a30.44,30.44,0,0,1,6.14,4.16c2.1,1.6,4,3.47,6.33,4.75s3.68.47,3.91-2.12a18,18,0,0,0-.73-6.17c-.46-1.77.53-1.52,1.48-1.35a2.39,2.39,0,0,1,2.07,2.32C270,338.76,269.9,340,269.9,341.64Z" transform="translate(-21.5 -66.1)"/>
    <path class="cls-2" d="M219.73,305c2.19,9.16,1.83,18.6,3,27.9a21.18,21.18,0,0,1-4.76-10.6c-1.45-8.51-2.63-17.06-3.9-25.59a59.06,59.06,0,0,1-.89-10.28c0-.75-.27-1.58.49-2.37a14.52,14.52,0,0,1,2.85,5.7c.56,2,1,4,1.73,6.59.48-5.37-.44-10.15.71-15.52a48.83,48.83,0,0,1,3.25,13.72c.23,3,.06,6.09,0,9.13,0,.67.22,1.64-.59,1.9-.6.19-1-.67-1.49-1.05l-.63-.52A.74.74,0,0,0,219.73,305Z" transform="translate(-21.5 -66.1)"/>
    <path class="cls-2" d="M265,418.16a8.78,8.78,0,0,1,6.61,1.13c5.42,3.22,11,6.21,16,10.11a6.19,6.19,0,0,1,1.12.91c.73.9,2.19,2.1,1.68,2.86a4,4,0,0,1-3.66,1.31c-4.23-.52-8.38-1.43-12-3.8a85.37,85.37,0,0,1-7.59-5.83C265.1,423.14,265.2,420.6,265,418.16Z" transform="translate(-21.5 -66.1)"/>
    <path class="cls-2" d="M313.38,182.45l-4-2.46c0,1.61.06,2.85,0,4.09-.25,4-2.36,5.08-5.72,2.83-3.58-2.38-5.38-6-6.4-10a11.32,11.32,0,0,1,.5-8c.32-.65.48-1,1.13-.42,3.45,2.86,7.61,4.71,10.95,7.71C311.66,177.84,313.22,179.7,313.38,182.45Z" transform="translate(-21.5 -66.1)"/>
    <path class="cls-2" d="M486.9,548.58c-3.57,1.55-6.73,1-9.71.06-8.74-2.92-17.34-6.28-26.2-8.85-.83-.24-2.48-.28-2.21-1.55a3.24,3.24,0,0,1,2.84-2.29,18.42,18.42,0,0,1,6.39.72c8,1.81,15.21,5.55,22.6,8.88C482.6,546.45,484.55,547.45,486.9,548.58Z" transform="translate(-21.5 -66.1)"/>
    <path class="cls-2" d="M281.89,136.2c-2-3.1-1.49-5.87.6-8.45s5-4.12,8.44-3.26c3.16.79,4.91,3.11,5.43,6.31.42,2.61-.74,3.7-3.39,3.22s-4.82-1.6-7.23-2.39c-3.31-1.07-4.13-.36-3.68,3C282.11,135.1,282.51,135.54,281.89,136.2Z" transform="translate(-21.5 -66.1)"/>
    <path class="cls-2" d="M391.35,516c-.05,3.8-1.61,6-4.91,7.07-1.8.62-2.82.32-2.88-1.74-.06-1.87-.81-2.66-2.69-1.77a2.35,2.35,0,0,1-.71.13c-1,.09-2.44.72-2.77-.33a2.92,2.92,0,0,1,1.54-3,31.5,31.5,0,0,1,10.12-3.52C391.55,512.47,391.38,514.38,391.35,516Z" transform="translate(-21.5 -66.1)"/>
    <path class="cls-2" d="M352.22,523.67c-11.12-3.48-20.66-8.83-28.5-17l.38-.67c3,1.64,6.12,3.18,9.07,5,4.63,2.82,9.58,5,14.29,7.68A9.66,9.66,0,0,1,352.22,523.67Z" transform="translate(-21.5 -66.1)"/>
    <path class="cls-3" d="M251.41,244.92c4.49,1.3,9.17,2.14,13,5.22,1.6,1.3,1.42,2.92-.23,4.23-2.69,2.13-8,1.82-10.44-.61-.63-.64-1.32-1.49-.87-2.29s1.53-.44,2.36-.14a15.34,15.34,0,0,0,4.23,1l-8.34-6.9Z" transform="translate(-21.5 -66.1)"/>
    <path class="cls-2" d="M291.5,427.14a5.66,5.66,0,0,1,3.65,1.58c4.17,3.58,8.07,7.49,12.62,10.63.67.46,1.46,1.23,1.11,1.93-.44.89-1.51.55-2.35.28-4.52-1.48-8.35-3.87-10.91-8C294.39,431.53,293.08,429.58,291.5,427.14Z" transform="translate(-21.5 -66.1)"/>
    <path class="cls-2" d="M273.37,176.54a29,29,0,0,1,3.87-.65c4-.1,8-.11,12-.07s5.73,1.8,6.36,6.18c-7.32-2.62-14.48-5.26-22.38-4.25Z" transform="translate(-21.5 -66.1)"/>
    <path class="cls-3" d="M302.92,431a9.82,9.82,0,0,1,7.55,2.42,47.89,47.89,0,0,0,9.23,6.74,11.06,11.06,0,0,1,1.5,1.24C316.32,442.52,307.61,436.59,302.92,431Z" transform="translate(-21.5 -66.1)"/>
    <path class="cls-3" d="M522.06,559.41a55.17,55.17,0,0,1,20,5.11C535.17,564.58,526.1,563.22,522.06,559.41Z" transform="translate(-21.5 -66.1)"/>
    <path class="cls-3" d="M388.75,239.11a8.19,8.19,0,0,1,7.94,4.49c1,2,1,3.81-.92,5.54C393.43,245.8,391.13,242.5,388.75,239.11Z" transform="translate(-21.5 -66.1)"/>
    <path class="cls-3" d="M309.13,461.59c-4.76-.4-10-4.75-11.2-9.48A23.75,23.75,0,0,1,309.13,461.59Z" transform="translate(-21.5 -66.1)"/>
    <path class="cls-3" d="M401.61,520.47a2.55,2.55,0,0,1-1.66,1.85c-1.81.8-3.66,1.5-5.48,2.28-.8.35-1.57.54-2.15-.26a2.31,2.31,0,0,1-.08-2.51c1-1.78,6.9-3,8.61-1.82A6.55,6.55,0,0,0,401.61,520.47Z" transform="translate(-21.5 -66.1)"/>
    <path class="cls-3" d="M306,160.75a12.22,12.22,0,0,1-7.62-.31c-.57-.19-1.37-.26-1.47-1-.13-1,.84-1,1.4-1.35C300.8,156.74,304,157.83,306,160.75Z" transform="translate(-21.5 -66.1)"/>
    <path class="cls-3" d="M239.16,246.77a7.17,7.17,0,0,1,4.38,2.92c.27.42-2.86,2.36-3.68,2.28-1.33-.12-3.3-2.32-3.09-3.57C237,247,238.19,246.89,239.16,246.77Z" transform="translate(-21.5 -66.1)"/>
    <path class="cls-3" d="M310.34,449.56c-3.79.3-7.28-2.27-9.06-6.69A18.68,18.68,0,0,1,310.34,449.56Z" transform="translate(-21.5 -66.1)"/>
    <path class="cls-2" d="M235.16,276.69c-1.6-1.05-2.94-1.87-4.22-2.8a2,2,0,0,1-.85-2.51c.54-1,1.65-1.08,2.73-.8C235,271.13,235.62,272.67,235.16,276.69Z" transform="translate(-21.5 -66.1)"/>
    <path class="cls-3" d="M231.76,264a8.85,8.85,0,0,1,6.12,2.18c.8.59,1.48,1.55.79,2.43a2,2,0,0,1-3,.21A11.7,11.7,0,0,1,231.76,264Z" transform="translate(-21.5 -66.1)"/>
    <path class="cls-3" d="M285.47,416.76c4.3,1.53,6.85,4.28,9.68,7.82C290.92,422.78,287.41,421.24,285.47,416.76Z" transform="translate(-21.5 -66.1)"/>
    <path class="cls-3" d="M397.94,525.42c.85-.13,1.12.13,1.06.76-.15,1.79-3.78,3.88-5.49,3.16-.61-.26-1.22-.57-1.22-1.3s.59-1,1.1-1.14C395,526.34,396.57,525.86,397.94,525.42Z" transform="translate(-21.5 -66.1)"/>
    <path class="cls-3" d="M422.79,536.68c-.39.35-.53.56-.72.64-2.42,1-4.85,2-7.33,2.95C415.17,536.67,418.23,535.27,422.79,536.68Z" transform="translate(-21.5 -66.1)"/>
    <path class="cls-2" d="M220.3,272.9c-2.61-1.09-3.69-2.61-3.34-4.72a1.9,1.9,0,0,1,1.61-1.81c.87-.07,1.34.71,1.48,1.58a8.23,8.23,0,0,1,.24,1.18C220.32,270.39,220.3,271.65,220.3,272.9Z" transform="translate(-21.5 -66.1)"/>
    <path class="cls-3" d="M317.16,476.05c-.11.52.13,1.16-.44,1.51s-1-.15-1.45-.47c-.94-.71-1.87-1.44-2.81-2.16-.35-.27-.93-.45-.83-1s.75-.74,1.3-.8C314.93,472.94,317.09,474.43,317.16,476.05Z" transform="translate(-21.5 -66.1)"/>
    <path class="cls-3" d="M334.38,483.25c3-.51,3.93-.36,6.71,1.07C338.52,486.67,336,486.27,334.38,483.25Z" transform="translate(-21.5 -66.1)"/>
    <path class="cls-3" d="M292.64,379.68c-1.34-1.1-2.47-2-3.55-2.92-.49-.42-.9-1-.52-1.66s1.12-.52,1.74-.43C292.15,374.91,293,376.64,292.64,379.68Z" transform="translate(-21.5 -66.1)"/>
    <path class="cls-3" d="M408.6,528.05c-1.67,1.83-3.81,2.39-6.16,2.6C403.17,527.41,405.69,526.34,408.6,528.05Z" transform="translate(-21.5 -66.1)"/>
    <path class="cls-3" d="M237.05,313.74l7,1.54C241.31,317.78,239.71,317.49,237.05,313.74Z" transform="translate(-21.5 -66.1)"/>
    <path class="cls-3" d="M243.82,365.38l-4-5.37C243,360.3,244,361.58,243.82,365.38Z" transform="translate(-21.5 -66.1)"/>
    <path class="cls-3" d="M226.66,228.49c.63.27,2.37-.29,2.65.93.22,1-1.35,1.48-2.33,1.54a2,2,0,0,1-2.16-1.8C224.71,228.36,225.55,228.28,226.66,228.49Z" transform="translate(-21.5 -66.1)"/>
    <path class="cls-3" d="M301.39,483.31c-.16,1.28-.82,1.88-1.77,1.82a2.33,2.33,0,0,1-2.06-2.26c-.09-1,1.09-.79,1.82-.84A1.85,1.85,0,0,1,301.39,483.31Z" transform="translate(-21.5 -66.1)"/>
    <path class="cls-3" d="M272.33,412.83a5.7,5.7,0,0,1-6.7-3.55A43.12,43.12,0,0,1,272.33,412.83Z" transform="translate(-21.5 -66.1)"/>
    <path class="cls-3" d="M247.29,370.41A6,6,0,0,1,253,376Z" transform="translate(-21.5 -66.1)"/>
    <path class="cls-3" d="M308.3,469.74c-1.44,1.4-4.75.7-5.18-1.07-.16-.65.24-.85.82-.64A18.9,18.9,0,0,1,308.3,469.74Z" transform="translate(-21.5 -66.1)"/>
    <path class="cls-3" d="M410.26,532.9c-1.27.75-2.32,1.42-3.43,2-.55.28-1.32.41-1.63-.35a1.35,1.35,0,0,1,.49-1.68A3.74,3.74,0,0,1,410.26,532.9Z" transform="translate(-21.5 -66.1)"/>
    <path class="cls-3" d="M288.79,463.11c-1.8,2.35-3.39,2.34-5.44,0Z" transform="translate(-21.5 -66.1)"/>
    <path class="cls-3" d="M274.59,415.29c1.34.83,2.68,1.65,4,2.5.37.23,1,.45.79,1s-.87.59-1.44.4a7.6,7.6,0,0,1-3.84-3.4Z" transform="translate(-21.5 -66.1)"/>
    <path class="cls-3" d="M316.62,500.68a1,1,0,0,1-1.41.72c-1.14-.43-2.46-.8-2.77-2.2-.09-.4.45-.81,1-.55C314.63,499.15,316.31,498.8,316.62,500.68Z" transform="translate(-21.5 -66.1)"/>
    <path class="cls-3" d="M237.46,372.76a10.34,10.34,0,0,1,.71,1.07c.78,1.54,2,2.87,2.34,4.61a1.74,1.74,0,0,1-.54.28q-1.5-2.28-2.95-4.61c-.12-.18-.28-.47-.21-.62S237.19,373,237.46,372.76Z" transform="translate(-21.5 -66.1)"/>
    <path class="cls-3" d="M463.72,522.57h4.77a2.42,2.42,0,0,1-2,2.24c-1.13.13-1.78-.84-2.09-1.92-.1-.37-.3-.5-.66-.29Z" transform="translate(-21.5 -66.1)"/>
    <path class="cls-3" d="M231.82,280.42c-1.69-1.5-3.08-2.74-4.66-4.13C230.33,276.27,231.09,276.92,231.82,280.42Z" transform="translate(-21.5 -66.1)"/>
    <path class="cls-3" d="M411,534.67l6.43-1.84C415.52,535.26,413.71,535.75,411,534.67Z" transform="translate(-21.5 -66.1)"/>
    <path class="cls-3" d="M293.74,454.75c-.27.51-.77,1-1.28.76a5,5,0,0,1-2.93-2.23c-.2-.41.51-.82,1-.57C291.65,453.28,293.32,453,293.74,454.75Z" transform="translate(-21.5 -66.1)"/>
    <path class="cls-3" d="M335.8,489.76a17.58,17.58,0,0,1-7-2.58A18.65,18.65,0,0,1,335.8,489.76Z" transform="translate(-21.5 -66.1)"/>
    <path class="cls-3" d="M246.09,254.73c1,.05,2.22,0,2.3,1.42a1,1,0,0,1-1.31.93c-.94-.31-2.05-.79-2.21-1.89C244.75,254.35,245.57,254.63,246.09,254.73Z" transform="translate(-21.5 -66.1)"/>
    <path class="cls-3" d="M381.29,511.77c-.43.61-.54.91-.69.94-1.62.29-3.05,1.37-4.78,1.12-.08,0-.18-.56-.14-.58A13.72,13.72,0,0,1,381.29,511.77Z" transform="translate(-21.5 -66.1)"/>
    <path class="cls-3" d="M308.68,456.75c3.36-.68,3.77-.43,3.76,2.19C311.08,458.57,310.16,457.58,308.68,456.75Z" transform="translate(-21.5 -66.1)"/>
    <path class="cls-3" d="M435.2,556.24c-1.89,2.51-2.23,2.48-4-.27Z" transform="translate(-21.5 -66.1)"/>
    <path class="cls-3" d="M362.91,458.16c1.21-.36,1.52-2.12,2.72-.88.42.44,1.36,1.51.27,2.2C364.56,460.34,364.24,458.61,362.91,458.16Z" transform="translate(-21.5 -66.1)"/>
    <path class="cls-3" d="M239.33,257.48c1.12-.49,1.83-1.61,2.73-.59.44.49,1,1.63.09,2.1C240.68,259.78,240.57,257.91,239.33,257.48Z" transform="translate(-21.5 -66.1)"/>
    <path class="cls-3" d="M368.57,467.57c2.63-1.07,3.18.17,3.75,2.51Z" transform="translate(-21.5 -66.1)"/>
    <path class="cls-3" d="M261.25,324.7c-.81-.3-.95-1.11-1.08-1.85a.91.91,0,0,1,1-1c1.07.22.65,1.38,1,2.08S261.81,324.63,261.25,324.7Z" transform="translate(-21.5 -66.1)"/>
    <path class="cls-3" d="M487,521.53c-1.52-.62-1.83-1.41-.92-2.47.29-.33.58-1,1.09-.56C488.33,519.56,486.55,520.45,487,521.53Z" transform="translate(-21.5 -66.1)"/>
    <path class="cls-3" d="M496.22,550.56a3.66,3.66,0,0,1-1.76,1.67c-.47.2-1-.38-1-.73.15-1,1.15-1.37,2-1.73C495.75,549.63,496.1,550.07,496.22,550.56Z" transform="translate(-21.5 -66.1)"/>
    <path class="cls-3" d="M244.65,349.08c.4.36,1.69-.48,1.58.93a.65.65,0,0,1-1,.5c-.54-.45-1.82.13-1.7-1.14C243.54,348.65,244.06,348.81,244.65,349.08Z" transform="translate(-21.5 -66.1)"/>
    <path class="cls-3" d="M354.94,515.57l2.22-2C358,515.71,357.87,515.86,354.94,515.57Z" transform="translate(-21.5 -66.1)"/>
    <path class="cls-2" d="M258.48,388.5l-.23.17,0-.14a.53.53,0,0,0,.17,0Z" transform="translate(-21.5 -66.1)"/>
    <path class="cls-1" d="M292.46,330.34c-.61-.06-.74-.47-.91-.82-1-2.16-2.32-2.87-4.47-1.28-1.23.9-2.49.7-3.08-.9A41.49,41.49,0,0,1,282.93,302q1.6,8.47,3.22,17c1.21-2.46.77-4.87.51-7.26-.18-1.75-.41-3.49-.6-5.24-.06-.48-.08-1.09.42-1.27s.89.26,1.18.62a6.37,6.37,0,0,1,.93,1.39c2.34,5,4.65,10,7,15,.82,1.75,1.13,3.12-1.36,3.8C292,326.54,292.7,328.73,292.46,330.34Z" transform="translate(-21.5 -66.1)"/>
    <path class="cls-1" d="M310.87,323.32c.19-5.06,1.43-9.77,4.68-13.79.37-.45.66-1.26,1.47-.9.64.28.4,1,.41,1.51,0,1.12.06,2.24,0,3.36-.09,1.44,0,2.59,1.77,3.07,1.45.39,1.58,1.69,1.14,2.95-.51,1.51-1.17,3-1.68,4.48-.42,1.22-.74,2.46.34,3.58.78.81.45,1.6-.14,2.36-1,1.26-1.93,2.55-2.93,3.79-1.25,1.54-2.19,1.39-3-.61A24.92,24.92,0,0,1,310.87,323.32Z" transform="translate(-21.5 -66.1)"/>
    <path class="cls-1" d="M338.67,272.8c1.67-2.48,3.29-5,5.05-7.4.49-.67.74-2.29,1.87-1.66s-.13,1.67-.44,2.43c-1.72,4.22-4.58,7.67-7.64,11-.83.9-1.79,1.74-3.14,1.25s-1.77-1.84-1.77-3.14c0-6.66,3.19-11.9,7.69-16.48.53-.54,1.64-1.13,2.1-.7a2.83,2.83,0,0,1,.59,2.7,32.85,32.85,0,0,1-2.35,5.5C339.69,268.29,338,270.08,338.67,272.8Z" transform="translate(-21.5 -66.1)"/>
    <path class="cls-1" d="M263.55,288.3c.7-2.83-.81-4.94-1.15-7.27,4.45,2.52,7.67,7,7.57,10.43a6.05,6.05,0,0,1-1.49,4c-1.75,2-3.85,1.89-5.31-.29a57.14,57.14,0,0,1-5.74-11.56c-.14-.39-.58-.92,0-1.26s.86.25,1.16.57C260.22,284.61,261.79,286.36,263.55,288.3Z" transform="translate(-21.5 -66.1)"/>
    <path class="cls-1" d="M287.16,290.77c-4.19-2.3-7.71-5.22-11.4-7.88-2.59-1.88-2.63-5-3.2-7.77-.19-.88.37-1,1-.7a9.57,9.57,0,0,1,1.92,1,34.83,34.83,0,0,1,11.06,12.71A3.71,3.71,0,0,1,287.16,290.77Z" transform="translate(-21.5 -66.1)"/>
    <path class="cls-1" d="M293.12,272c-.05,1.79-3.33-.24-2.06,2.55a22.37,22.37,0,0,1,1.55,3.89c-3.2-1.51-5.26-4.38-7.39-7-2.46-3,.4-6.14.49-9.39C287.24,266.31,291.18,268.71,293.12,272Z" transform="translate(-21.5 -66.1)"/>
    <path class="cls-1" d="M275.82,289.18c-4.35.3-10.33-6.81-10.63-12.66C268.55,277.37,274.63,284.6,275.82,289.18Z" transform="translate(-21.5 -66.1)"/>
    <path class="cls-1" d="M343.14,429.46c3.27,4.69,5.06,9.5,4.37,15.21C343.66,442.47,341.3,434.36,343.14,429.46Z" transform="translate(-21.5 -66.1)"/>
    <path class="cls-1" d="M276.9,273.62c5.56.67,14.36,7.4,15.41,11.85Z" transform="translate(-21.5 -66.1)"/>
    <path class="cls-1" d="M327.32,375.27a35.92,35.92,0,0,1,.05-4.23,2,2,0,0,1,1-1.47c.67-.22,1,.63,1.29,1.15,1.06,1.85.6,6.55-.79,8.24a1.34,1.34,0,0,1-.72.49c-.57.07-.58-.43-.61-.8C327.46,377.38,327.38,376.12,327.32,375.27Z" transform="translate(-21.5 -66.1)"/>
    <path class="cls-1" d="M333.8,315.07c-1.1,2.17-2.35,4.64-3.61,7.11-.1.19-.25.4-.56.24s-.56-.4-.41-.74c1.13-2.53,2.27-5.06,3.46-7.57.07-.14.57-.14.85-.09S334,314.38,333.8,315.07Z" transform="translate(-21.5 -66.1)"/>
    <path class="cls-1" d="M279.21,313.59c-.45.77.45,2.51-1,2.68s-1.17-1.61-1.65-2.52-.72-1.83.35-2.55c.44-.3.76-.8,1.45-.35C279.37,311.51,279.25,312.46,279.21,313.59Z" transform="translate(-21.5 -66.1)"/>
    <path class="cls-1" d="M337.12,410.55l2.68,6.22C336.4,416.82,335.3,414.55,337.12,410.55Z" transform="translate(-21.5 -66.1)"/>
    <path class="cls-1" d="M296,269.15c-.33-1.91-2.9-2.28-1.33-4.23.64-.8,1.25-1.18,2.29-.25C298.91,266.47,296.87,267.32,296,269.15Z" transform="translate(-21.5 -66.1)"/>
    <path class="cls-1" d="M270.51,309.55c-2-2.17-1.61-3.72.7-5.41C271,306.06,270.76,307.62,270.51,309.55Z" transform="translate(-21.5 -66.1)"/>
    <path class="cls-1" d="M330.59,312c-.83,2.38-1.52,4.38-2.41,6.94C327.36,315.81,328.45,314,330.59,312Z" transform="translate(-21.5 -66.1)"/>
    <path class="cls-1" d="M279.11,299.34c-2.88-.86-2.67-2.9-2.47-4.94C278,295.7,278.33,297.45,279.11,299.34Z" transform="translate(-21.5 -66.1)"/>
    <path class="cls-1" d="M329.28,397c-.66-.14-1.31-.2-1.07-.86.41-1.15.46-2.5,1.48-3.35.21-.17.93.15.81.59A11.82,11.82,0,0,1,329.28,397Z" transform="translate(-21.5 -66.1)"/>
    <path class="cls-1" d="M307.12,305.4a6.9,6.9,0,0,1-1,5.05C305.52,308.63,306.54,307.05,307.12,305.4Z" transform="translate(-21.5 -66.1)"/>
    <path class="cls-1" d="M272.24,217.33a5.43,5.43,0,0,1,3.63,2.11c1.82,2.22,2.55,4.95,3.52,7.56a1.57,1.57,0,0,1-.64,1.89c-.65.45-1.29,0-1.74-.37-2.83-2.47-5.61-5-8.41-7.49-.38-.35-.61-.66-.23-1.21A5,5,0,0,1,272.24,217.33Z" transform="translate(-21.5 -66.1)"/>
    <path class="cls-1" d="M293.39,214.5c4.62-3.56,18.68-1.91,22.51,2.67-3.11,1.27-6.31,1.49-9-.38s-5.56-2.17-8.65-1.9C296.65,215,295,215.41,293.39,214.5Z" transform="translate(-21.5 -66.1)"/>
    <path class="cls-1" d="M342.29,219.13c0,2.34-1,3.57-2.91,3.53-2.38,0-5.82-2.49-5.84-4.13,0-2.3,2.62-6,4.35-6.05C339.89,212.4,342.27,216,342.29,219.13Z" transform="translate(-21.5 -66.1)"/>
    <path class="cls-1" d="M284.37,220.84c-2.61-.34-4.84-.88-5.76-3.48-.69-1.94.33-3.23,2.36-2.85a8.15,8.15,0,0,1,4.83,3.27,2.2,2.2,0,0,1,.49,2.44C285.84,221.09,284.85,220.6,284.37,220.84Z" transform="translate(-21.5 -66.1)"/>
    <path class="cls-1" d="M344.72,225c-.22-4.19,4.94-7.63,8.09-6.12.47.23,1.15.51,1.1,1.08,0,.36-.57.75-1,1a2.07,2.07,0,0,1-1.33.4C348.62,220.68,346.5,221.83,344.72,225Z" transform="translate(-21.5 -66.1)"/>
    <path class="cls-1" d="M270.59,214c.9-.81,2.09-.41,3.12-1C273.14,215.24,272.69,215.36,270.59,214Z" transform="translate(-21.5 -66.1)"/>
    <path class="cls-1" d="M304,498.61c.28.29.95.57.51,1s-.68-.29-.93-.61Z" transform="translate(-21.5 -66.1)"/>
    <path class="cls-1" d="M219.73,305a.74.74,0,0,1-.18-1l.63.52Z" transform="translate(-21.5 -66.1)"/>
  </g>
</svg>
