<svg id="Layer_1" data-name="Layer 1" xmlns="http://www.w3.org/2000/svg" width="5.84in" height="5.66in" viewBox="0 0 420.28 407.31">
  <defs>
    <style>
      .cls-1 {
        fill: #2a9d8f;
      }
    </style>
  </defs>
  <g>
    <path class="cls-1" d="M294.14,513.77c0,13,.32,26.46-.14,39.91-.22,6.66-7.38,9.94-15,7.46a196.06,196.06,0,0,1-54.44-27.65c-47.87-34.67-77.41-81.17-85.87-139.77-15.42-106.69,51.35-205.45,156-232.4C400,134.21,509.4,192.88,545.33,295.68c37.85,108.26-21.45,229.06-130.19,265.21-10.19,3.4-16.3-.92-16.29-11.6q0-26.25.15-52.5c.09-14.87-2.54-28.83-13.71-40.88,6.29-1.06,11.9-1.85,17.46-3,18-3.6,34.87-9.65,49-22,16.1-14.09,23.82-32.53,27-53.11,2.55-16.37,3.37-32.8-1.4-49a77.5,77.5,0,0,0-15.8-29.17c-1.87-2.15-2.12-4-1.31-6.63,5-16.56,3.56-32.91-2.49-48.9-.54-1.45-3.07-3-4.72-3-10.2-.23-19.64,3.09-28.63,7.49-7.59,3.73-14.76,8.3-22.26,12.22a9.87,9.87,0,0,1-6.31,1,205.23,205.23,0,0,0-98.25-.06,10.5,10.5,0,0,1-7.17-1.39c-13.67-8.35-27.52-16.17-43.6-18.9-.82-.13-1.63-.34-2.45-.43-7.83-.83-8.1-.67-10.49,7-4.73,15.13-5.53,30.33-.94,45.69a6.44,6.44,0,0,1-1,5.19c-18.66,21.84-22,47.4-18.28,74.68,2.49,18.45,8.05,35.66,20.44,50.06,13.52,15.71,31.33,23.72,51,28.28,7.19,1.67,14.52,2.77,22.39,4.24-7,7.58-10.66,16.18-12.46,25.68a4.91,4.91,0,0,1-2.8,2.91c-22.37,8.64-44.17,5.28-58-17.57-6.64-10.94-15.61-19.09-28.52-21.65a27.89,27.89,0,0,0-10.29.32c-4,.74-4.17,3.43-1.75,6.21a22.64,22.64,0,0,0,5.23,4.6c11.24,6.7,18.43,16.78,23.22,28.55,8.08,19.85,23.62,28.54,43.89,29.68C275.12,515.42,284.41,514.21,294.14,513.77Z" transform="translate(-136.49 -154.72)"/>
    <path class="cls-1" d="M239.63,479.15a62.22,62.22,0,0,1,4.81,6.43c.15.25-2.27,2.52-2.49,2.37a19.09,19.09,0,0,1-4.63-4.24C237,483.29,238.32,481.65,239.63,479.15Z" transform="translate(-136.49 -154.72)"/>
    <path class="cls-1" d="M255.45,488.85l4.28,4.9c-1.42.76-3.12,2.43-4.19,2.08-1.65-.53-2.87-2.42-4.27-3.74Z" transform="translate(-136.49 -154.72)"/>
    <path class="cls-1" d="M289.25,489.45l3.64,4.09c-1.63,1.11-3.16,2.78-4.94,3.1-1,.18-2.46-1.79-3.71-2.79Z" transform="translate(-136.49 -154.72)"/>
    <path class="cls-1" d="M272.27,491.57l4.64,4c-1.48,1.08-3,3-4.44,3s-2.84-1.94-4.27-3Z" transform="translate(-136.49 -154.72)"/>
    <path class="cls-1" d="M234.84,473.58c-1.78,1.22-3.23,2.54-3.5,2.34a17.87,17.87,0,0,1-3.93-4.21c-.16-.25,2.15-2.63,2.31-2.53A52.31,52.31,0,0,1,234.84,473.58Z" transform="translate(-136.49 -154.72)"/>
    <path class="cls-1" d="M226.29,461.94c-1.75,1.15-2.95,2.34-3.31,2.12a13,13,0,0,1-3.64-3.34c-.2-.26,1-1.61,1.62-2.45Z" transform="translate(-136.49 -154.72)"/>
  </g>
</svg>
