<svg id="Layer_1" data-name="Layer 1" xmlns="http://www.w3.org/2000/svg" width="5.84in" height="5.66in" viewBox="0 0 420.49 407.5">
  <defs>
    <style>
      .cls-1 {
        fill: #63c299;
      }

      .cls-2 {
        fill: #2a9d8f;
      }
    </style>
  </defs>
  <g>
    <path class="cls-1" d="M157.73,359.23c0,13,.32,26.47-.15,39.93-.22,6.66-7.38,9.94-15,7.46A196.13,196.13,0,0,1,88.11,379C40.22,344.27,10.67,297.75,2.2,239.12-13.23,132.38,53.58,33.57,158.28,6.61,263.64-20.51,373.09,38.19,409,141,446.9,249.35,387.57,370.2,278.78,406.37c-10.19,3.4-16.31-.92-16.3-11.6q0-26.26.15-52.53c.09-14.88-2.54-28.84-13.71-40.9,6.29-1.06,11.9-1.85,17.47-3,18-3.6,34.88-9.65,49-22,16.11-14.1,23.83-32.55,27-53.14,2.55-16.37,3.37-32.81-1.4-49A77.44,77.44,0,0,0,325.21,145c-1.87-2.15-2.12-4-1.31-6.64,5-16.56,3.57-32.92-2.49-48.92-.54-1.45-3.07-3-4.72-3-10.2-.23-19.65,3.09-28.64,7.49-7.6,3.73-14.77,8.31-22.27,12.23a10,10,0,0,1-6.32,1,205.27,205.27,0,0,0-98.29-.06A10.51,10.51,0,0,1,154,105.7c-13.67-8.36-27.53-16.18-43.62-18.91-.82-.13-1.63-.34-2.45-.43-7.83-.83-8.1-.67-10.49,7-4.74,15.14-5.54,30.35-.94,45.71a6.48,6.48,0,0,1-1,5.2c-18.67,21.85-22,47.42-18.29,74.71,2.49,18.46,8,35.68,20.45,50.09,13.52,15.71,31.34,23.73,51,28.29,7.19,1.67,14.53,2.77,22.4,4.24-7,7.59-10.66,16.19-12.46,25.69a5,5,0,0,1-2.81,2.92c-22.38,8.64-44.19,5.28-58-17.58-6.65-10.95-15.62-19.1-28.54-21.66a27.62,27.62,0,0,0-10.29.32c-4,.74-4.17,3.43-1.75,6.21a22.52,22.52,0,0,0,5.23,4.6c11.25,6.7,18.44,16.79,23.23,28.57,8.08,19.85,23.63,28.55,43.91,29.69C138.7,360.88,148,359.67,157.73,359.23Z" transform="translate(0.01 -0.01)"/>
    <path class="cls-2" d="M103.19,324.59A61.6,61.6,0,0,1,108,331c.15.25-2.27,2.52-2.49,2.37a19.11,19.11,0,0,1-4.63-4.25C100.56,328.73,101.88,327.09,103.19,324.59Z" transform="translate(0.01 -0.01)"/>
    <path class="cls-2" d="M119,334.3l4.28,4.9c-1.42.76-3.12,2.43-4.19,2.08-1.65-.53-2.87-2.42-4.28-3.74Z" transform="translate(0.01 -0.01)"/>
    <path class="cls-2" d="M152.83,334.9l3.64,4.09c-1.63,1.11-3.16,2.78-4.94,3.1-1,.18-2.46-1.79-3.71-2.79Z" transform="translate(0.01 -0.01)"/>
    <path class="cls-2" d="M135.84,337l4.65,4c-1.48,1.08-3,3-4.45,3s-2.84-1.94-4.27-3Z" transform="translate(0.01 -0.01)"/>
    <path class="cls-2" d="M98.4,319c-1.78,1.22-3.23,2.54-3.5,2.34A17.92,17.92,0,0,1,91,317.15c-.16-.25,2.15-2.63,2.31-2.53A51.1,51.1,0,0,1,98.4,319Z" transform="translate(0.01 -0.01)"/>
    <path class="cls-2" d="M89.84,307.37c-1.75,1.15-3,2.35-3.31,2.13a13.07,13.07,0,0,1-3.64-3.35c-.2-.26,1-1.61,1.62-2.45Z" transform="translate(0.01 -0.01)"/>
  </g>
</svg>
