<svg id="Layer_1" data-name="Layer 1" xmlns="http://www.w3.org/2000/svg" width="9.69in" height="8.4in" viewBox="0 0 697.83 605.11">
  <defs>
    <style>
      .cls-1 {
        fill: #e75225;
      }

      .cls-2 {
        fill: #fffefd;
      }
    </style>
  </defs>
  <g>
    <path class="cls-1" d="M185.22,57h350c-.18.93.53,1.48.91,2.15q86.1,149.16,172.26,298.28a3.74,3.74,0,0,1-.09,4.36q-20.88,36-41.65,72Q601.38,547,536.11,660.11a3.58,3.58,0,0,1-3.61,2q-172.35-.07-344.69,0a3.53,3.53,0,0,1-3.57-2.06q-16.29-28.44-32.73-56.8Q81.72,482.4,11.89,361.56a3.51,3.51,0,0,1,.07-4.1Q94.57,214.53,177.07,71.53C179.85,66.73,182.86,62.06,185.22,57Zm92,469.66c13.86,0,27.35,0,40.84.06,2.1,0,3-.55,3.79-2.56q31.56-83.77,63.25-167.49,25.51-67.45,51-134.91c1.05-2.76,1-2.77-1.95-2.77-12.77,0-25.53,0-38.3,0-1.63,0-2.53.31-3.19,2.05q-15.18,40.5-30.53,80.92L287.63,499C284.19,508.11,280.78,517.22,277.22,526.68ZM498,466.2c.69-.37,1-.5,1.26-.67q67-43.39,134.09-86.77a2.81,2.81,0,0,0,1.31-2.8c0-9.86-.19-19.72.08-29.57.09-3.48-1-5.37-3.91-7.26q-65.22-42-130.27-84.23c-.74-.48-1.38-1.39-2.56-1.15,0,15.07,0,30.09,0,45.12,0,1.55.86,2.07,1.9,2.72l70.53,44.19c6.63,4.16,13.28,8.28,19.91,12.44,2,1.24,2,1.81.06,3.08-.26.18-.54.35-.82.52q-44.81,28.05-89.63,56.08a3.51,3.51,0,0,0-1.95,3.44c.08,10.5,0,21,0,31.51ZM216.74,253.38c-.71.41-1,.56-1.26.73Q148.75,297.33,82,340.51a3.39,3.39,0,0,0-1.79,3.31c.06,10.42.11,20.84,0,31.26a4.53,4.53,0,0,0,2.45,4.41q59.46,38.42,118.85,76.93c5,3.22,10,6.42,15.25,9.82v-2.77c0-14,0-28,0-41.93a3.87,3.87,0,0,0-2.1-3.83q-44.76-27.91-89.44-55.95c-3-1.88-3-2.07,0-3.95q44.8-28.06,89.64-56.1a3.53,3.53,0,0,0,1.91-3.44c-.08-14.14,0-28.28,0-42.42Z" transform="translate(-11.26 -57.02)"/>
    <path class="cls-2" d="M277.22,526.68c3.56-9.46,7-18.57,10.41-27.68l74.55-197q15.3-40.44,30.53-80.92c.66-1.74,1.56-2.05,3.19-2.05,12.77.06,25.53,0,38.3,0,3,0,3,0,1.95,2.77q-25.51,67.46-51,134.91-31.67,83.73-63.25,167.49c-.76,2-1.69,2.57-3.79,2.56C304.57,526.63,291.08,526.68,277.22,526.68Z" transform="translate(-11.26 -57.02)"/>
    <path class="cls-2" d="M498,466.2V452.85c0-10.5,0-21,0-31.51a3.51,3.51,0,0,1,1.95-3.44q44.83-28,89.63-56.08c.28-.17.56-.34.82-.52,1.9-1.27,1.91-1.84-.06-3.08-6.63-4.16-13.28-8.28-19.91-12.44l-70.53-44.19c-1-.65-1.91-1.17-1.9-2.72.07-15,0-30.05,0-45.12,1.18-.24,1.82.67,2.56,1.15Q565.7,297,630.84,339.13c2.94,1.89,4,3.78,3.91,7.26-.27,9.85-.11,19.71-.08,29.57a2.81,2.81,0,0,1-1.31,2.8q-67.07,43.35-134.09,86.77C499,465.7,498.7,465.83,498,466.2Z" transform="translate(-11.26 -57.02)"/>
    <path class="cls-2" d="M216.74,253.38v2.47c0,14.14,0,28.28,0,42.42a3.53,3.53,0,0,1-1.91,3.44q-44.85,28-89.64,56.1c-3,1.88-3,2.07,0,3.95q44.7,28,89.44,55.95a3.87,3.87,0,0,1,2.1,3.83c-.08,14,0,28,0,41.93v2.77c-5.28-3.4-10.27-6.6-15.25-9.82q-59.42-38.49-118.85-76.93a4.53,4.53,0,0,1-2.45-4.41c.14-10.42.09-20.84,0-31.26A3.39,3.39,0,0,1,82,340.51q66.75-43.15,133.47-86.4C215.74,253.94,216,253.79,216.74,253.38Z" transform="translate(-11.26 -57.02)"/>
  </g>
</svg>
