<svg id="Layer_1" data-name="Layer 1" xmlns="http://www.w3.org/2000/svg" width="9.61in" height="8.32in" viewBox="0 0 691.76 599.37">
  <defs>
    <style>
      .cls-1 {
        fill: #f1e317;
      }

      .cls-2 {
        fill: #020302;
      }
    </style>
  </defs>
  <g>
    <path class="cls-1" d="M13.53,357.6v-.48c.43-.67.89-1.32,1.29-2Q100.08,207.48,185.27,59.83a4,4,0,0,1,4.08-2.36q170.36.08,340.69,0a4,4,0,0,1,4.11,2.36Q619.32,207.49,704.63,355.1a3.53,3.53,0,0,1,0,4.11q-18.12,31.2-36.12,62.48-67.32,116.6-134.61,233.2a3.37,3.37,0,0,1-3.38,2q-170.82-.06-341.64,0a3.38,3.38,0,0,1-3.39-1.92Q103.27,512.35,20.92,369.82C18.54,365.7,16.52,361.35,13.53,357.6Zm502-80.12c15.22-13.43,30.32-26.77,45.48-40.05,1.24-1.09.57-1.66-.13-2.45-6.41-7.26-13.08-14.25-20.18-20.84-21.43-19.9-46.27-31.28-76-30.84-27.71.41-51.09,10.45-69.41,31.42C379.07,233.37,373,255.13,377,279.53c2.71,16.59,10.51,30.91,21,43.78,13.27,16.22,28.92,30.06,44.68,43.75,13.65,11.85,28.09,22.77,41.28,35.15,6.71,6.3,13.32,12.69,17.79,20.91,7,12.78,5.52,25.68-4.21,35.5-9.38,9.47-21,12.73-34,11.53-10.94-1-20-6.16-28-13.42-8.92-8.11-15.63-17.93-21.45-28.39-.76-1.38-1.27-1.54-2.64-.71q-24.69,15-49.48,29.78c-1.36.82-1.66,1.38-.86,2.9a190.74,190.74,0,0,0,14.81,24.05c14.89,20.29,33.78,35,58.41,41.52a126.19,126.19,0,0,0,63.8.32,91.69,91.69,0,0,0,54.58-37.69c10-14.46,14.53-30.76,15.13-48.25.72-20.68-4.28-39.7-16.06-56.86-10.15-14.78-23-26.9-36.56-38.49-21.06-18.07-42.73-35.42-62.79-54.64-4.5-4.31-9.09-8.57-12-14.22-5.05-9.74-3.45-18.87,4.91-25.85,8.87-7.4,19.17-8.17,29.91-5.55,10.25,2.5,18.43,8.6,25.87,15.8A132,132,0,0,1,515.55,277.48ZM313.24,316.54q0-61.21.05-122.43c0-2.23-.61-2.7-2.74-2.69q-28.69.14-57.38,0c-2.32,0-3,.4-3,2.91q.12,109,.07,218c0,8.39,0,16.79-.51,25.18-.46,7-.87,14.08-3.7,20.65s-8,10.21-15.33,10.29c-10.11.11-18.84-3.78-26.78-9.68a123.26,123.26,0,0,1-18.36-17.53c-1.09-1.23-1.63-1.38-2.87-.21q-21.24,20-42.6,39.79c-1.27,1.18-1.1,1.88-.09,3.06a174.45,174.45,0,0,0,13.27,14.19c27.88,26,60.65,37.15,98.29,29.81,29.57-5.76,48.85-24,56.37-53.56,4.59-18,5.2-36.53,5.28-55C313.35,385,313.24,350.79,313.24,316.54Z" transform="translate(-13.53 -57.47)"/>
    <path class="cls-2" d="M515.55,277.48a132,132,0,0,0-14.45-17c-7.44-7.2-15.62-13.3-25.87-15.8-10.74-2.62-21-1.85-29.91,5.55-8.36,7-10,16.11-4.91,25.85,2.93,5.65,7.52,9.91,12,14.22,20.06,19.22,41.73,36.57,62.79,54.64,13.51,11.59,26.41,23.71,36.56,38.49,11.78,17.16,16.78,36.18,16.06,56.86-.6,17.49-5.09,33.79-15.13,48.25a91.69,91.69,0,0,1-54.58,37.69,126.19,126.19,0,0,1-63.8-.32c-24.63-6.52-43.52-21.23-58.41-41.52a190.74,190.74,0,0,1-14.81-24.05c-.8-1.52-.5-2.08.86-2.9q24.78-14.82,49.48-29.78c1.37-.83,1.88-.67,2.64.71,5.82,10.46,12.53,20.28,21.45,28.39,8,7.26,17.09,12.41,28,13.42,13,1.2,24.61-2.06,34-11.53,9.73-9.82,11.17-22.72,4.21-35.5-4.47-8.22-11.08-14.61-17.79-20.91-13.19-12.38-27.63-23.3-41.28-35.15-15.76-13.69-31.41-27.53-44.68-43.75-10.52-12.87-18.32-27.19-21-43.78-4-24.4,2.08-46.16,18.37-64.81,18.32-21,41.7-31,69.41-31.42,29.68-.44,54.52,10.94,76,30.84,7.1,6.59,13.77,13.58,20.18,20.84.7.79,1.37,1.36.13,2.45C545.87,250.71,530.77,264.05,515.55,277.48Z" transform="translate(-13.53 -57.47)"/>
    <path class="cls-2" d="M313.24,316.54c0,34.25.11,68.5-.05,102.75-.08,18.48-.69,37-5.28,55-7.52,29.54-26.8,47.8-56.37,53.56-37.64,7.34-70.41-3.78-98.29-29.81A174.45,174.45,0,0,1,140,483.86c-1-1.18-1.18-1.88.09-3.06Q161.43,461,182.67,441c1.24-1.17,1.78-1,2.87.21a123.26,123.26,0,0,0,18.36,17.53c7.94,5.9,16.67,9.79,26.78,9.68,7.3-.08,12.48-3.63,15.33-10.29s3.24-13.64,3.7-20.65c.55-8.39.51-16.79.51-25.18q0-109-.07-218c0-2.51.7-2.92,3-2.91q28.68.14,57.38,0c2.13,0,2.75.46,2.74,2.69Q313.19,255.33,313.24,316.54Z" transform="translate(-13.53 -57.47)"/>
  </g>
</svg>
