<svg id="Layer_1" data-name="Layer 1" xmlns="http://www.w3.org/2000/svg" width="8.47in" height="8.47in" viewBox="0 0 609.97 609.98">
  <defs>
    <style>
      .cls-1 {
        fill: #fff;
      }
    </style>
  </defs>
  <path class="cls-1" d="M359.75,665H118.26c-32.7,0-57.9-21.6-62.92-54a51.72,51.72,0,0,1-.31-8q0-243,0-486a61.45,61.45,0,0,1,61.73-62Q360,55,603.24,55A61.46,61.46,0,0,1,665,116.51q0,243.5,0,487A61.46,61.46,0,0,1,603.24,665Q481.5,665,359.75,665Zm30.84-91.84v-6.9q0-75.24,0-150.49c0-9.69,1.86-18.71,6.84-27.21,10.29-17.55,33.06-26.47,52.27-20.07,19.86,6.61,32.27,24.21,32.3,46.19q.09,76.24,0,152.49V573h91.12c.09-1.68.22-3,.22-4.29,0-55.83.08-111.66-.08-167.49a103.34,103.34,0,0,0-2-21.82c-8.07-36.7-29.64-62.78-63.88-77.93-18.33-8.11-37.65-11.2-57.56-6.25-23.23,5.79-42.5,17.76-56.92,37.13a18.32,18.32,0,0,1-2.43,2.05V299.44H299.43v273.7ZM147,572.87h90.57V299.31H147ZM247,192c-.46-30-23.06-54.59-54.73-54.53s-54.88,23.82-54.78,54.92c.09,32.06,25,54.36,54.67,54.55A54.57,54.57,0,0,0,247,192Z" transform="translate(-55.02 -55.01)"/>
</svg>
