<svg id="Layer_1" data-name="Layer 1" xmlns="http://www.w3.org/2000/svg" width="9.75in" height="8.45in" viewBox="0 0 702.11 608.05">
  <defs>
    <style>
      .cls-1 {
        fill: #5eb350;
      }

      .cls-2 {
        fill: #3a2a27;
      }
    </style>
  </defs>
  <g>
    <polygon class="cls-1" points="526.59 0 175.53 0 0 304.02 175.53 608.05 526.59 608.05 702.11 304.02 526.59 0"/>
    <polygon class="cls-2" points="496.51 52.1 205.61 52.1 60.16 304.02 205.61 555.95 496.51 555.95 641.96 304.02 496.51 52.1"/>
    <ellipse class="cls-2" cx="355.44" cy="293.48" rx="248.53" ry="119.14"/>
    <path class="cls-1" d="M357.52,145.57c1.61,1.15,2.42,2.86,3.32,4.48,1.11,2,1.65,4.22,2.58,6.3A61.71,61.71,0,0,0,371.25,169c5,6.46,10.72,12.22,16.35,18.09q6.15,6.4,11.76,13.31,6.09,7.48,11.61,15.38c2.43,3.46,4.72,7,6.93,10.6q4.82,7.82,9.1,15.93c2,3.74,3.81,7.55,5.58,11.39q2.94,6.34,5.61,12.81c1.38,3.39,2.61,6.83,3.84,10.28q2,5.52,3.84,11.08c.7,2.09,1.32,4.22,1.89,6.35,1.53,5.67,2.95,11.36,4.14,17.12,1.49,7.18,2.54,14.42,3.35,21.7a211,211,0,0,1,1,33c-.1,2.4-.14,4.8-.39,7.2-.69,6.53-1.41,13-2.56,19.52-1.08,6-2.46,12-4,17.92a175.22,175.22,0,0,1-6.14,18.69,218.48,218.48,0,0,1-10.19,22.36,194.62,194.62,0,0,1-24,35.68,214.35,214.35,0,0,1-15,16.05c-2.73,2.61-5.57,5.12-8.34,7.69a49.09,49.09,0,0,1-5.58,4.79,11.73,11.73,0,0,1-4.47,2,2.38,2.38,0,0,0-1.88,1.64,75.66,75.66,0,0,0-5.4,22.35,177.27,177.27,0,0,0-.63,18.57,15.39,15.39,0,0,1-2.25,8.84,10.93,10.93,0,0,0-1.24,2.74,1.84,1.84,0,0,1-2.15,1.43,3.94,3.94,0,0,1-4-3.55c-.29-1.94-.4-3.9-.53-5.85-.33-4.8-1-9.55-1.36-14.35-.29-4.22-.88-8.42-1.28-12.63a28.48,28.48,0,0,0-6.22-15c-3.81-4.94-8.65-8.78-13.42-12.7a143.54,143.54,0,0,1-12.63-11.9q-5-5.26-9.78-10.77c-3.19-3.74-6.26-7.57-9.26-11.47s-5.91-8-8.66-12.16q-3.75-5.67-7.13-11.61c-2.59-4.54-5-9.19-7.28-13.88-1.25-2.54-2.38-5.14-3.47-7.76q-3.34-8-6.06-16.3c-.75-2.28-1.37-4.59-2-6.9-1.71-6.08-3.05-12.24-4.25-18.44-.39-2-.62-4.12-.94-6.18-1.05-6.63-1.43-13.32-2-20a170.73,170.73,0,0,1-.29-20.1c.22-5.68.72-11.36,1.27-17,.43-4.4,1-8.8,1.73-13.15,1-5.84,2.09-11.67,3.59-17.42.8-3.06,1.47-6.14,2.33-9.18,1.29-4.55,2.65-9.08,4.16-13.56,1.26-3.71,2.51-7.42,3.93-11.06,1.76-4.52,3.54-9,5.57-13.45,1.26-2.75,2.49-5.51,3.8-8.24,2.29-4.78,4.78-9.45,7.38-14.07q3.38-6,7.11-11.83c2.58-4,5.31-8,8.15-11.82,3-4.11,6.18-8.13,9.49-12,3.77-4.41,7.73-8.64,11.79-12.8s8.36-7.67,12.71-11.31a39.17,39.17,0,0,0,11.28-14.74,23.13,23.13,0,0,0,.84-2.72A4.21,4.21,0,0,1,357.52,145.57Z" transform="translate(-7.8 -55.5)"/>
  </g>
</svg>
