<svg id="Layer_1" data-name="Layer 1" xmlns="http://www.w3.org/2000/svg" width="9.25in" height="1.04in" viewBox="0 0 666.18 74.91">
  <defs>
    <style>
      .cls-1 {
        fill: #88743d;
      }

      .cls-2 {
        fill: #debb65;
      }
    </style>
  </defs>
  <g>
    <path class="cls-1" d="M633.11,407.56c-1.82,2-3.91,3.62-5.86,5.42-2.2,2-4.46,4-6.66,6a2.27,2.27,0,0,1-1.69.67q-6.3,0-12.59,0c-.72,0-1-.12-1.08-.95-.1-2.25-.32-4.49-.51-7L602.2,414c-1.87,1.68-3.75,3.35-5.59,5a2.14,2.14,0,0,1-1.58.65c-4.2,0-8.39,0-12.59,0-.88,0-1.15-.23-1.18-1.12,0-1.66-.23-3.32-.36-5-.61,0-.85.49-1.19.78a23.85,23.85,0,0,0-2,1.84c-2.59,2.87-6,3.71-9.67,4.07-.29,0-.66-.18-.84.24H564a14.49,14.49,0,0,0-3.21-.56c-4.8-1-9.53-3.26-12-9.89-1.51,1.34-3,2.66-4.45,4-1.83,1.65-3.68,3.29-5.49,5a2.41,2.41,0,0,1-1.8.72q-6.18-.06-12.35,0c-.85,0-1.23-.13-1.29-1.12-.41-6.75-.89-13.49-1.37-20.23a14.32,14.32,0,0,0-1-4.65,40,40,0,0,1-.59-9c.18-2.55,1.12-4.87,3.53-6.16,3.91-2.09,9.75-1.3,11,4.8.93,4.69.81,9.49,1.22,14.24q.4,4.51.66,9c0,.81.35,1,1.09,1,3.84,0,7.68,0,11.51,0,2.28,0,2,.24,1.86-1.88q-.66-11-1.47-22a23.13,23.13,0,0,0-4.43-12.89c-.37-1.64.28-2.73,1.57-3.83,3.93-3.36,7.72-6.88,11.57-10.34,0,.07.12.13.13.2.25,3.28.5,6.57.76,9.85,0,.63-.29.72-.8.72-1.4,0-2.8,0-4.19,0-.8,0-1.05.24-1,1q.31,4.28.54,8.56c.06,1.15.53,1.61,1.7,1.44a14,14,0,0,1,2.15,0c2.44,0,2.4,0,2.56,2.38.3,4.56.5,9.13,1,13.66.55,4.8,2.69,8.77,7,11.33,3.72,2.19,7.81,2.67,12,2.49a18.47,18.47,0,0,0,7.73-1.83c.63-.33.89-.65.56-1.39-1.27-2.92-2.49-5.85-3.72-8.79-.18-.45-.31-.65-.83-.32a6.82,6.82,0,0,1-4.49.88l-.86-13.51-3.5,3c-.17-2.29-.31-4.58-.52-6.87-.07-.86.24-1.09,1.07-1.07,2.39.05,4.78,0,7.17,0,.88,0,1.22-.18,1.14-1.12q-.4-4.5-.67-9c0-.76-.36-.9-1-.89-2.07,0-4.14,0-6.21,0a7.83,7.83,0,0,1,2.85-8.47c3.71-3.13,7.24-6.47,10.84-9.71.37.31,0,.58-.07.84a7.52,7.52,0,0,0-.33,4.68c.78,3.63,4.22,6.26,8.19,6.51a19.4,19.4,0,0,0,5.63-.74l-5.62,5.25c-1.68,0-3.36,0-5,0-.69,0-1,.21-.88.89.1.87.17,1.74.22,2.61.27,4,.5,7.93.78,11.89.37,5.3.77,10.61,1.15,15.91.23,3.25.49,6.49.69,9.74,0,.64.27.8.87.8q6.46,0,12.94,0c.61,0,.76-.13.71-.81-.32-4.24-.55-8.48-.83-12.72-.16-2.54-.35-5.07-.52-7.61L607,373.6l8.64-7.67a18.46,18.46,0,0,1,.43,3.63c.26,4.09.5,8.17.78,12.26.45,6.65.93,13.31,1.4,20,.11,1.58.24,3.17.33,4.75,0,.79.4,1,1.21,1C624.24,407.53,628.67,407.56,633.11,407.56Z" transform="translate(-26.91 -345.55)"/>
    <path class="cls-1" d="M333.05,406.85c-2.13,2.3-4.62,4.22-6.89,6.38-1.1,1-2.34,1.93-3.36,3-2.53,2.75-5.83,3.54-9.34,3.95-.35,0-.81-.22-1.07.25h-3.12c-.22-.44-.63-.22-.95-.25-5.7-.61-10.51-2.68-13.31-8-.31-.6-.51-.5-.93-.12-1.64,1.51-3.38,2.93-4.95,4.51-2.07,2.11-4.66,2.94-7.46,3.45-.87.15-1.81-.05-2.62.45h-3.12a17.58,17.58,0,0,0-3.66-.66c-7.17-1.52-11.63-6.39-12.42-13.66-.06-.59-.15-1.18-.23-1.77.52-.95,1.52-1.45,2.2-2.26.39-.45.45-.72,0-1.16-.91-.88-1.76-1.81-2.63-2.72v-2.94a4.89,4.89,0,0,0-1.61,1.25,16.88,16.88,0,0,1-2.9-2.64c-.37-.35-.62-.51-1.08-.09A12.57,12.57,0,0,1,243.52,397c-3.75-.31-6.85-1.81-8.72-5.25-.68-1.23-.57-1.38.83-1.38h27c.32,0,.64,0,1,0s.62-.21.64-.65a24,24,0,0,0-2.89-13.34,47.64,47.64,0,0,0-4-5.32c-.45-1.89.38-3.12,1.82-4.34,3.85-3.27,7.56-6.72,11.32-10.1.05.07.13.13.13.2.26,3.28.5,6.57.76,9.86.05.64-.3.71-.81.71-1.36,0-2.72.05-4.07,0-.95,0-1.18.3-1.1,1.17.14,1.43.18,2.86.28,4.29s.31,3.08.37,4.63c0,.84.44,1,1.14.94,1.35,0,2.71,0,4.07,0,.57,0,.87.1.91.77.12,2.22.23,4.44.47,6.66.35,3.31.22,6.67.92,10,1.11,5.12,3.83,8.93,8.8,11a21.29,21.29,0,0,0,6.62,1.45,21.82,21.82,0,0,0,11.1-1.76c.7-.33.94-.68.6-1.47-1.25-2.89-2.45-5.79-3.65-8.7-.22-.51-.41-.64-1-.32a5.78,5.78,0,0,1-3.54.87c-.13-1.83-.31-3.65-.36-5.48,0-.89-.39-1-1.16-1-1.16.06-2.32,0-3.48,0-.25-3.65-.49-7.29-.77-10.93-.06-.84.22-1.1,1.06-1.08,2.4.05,4.8,0,7.19,0,.88,0,1.21-.21,1.13-1.13-.21-2.69-.32-5.39-.54-8.08-.15-1.81-.21-1.81-2-1.81l-1.56,0,9.32-8.53c.82-.75,1.67-1.47,2.51-2.2.05.1.15.2.15.31.25,3.2.48,6.41.73,9.62.05.63-.18.84-.8.83-1.36,0-2.72,0-4.08,0-.78,0-1.17.13-1.1,1,.27,3,.49,6.09.68,9.14,0,.71.35.85,1,.84,1.32,0,2.64,0,4,0,.75,0,1.15.09,1.18,1,.07,2,.25,4,.43,5.94.33,3.51.25,7.07,1,10.54a14,14,0,0,0,6.82,9.91c4.66,2.65,9.69,2.93,14.84,2.15C330.07,407.65,331.55,407.2,333.05,406.85Z" transform="translate(-26.91 -345.55)"/>
    <path class="cls-1" d="M423.49,382.93l10.3-9.19c.28-.25.47-.66.93-.65a1.29,1.29,0,0,1-.11.45,19.85,19.85,0,0,0-3.27,14.53,21.34,21.34,0,0,0,9.06,15.24c6.48,4.64,13.8,5.86,21.53,4.39,5.84-1.11,10.39-4.15,12.83-9.82.34-.81.31-1.24-.58-1.66-2.52-1.19-5-2.49-7.49-3.75,0-2.92-.34-5.83-.57-9-.79.72-1.43,1.31-2.08,1.87-1.91,1.68-3.69,3.48-6.06,4.6-2.84,1.35-5.55,2.95-8.32,4.44a30,30,0,0,1-2.16-2.64A11.39,11.39,0,0,1,446,384a7.92,7.92,0,0,1,7.95-7.27c3.75-.06,6.45,1.79,8.39,4.84.43.66.75.72,1.43.35,2.87-1.58,5.77-3.09,8.66-4.62,1.44-.76,1.44-.75.6-2.21a19.47,19.47,0,0,0-8-7.49,3.24,3.24,0,0,1,1.4-3.33c3.76-3.26,7.4-6.64,11.1-10,.25-.23.44-.59.87-.57.09,1.86.17,3.73.3,5.59.37,5.23.77,10.45,1.13,15.68.29,4.08.5,8.16.79,12.24.44,6.42.94,12.83,1.36,19.24.05.83.27,1.07,1.1,1.07,4.28,0,8.55-.07,12.83,0,1.12,0,1.32-.37,1.25-1.37-.29-4-.52-7.92-.78-11.89-.16-2.37-.34-4.75-.5-7.12q-.45-6.54-.89-13.07l8.7-7.7c.2-.18.43-.34.65-.51a2,2,0,0,1,.17.44q.39,5.7.76,11.41c.26,4,.5,7.93.77,11.9.38,5.54.81,11.09,1.14,16.64.06,1,.28,1.27,1.29,1.26,4.43,0,8.87,0,13.3,0l-12.82,11.66a1.75,1.75,0,0,1-1.33.41c-4.23,0-8.47,0-12.71,0-.87,0-1.07-.32-1.11-1.1-.12-2.41-.3-4.82-.47-7.46a76,76,0,0,0-5.81,5.29,9.33,9.33,0,0,1-8.52,3.31,72.69,72.69,0,0,0-9,0c-1,0-1.42-.18-1.47-1.33-.18-3.93-.51-7.84-.79-11.76-.51-.08-.7.28-.94.5-2.73,2.45-5.52,4.84-8.16,7.38a20.57,20.57,0,0,1-13.8,5.77c-6.82.34-13.08-1.19-18.55-5.39a18.36,18.36,0,0,1-3.64-3.62c-.5-.68-.8-.63-1.38-.11-2.88,2.65-5.8,5.24-8.69,7.87a2.13,2.13,0,0,1-1.57.68q-6.06,0-12.11,0c-.84,0-1.06-.25-1.12-1.07-.35-5.24-.76-10.48-1.16-15.92-.69.59-1.26,1.06-1.8,1.55q-5.2,4.68-10.39,9.39a2.22,2.22,0,0,1-1.69.68c-1.64-.05-3.28-.06-4.91,0a1.53,1.53,0,0,1-1.55-.83c-.54-.88-1.19-1.7-1.72-2.59-.38-.63-.64-.59-1.16-.12-3,2.72-6,5.39-8.95,8.11a2.73,2.73,0,0,1-2,.8c-3.84,0-7.68-.08-11.51,0-1.2,0-1.46-.39-1.52-1.44-.21-3.78-.5-7.55-.76-11.32L347,383.47q-.58-8.57-1.18-17.14a1,1,0,0,1,.32-1c4.34-3.87,8.56-7.87,13-11.61q.49,7,1,14c.25,3.65.48,7.3.74,10.94.38,5.43.78,10.86,1.16,16.29q.39,5.7.75,11.41c.05.89.44,1.17,1.36,1.16,3.71-.05,7.43,0,11.14,0,1.79,0,1.75,0,1.6-1.8-.27-3.13-.47-6.26-.7-9.39-.21-2.93-.45-5.86-.65-8.79-.17-2.44-.3-4.88-.45-7.41a2.55,2.55,0,0,1,.89,1q5.83,8.6,11.68,17.2c.87,1.28,1.43,3.08,2.72,3.68s3.07.05,4.61.22,2.31-.46,3-1.81c3.45-6.77,7-13.5,10.53-20.24.15-.28.22-.65.65-.84.36,4.74.72,9.36,1.07,14,.33,4.47.66,9,1,13.43,0,.58.28.73.81.72q6.18,0,12.35,0c.65,0,.84-.25.8-.85-.1-1.35-.17-2.7-.27-4-.17-2.57-.34-5.15-.52-7.72C424.09,390.93,423.79,386.94,423.49,382.93Z" transform="translate(-26.91 -345.55)"/>
    <path class="cls-1" d="M121,407.57c-2.63,2.66-5.52,5.05-8.27,7.58-1.44,1.33-2.92,2.6-4.35,3.93a2,2,0,0,1-1.48.59c-4.4,0-8.79,0-13.19,0a1.36,1.36,0,0,1-1.43-.95c-1.58-3.38-3.25-6.72-4.8-10.12-.44-1-.71-.83-1.37-.23-3.92,3.57-7.88,7.09-11.8,10.66a2.3,2.3,0,0,1-1.71.63q-20.44,0-40.88,0c-1,0-1.15-.3-1.21-1.2-.66-9.88-1.37-19.76-2-29.63-.52-7.38-1-14.76-1.52-22.14a1.8,1.8,0,0,1,.59-1.68c4-3.6,8.07-7.24,12.1-10.87.2-.18.38-.42.7-.41l1,14q.6,8.63,1.19,17.24c.49,7.18,1,14.36,1.45,21.53.05.78.28,1,1.05,1q20.51,0,41,0c.72,0,1-.19.94-.94q-.39-5.06-.71-10.11c0-.58-.29-.74-.83-.73-1.4,0-2.8,0-4.2,0-.76-2.22-2-4.23-2.91-6.36-.2-.47-.42-.37-.7-.11-2.3,2.19-4.82,4.14-7,6.46l-11.27,0c-.63,0-1.17,0-1.21-.88q-.18-3.93-.5-7.86c-.07-.92.17-1.25,1.16-1.23,3,.06,5.92,0,8.87,0,4.24,0,8.48,0,12.71,0,.66,0,1,0,.89-.91-.27-3-.43-6.1-.57-9.16,0-.87-.22-1.34-1.23-1.26s-1.91,0-2.87,0L86,365.92c.07-.07.22-.07.33-.11a5.4,5.4,0,0,0,.18.57q9.66,20.21,19.29,40.4a1.28,1.28,0,0,0,1.41.78Q114.09,407.55,121,407.57Z" transform="translate(-26.91 -345.55)"/>
    <path class="cls-2" d="M423.49,382.93c.3,4,.6,8,.89,12,.18,2.57.35,5.15.52,7.72.1,1.35.17,2.7.27,4,0,.6-.15.85-.8.85q-6.18,0-12.35,0c-.53,0-.77-.14-.81-.72-.3-4.48-.63-9-1-13.43-.35-4.63-.71-9.25-1.07-14-.43.19-.5.56-.65.84C405,387,401.45,393.72,398,400.49c-.69,1.35-1.45,2-3,1.81s-3.32.37-4.61-.22-1.85-2.4-2.72-3.68q-5.85-8.59-11.68-17.2a2.55,2.55,0,0,0-.89-1c.15,2.53.28,5,.45,7.41.2,2.93.44,5.86.65,8.79.23,3.13.43,6.26.7,9.39.15,1.8.19,1.8-1.6,1.8-3.71,0-7.43,0-11.14,0-.92,0-1.31-.27-1.36-1.16q-.36-5.7-.75-11.41c-.38-5.43-.78-10.86-1.16-16.29-.26-3.64-.49-7.29-.74-10.94q-.48-7-1-14a3.3,3.3,0,0,1,1.76-.15c3.19,0,6.38,0,9.57,0a2,2,0,0,1,1.93,1.05q7.79,11.65,15.66,23.26c.17.26.39.49.58.73,1.3,2,2.59,4,4,6.08l3.65-6.95c3-5.74,6-11.48,9-17.24,1.07-2.08,2.27-4.1,3.13-6.28.18-.57.62-.64,1.13-.64,3.64,0,7.27,0,10.9,0,.82,0,1,.36,1.06,1.07q.62,9.21,1.26,18.43C423,376.36,423.25,379.65,423.49,382.93Z" transform="translate(-26.91 -345.55)"/>
    <path class="cls-2" d="M81.18,395.78c1.4,0,2.8,0,4.2,0,.54,0,.79.15.83.73q.32,5.06.71,10.11c.06.75-.22.94-.94.94q-20.52,0-41,0c-.77,0-1-.22-1.05-1-.46-7.17-1-14.35-1.45-21.53q-.59-8.62-1.19-17.24l-1-14a2.32,2.32,0,0,1,1.4-.16q19.51,0,39,0c1.16,0,1.64.17,1.68,1.49.09,3.21.41,6.42.63,9.63,0,.33.18.72-.18,1-.21-.25-.5-.21-.78-.21q-12.53,0-25.05,0c-.68,0-.92.21-.87.89.19,2.5.36,5,.49,7.49,0,.73.47.7,1,.7l15.58,0h3.34c1,0,1.92.08,2.87,0s1.19.39,1.23,1.26c.14,3.06.3,6.12.57,9.16.07.87-.23.91-.89.91-4.23,0-8.47,0-12.71,0-2.95,0-5.91,0-8.87,0-1,0-1.23.31-1.16,1.23q.32,3.93.5,7.86c0,.91.58.88,1.21.88l11.27,0Z" transform="translate(-26.91 -345.55)"/>
    <path class="cls-1" d="M130,382c3-2.71,6-5.43,9.06-8.12.28-.25.47-.74,1-.57.06.27-.1.45-.23.65a19.68,19.68,0,0,0-2.76,15.22c1.8,9.41,7.74,15.17,16.79,17.88a31.19,31.19,0,0,0,14.56.68,18.54,18.54,0,0,0,10.76-5.55c.43-.47.67-.81.08-1.37-2.42-2.31-4.81-4.66-7.2-7a.62.62,0,0,0-1,0c-3.36,3.11-7.39,3.72-11.71,2.94a9.58,9.58,0,0,1-7.08-5c-.67-1.24-.58-1.4.8-1.4h27.7c.59,0,1.06,0,1.07-.84a25.54,25.54,0,0,0-3.06-13.2,8.73,8.73,0,0,1-1.24-2.16c2.1-1.57,3.91-3.47,5.89-5.17,1.17-1,2.32-2,3.48-3.05a15.36,15.36,0,0,1,.4,3.76c.39,4.51.67,9,1,13.56.51,7.65,1,15.3,1.48,23,.06,1,.34,1.36,1.41,1.35,4.4-.05,8.79,0,13.19,0-3.62,3.3-7.32,6.51-10.82,9.93a7,7,0,0,1-5.81,2.21c-3.27-.2-6.56-.11-9.83,0-1.18,0-1.46-.39-1.52-1.45-.23-4.13-.53-8.25-.81-12.37-.42-.11-.59.23-.8.43-2.92,2.61-5.92,5.13-8.71,7.86-4.13,4-9.12,5.8-14.79,6.07-6,.3-11.72-.59-16.93-3.71a21.68,21.68,0,0,1-10.59-14.92c-.06-.31-.15-.62-.23-.93a3.84,3.84,0,0,1,.11-.59q3-8.62,5.92-17.24A6.11,6.11,0,0,1,130,382Z" transform="translate(-26.91 -345.55)"/>
    <path class="cls-2" d="M521.75,407.59c-4.43,0-8.87-.06-13.3,0-1,0-1.23-.3-1.29-1.26-.33-5.55-.76-11.1-1.14-16.64-.27-4-.51-7.93-.77-11.9q-.37-5.7-.76-11.41a2,2,0,0,0-.17-.44c.28-.33.67-.17,1-.17,3.92,0,7.83,0,11.74,0,1,0,1.33.37,1.36,1.27s.1,1.94.16,3.13c.69-.59,1.18-1,1.71-1.45a16.87,16.87,0,0,1,9.61-3.5c5-.3,9.59.69,13.54,3.91.68.55,1.32,1.13,2,1.7a23.13,23.13,0,0,1,4.43,12.89q.79,11,1.47,22c.13,2.12.42,1.88-1.86,1.88-3.83,0-7.67,0-11.51,0-.74,0-1-.16-1.09-1q-.25-4.51-.66-9c-.41-4.75-.29-9.55-1.22-14.24-1.22-6.1-7.06-6.89-11-4.8-2.41,1.29-3.35,3.61-3.53,6.16a40,40,0,0,0,.59,9,31.93,31.93,0,0,0,.16,4.69C521.38,401.44,521.81,404.5,521.75,407.59Z" transform="translate(-26.91 -345.55)"/>
    <path class="cls-2" d="M259.18,398.23c.87.91,1.72,1.84,2.63,2.72.46.44.4.71,0,1.16-.68.81-1.68,1.31-2.2,2.26l-.87.54-.34.26h0c-.21,0-.42,0-.49.26h0a9.29,9.29,0,0,0-2.3,1A29.86,29.86,0,0,1,239,407.7c-10.6-1.95-18.32-9.46-19.54-19.52-.6-5,0-9.76,2.83-14.08.25-.39.67-.7.65-1.24v0c.2-.05.24-.2.26-.37a22.5,22.5,0,0,1,15.48-7.35c6.77-.37,12.89,1.19,18.14,5.64a2.14,2.14,0,0,0,.53.24,47.64,47.64,0,0,1,4,5.32,24,24,0,0,1,2.89,13.34c0,.44-.19.66-.64.65s-.64,0-1,0h-27c-1.4,0-1.51.15-.83,1.38,1.87,3.44,5,4.94,8.72,5.25a12.57,12.57,0,0,0,10.07-3.18c.46-.42.71-.26,1.08.09a16.88,16.88,0,0,0,2.9,2.64A4.66,4.66,0,0,0,259.18,398.23Zm-17.34-15.57c2.51,0,5,0,7.54,0,.83,0,.94-.25.67-1a9.76,9.76,0,0,0-3.14-4.4c-3.74-2.95-11.47-2.71-13.24,4-.35,1.31-.32,1.37,1,1.37Z" transform="translate(-26.91 -345.55)"/>
    <path class="cls-2" d="M177.58,374.16a8.73,8.73,0,0,0,1.24,2.16,25.54,25.54,0,0,1,3.06,13.2c0,.87-.48.84-1.07.84h-27.7c-1.38,0-1.47.16-.8,1.4a9.58,9.58,0,0,0,7.08,5c4.32.78,8.35.17,11.71-2.94a.62.62,0,0,1,1,0c2.39,2.34,4.78,4.69,7.2,7,.59.56.35.9-.08,1.37a18.54,18.54,0,0,1-10.76,5.55,31.19,31.19,0,0,1-14.56-.68c-9-2.71-15-8.47-16.79-17.88A19.68,19.68,0,0,1,139.88,374c.13-.2.29-.38.23-.65v0c.26-.07.31-.25.26-.48h0a.22.22,0,0,0,.25-.25h0l.25-.29a22.14,22.14,0,0,1,14.67-7.14,25.41,25.41,0,0,1,17.33,4.43A35.42,35.42,0,0,1,177.58,374.16Zm-18.34,8.5c2.51,0,5,0,7.54,0,1,0,1.08-.31.75-1.13a10.29,10.29,0,0,0-1.51-2.69,8.85,8.85,0,0,0-9.34-3.06c-3.05.69-4.78,2.77-5.57,5.76-.26,1,.09,1.14.95,1.12C154.45,382.64,156.85,382.66,159.24,382.66Z" transform="translate(-26.91 -345.55)"/>
    <path class="cls-2" d="M651.85,372.51a22.14,22.14,0,0,1,13.69-7.19c7-.79,13.63.4,19.25,4.93A21.16,21.16,0,0,1,692.67,384a18.37,18.37,0,0,1,.22,6.36H664.28c-1.31,0-1.41.13-.86,1.22a8.65,8.65,0,0,0,3.23,3.6A13.38,13.38,0,0,0,682.14,394c.57-.49.88-.44,1.36.05.86.88,1.77,1.72,2.66,2.57,1.39,1.42,2.74,2.88,4.18,4.24.62.6.59,1,0,1.51a27.47,27.47,0,0,1-2.91,2.59l-.31.26h0c-.21,0-.41,0-.49.26h0c-.94.4-1.88.85-2.85,1.2a31.11,31.11,0,0,1-15.2,1.22c-10.23-1.45-19.12-8.78-20.44-19.7-.59-4.92,0-9.59,2.72-13.86.23-.35.63-.65.47-1.17h0c.18,0,.25-.08.25-.25v0C651.78,372.84,651.82,372.67,651.85,372.51Zm18.76,10.15c2.47,0,4.94,0,7.42,0,.85,0,1.05-.22.74-1A9.06,9.06,0,0,0,675.2,377c-4.47-2.86-11.59-1.68-12.91,4.72-.16.78,0,1,.77,1C665.58,382.64,668.09,382.66,670.61,382.66Z" transform="translate(-26.91 -345.55)"/>
    <path class="cls-2" d="M466.69,392.47c2.5,1.26,5,2.56,7.49,3.75.89.42.92.85.58,1.66-2.44,5.67-7,8.71-12.83,9.82-7.73,1.47-15.05.25-21.53-4.39a21.34,21.34,0,0,1-9.06-15.24,19.85,19.85,0,0,1,3.27-14.53,1.29,1.29,0,0,0,.11-.45v0c.19-.05.23-.21.26-.37a22.55,22.55,0,0,1,13.24-7.23c5.78-.92,11.44-.54,16.79,2.09a19.47,19.47,0,0,1,8,7.49c.84,1.46.84,1.45-.6,2.21-2.89,1.53-5.79,3-8.66,4.62-.68.37-1,.31-1.43-.35-1.94-3.05-4.64-4.9-8.39-4.84A7.92,7.92,0,0,0,446,384a11.39,11.39,0,0,0,1.51,7.77,30,30,0,0,0,2.16,2.64,8.6,8.6,0,0,0,7.93,1.87,7.19,7.19,0,0,0,5.45-4.78v0l.25-.36c.43-.35.74.06,1.06.2C465.14,391.71,465.91,392.1,466.69,392.47Z" transform="translate(-26.91 -345.55)"/>
    <path class="cls-2" d="M130,382a6.11,6.11,0,0,0-.45.83q-3,8.63-5.92,17.24a3.84,3.84,0,0,0-.11.59c-.69,1.95-1.38,3.91-2.08,5.86-.13.37-.16.77-.5,1q-6.89,0-13.78,0a1.28,1.28,0,0,1-1.41-.78q-9.62-20.2-19.29-40.4a5.4,5.4,0,0,1-.18-.57c4.71,0,9.42,0,14.12-.08.69,0,.86.44,1.08.91q3,6.44,6,12.87l5.27,11.61c.26-.66.39-.94.49-1.23q3.6-10.5,7.17-21a6.91,6.91,0,0,0,.78-2.73v0l.22-.22c.31-.37.74-.22,1.12-.22,3.9,0,7.81,0,11.71,0,1.06,0,1.18.26.84,1.2-1.62,4.59-3.19,9.21-4.78,13.82A2.78,2.78,0,0,0,130,382Z" transform="translate(-26.91 -345.55)"/>
    <path class="cls-2" d="M333.05,406.85c-1.5.35-3,.8-4.5,1-5.15.78-10.18.5-14.84-2.15a14,14,0,0,1-6.82-9.91c-.72-3.47-.64-7-1-10.54-.18-2-.36-4-.43-5.94,0-.91-.43-1-1.18-1-1.32.05-2.64,0-4,0-.62,0-.93-.13-1-.84-.19-3-.41-6.1-.68-9.14-.07-.91.32-1.07,1.1-1,1.36,0,2.72,0,4.08,0,.62,0,.85-.2.8-.83-.25-3.21-.48-6.42-.73-9.62,0-.11-.1-.21-.15-.31.28-.33.67-.19,1-.19,4.19,0,8.38,0,12.57,0,.94,0,1.23.26,1.26,1.2.11,2.78.35,5.55.49,8.33.06,1.05.37,1.51,1.56,1.45,2.39-.11,4.79,0,7.18,0,.67,0,1,.22,1,.86q.3,4.88.59,9.76a1.2,1.2,0,0,1-.14.43c-2.7,0-5.4,0-8.1-.06-1,0-1.22.34-1.14,1.24.21,2.24.35,4.49.51,6.73s.26,4.2.46,6.29c.31,3.15,2.9,4.85,6.25,4.12a4.37,4.37,0,0,0,1.57-.54c.95-.67,1.31-.38,1.7.62,1.08,2.73,2.24,5.43,3.41,8.12.35.8.32,1.36-.57,1.68-.16,0-.34,0-.37.26Z" transform="translate(-26.91 -345.55)"/>
    <path class="cls-2" d="M292,367.34l1.56,0c1.81,0,1.87,0,2,1.81.22,2.69.33,5.39.54,8.08.08.92-.25,1.15-1.13,1.13-2.39-.06-4.79,0-7.19,0-.84,0-1.12.24-1.06,1.08.28,3.64.52,7.28.77,10.93.08.86.1,1.74.23,2.59a4.38,4.38,0,0,0,4.77,3.85,5.78,5.78,0,0,0,3.54-.87c.55-.32.74-.19,1,.32,1.2,2.91,2.4,5.81,3.65,8.7.34.79.1,1.14-.6,1.47a21.82,21.82,0,0,1-11.1,1.76,21.29,21.29,0,0,1-6.62-1.45c-5-2.06-7.69-5.87-8.8-11-.7-3.28-.57-6.64-.92-10-.24-2.22-.35-4.44-.47-6.66,0-.67-.34-.78-.91-.77-1.36,0-2.72,0-4.07,0-.7,0-1.11-.1-1.14-.94-.06-1.55-.26-3.09-.37-4.63s-.14-2.86-.28-4.29c-.08-.87.15-1.22,1.1-1.17,1.35.08,2.71,0,4.07,0,.51,0,.86-.07.81-.71-.26-3.29-.5-6.58-.76-9.86,0-.07-.08-.13-.13-.2.25-.31.59-.18.89-.18,4.23,0,8.46,0,12.69,0,1,0,1.22.35,1.26,1.24.14,2.89.37,5.78.51,8.68,0,.82.33,1.09,1.15,1.06C288.62,367.31,290.29,367.34,292,367.34Z" transform="translate(-26.91 -345.55)"/>
    <path class="cls-2" d="M579.71,396.77a6.82,6.82,0,0,0,4.49-.88c.52-.33.65-.13.83.32,1.23,2.94,2.45,5.87,3.72,8.79.33.74.07,1.06-.56,1.39a18.47,18.47,0,0,1-7.73,1.83c-4.19.18-8.28-.3-12-2.49-4.34-2.56-6.48-6.53-7-11.33-.51-4.53-.71-9.1-1-13.66-.16-2.38-.12-2.38-2.56-2.38a14,14,0,0,0-2.15,0c-1.17.17-1.64-.29-1.7-1.44q-.22-4.29-.54-8.56c-.06-.79.19-1.06,1-1,1.39,0,2.79,0,4.19,0,.51,0,.85-.09.8-.72-.26-3.28-.51-6.57-.76-9.85,0-.07-.09-.13-.13-.2.28-.33.67-.18,1-.18,4.15,0,8.3,0,12.46,0,1,0,1.33.23,1.37,1.24.11,2.74.39,5.47.48,8.21,0,1.16.32,1.74,1.57,1.51a4.69,4.69,0,0,1,.84,0c2.07,0,4.14,0,6.21,0,.68,0,1,.13,1,.89q.27,4.51.67,9c.08.94-.26,1.14-1.14,1.12-2.39-.05-4.78,0-7.17,0-.83,0-1.14.21-1.07,1.07.21,2.29.35,4.58.52,6.87s.25,4.34.47,6.5A4.3,4.3,0,0,0,579.71,396.77Z" transform="translate(-26.91 -345.55)"/>
    <path class="cls-1" d="M222.9,372.86c0,.54-.4.85-.65,1.24-2.81,4.32-3.43,9.1-2.83,14.08,1.22,10.06,8.94,17.57,19.54,19.52a29.86,29.86,0,0,0,16.7-1.32,9.29,9.29,0,0,1,2.3-1c.05.46-.37.57-.61.79-3,2.68-6,5.26-8.86,8-4.08,4-9,5.7-14.59,6-6.28.33-12.23-.7-17.66-4.08-9.93-6.19-13.48-19.69-7.72-29.42a24.65,24.65,0,0,1,5.16-5.76c2.83-2.52,5.64-5.07,8.45-7.6C222.36,373.16,222.52,372.84,222.9,372.86Z" transform="translate(-26.91 -345.55)"/>
    <path class="cls-1" d="M651.35,373.1c.16.52-.24.82-.47,1.17-2.71,4.27-3.31,8.94-2.72,13.86,1.32,10.92,10.21,18.25,20.44,19.7a31.11,31.11,0,0,0,15.2-1.22c1-.35,1.91-.8,2.85-1.2.13.47-.32.57-.54.78-3.37,3.06-6.72,6.12-10.13,9.14-3.89,3.44-8.6,4.68-13.67,4.91-7,.33-13.58-1.08-19.27-5.46-8.91-6.85-11.22-20.18-5.09-29.14a28.31,28.31,0,0,1,4.54-4.74l8.09-7.28C650.81,373.41,651,373.12,651.35,373.1Z" transform="translate(-26.91 -345.55)"/>
    <path class="cls-2" d="M495,374.13q.45,6.53.89,13.07c.16,2.37.34,4.75.5,7.12.26,4,.49,7.93.78,11.89.07,1-.13,1.39-1.25,1.37-4.28-.08-8.55-.05-12.83,0-.83,0-1.05-.24-1.1-1.07-.42-6.41-.92-12.82-1.36-19.24-.29-4.08-.5-8.16-.79-12.24-.36-5.23-.76-10.45-1.13-15.68-.13-1.86-.21-3.73-.3-5.59a2.67,2.67,0,0,1,.68-.15c4.51,0,9,0,13.53,0,.73,0,.93.23,1,.95.26,4,.58,8,.87,12C494.62,369.06,494.8,371.59,495,374.13Z" transform="translate(-26.91 -345.55)"/>
    <path class="cls-2" d="M633.11,407.56c-4.44,0-8.87,0-13.31,0-.81,0-1.16-.24-1.21-1-.09-1.58-.22-3.17-.33-4.75-.47-6.66-1-13.32-1.4-20-.28-4.09-.52-8.17-.78-12.26a18.46,18.46,0,0,0-.43-3.63c.25-.32.59-.18.89-.18,4,0,8.07,0,12.11,0,.92,0,1.15.3,1.15,1.16,0,1.05.15,2.11.26,3.32.58-.47,1.08-.84,1.54-1.26,3.16-2.89,7.07-3.65,11.17-3.88.51,0,.86.06.88.66.15,4.17.73,8.31.72,12.49-1.39,0-2.79-.12-4.17-.07-6.44.26-9.21,5-8,11.25-.06,3.61.45,7.18.6,10.77A63.11,63.11,0,0,1,633.11,407.56Z" transform="translate(-26.91 -345.55)"/>
    <path class="cls-2" d="M204.4,407.57c-4.4,0-8.79-.05-13.19,0-1.07,0-1.35-.35-1.41-1.35-.46-7.66-1-15.31-1.48-23-.3-4.52-.58-9.05-1-13.56a15.36,15.36,0,0,0-.4-3.76c.28-.33.67-.19,1-.19,4,0,7.91,0,11.87,0,1,0,1.26.31,1.25,1.23s.14,2.05.22,3.11a2.35,2.35,0,0,0,1.2-.83c3.25-3.05,7.27-4,11.56-4.18.53,0,.83.08.87.68.25,4.09.52,8.18.78,12.27a1.28,1.28,0,0,1-.17.41,12.82,12.82,0,0,0-5-.22,7.57,7.57,0,0,0-7.15,6.27,20.25,20.25,0,0,0-.14,5c.37,5.1.74,10.19,1.08,15.29C204.43,405.67,204.39,406.62,204.4,407.57Z" transform="translate(-26.91 -345.55)"/>
    <path class="cls-2" d="M607,373.6l.87,12.82c.17,2.54.36,5.07.52,7.61.28,4.24.51,8.48.83,12.72,0,.68-.1.81-.71.81q-6.48,0-12.94,0c-.6,0-.83-.16-.87-.8-.2-3.25-.46-6.49-.69-9.74-.38-5.3-.78-10.61-1.15-15.91-.28-4-.51-7.93-.78-11.89-.05-.87-.12-1.74-.22-2.61-.07-.68.19-.91.88-.89,1.67,0,3.35,0,5,0,2.51,0,5,.06,7.54,0,.84,0,1.18.16,1.21,1.1C606.61,369.08,606.84,371.34,607,373.6Z" transform="translate(-26.91 -345.55)"/>
    <path class="cls-2" d="M603.4,360.45a19.4,19.4,0,0,1-5.63.74c-4-.25-7.41-2.88-8.19-6.51a7.52,7.52,0,0,1,.33-4.68c.12-.26.44-.53.07-.84,3.75-3.93,9.43-4.75,13.66-2a7.58,7.58,0,0,1,1.19,12c-.37.36-.77.68-1.15,1l-.3.27Z" transform="translate(-26.91 -345.55)"/>
    <path class="cls-1" d="M73.22,374.51l-15.58,0c-.51,0-.94,0-1-.7-.13-2.5-.3-5-.49-7.49-.05-.68.19-.89.87-.89q12.52,0,25.05,0c.28,0,.57,0,.78.21l-8.66,7.82C73.86,373.81,73.54,374.17,73.22,374.51Z" transform="translate(-26.91 -345.55)"/>
    <path class="cls-1" d="M408.41,354.22c-.86,2.18-2.06,4.2-3.13,6.28-3,5.76-6,11.5-9,17.24l-3.65,6.95-4-6.08c2-3.75,4-7.5,5.9-11.28a10,10,0,0,1,2.22-2.89c3.54-3.15,7-6.34,10.56-9.5C407.67,354.66,407.91,354.24,408.41,354.22Z" transform="translate(-26.91 -345.55)"/>
    <path class="cls-1" d="M686.16,396.57c-.89-.85-1.8-1.69-2.66-2.57-.48-.49-.79-.54-1.36-.05a13.38,13.38,0,0,1-15.49,1.23,8.65,8.65,0,0,1-3.23-3.6c-.55-1.09-.45-1.22.86-1.22h28.61C690.81,392.61,688.42,394.52,686.16,396.57Z" transform="translate(-26.91 -345.55)"/>
    <path class="cls-1" d="M121.19,366.17a6.91,6.91,0,0,1-.78,2.73q-3.55,10.5-7.17,21c-.1.29-.23.57-.49,1.23l-5.27-11.61a6.41,6.41,0,0,1,2.3-3.22c3.6-3.19,7.16-6.43,10.74-9.65A8,8,0,0,1,121.19,366.17Z" transform="translate(-26.91 -345.55)"/>
    <path class="cls-1" d="M203.28,389.44a20.25,20.25,0,0,1,.14-5,7.57,7.57,0,0,1,7.15-6.27,12.82,12.82,0,0,1,5,.22C211.53,382.17,207.46,385.86,203.28,389.44Z" transform="translate(-26.91 -345.55)"/>
    <path class="cls-1" d="M632.16,389.39c-1.17-6.25,1.6-11,8-11.25,1.38-.05,2.78,0,4.17.07a25,25,0,0,1-3.61,3.44C637.92,384.26,635,386.81,632.16,389.39Z" transform="translate(-26.91 -345.55)"/>
    <path class="cls-1" d="M320.58,386.3c-.16-2.24-.3-4.49-.51-6.73-.08-.9.13-1.27,1.14-1.24,2.7.08,5.4.05,8.1.06C326.49,381.13,323.54,383.72,320.58,386.3Z" transform="translate(-26.91 -345.55)"/>
    <path class="cls-1" d="M140.38,372.87c.05.23,0,.41-.26.48C139.86,373,140.14,373,140.38,372.87Z" transform="translate(-26.91 -345.55)"/>
    <path class="cls-1" d="M686.63,405.42c.08-.24.28-.27.49-.26C687,405.34,686.94,405.62,686.63,405.42Z" transform="translate(-26.91 -345.55)"/>
    <path class="cls-1" d="M257.94,405.42c.07-.26.28-.27.49-.26C258.32,405.35,258.22,405.55,257.94,405.42Z" transform="translate(-26.91 -345.55)"/>
    <path class="cls-1" d="M223.15,372.51c0,.17-.06.32-.26.37C222.87,372.68,223,372.59,223.15,372.51Z" transform="translate(-26.91 -345.55)"/>
    <path class="cls-1" d="M651.6,372.86c0,.17-.07.27-.25.25C651.33,372.93,651.43,372.86,651.6,372.86Z" transform="translate(-26.91 -345.55)"/>
    <path class="cls-1" d="M435,372.75c0,.16-.07.32-.26.37C434.66,372.89,434.84,372.83,435,372.75Z" transform="translate(-26.91 -345.55)"/>
    <path class="cls-1" d="M651.85,372.51c0,.16-.07.33-.26.37Z" transform="translate(-26.91 -345.55)"/>
    <path class="cls-1" d="M140.62,372.63a.22.22,0,0,1-.25.25A.24.24,0,0,1,140.62,372.63Z" transform="translate(-26.91 -345.55)"/>
    <path class="cls-1" d="M140.86,372.35l-.25.29Z" transform="translate(-26.91 -345.55)"/>
    <path class="cls-1" d="M121.4,366l-.22.22Z" transform="translate(-26.91 -345.55)"/>
    <path class="cls-1" d="M603.38,360.47l.3-.27Z" transform="translate(-26.91 -345.55)"/>
    <path class="cls-1" d="M258.41,405.17l.34-.26Z" transform="translate(-26.91 -345.55)"/>
    <path class="cls-1" d="M687.11,405.17l.31-.26Z" transform="translate(-26.91 -345.55)"/>
    <path class="cls-1" d="M333,406.85c0-.22.21-.23.37-.26C333.32,406.74,333.23,406.87,333,406.85Z" transform="translate(-26.91 -345.55)"/>
    <path class="cls-1" d="M241.84,382.66h-7.18c-1.31,0-1.34-.06-1-1.37,1.77-6.7,9.5-6.94,13.24-4a9.76,9.76,0,0,1,3.14,4.4c.27.72.16,1-.67,1C246.87,382.64,244.35,382.66,241.84,382.66Z" transform="translate(-26.91 -345.55)"/>
    <path class="cls-1" d="M159.24,382.66c-2.39,0-4.79,0-7.18,0-.86,0-1.21-.09-.95-1.12.79-3,2.52-5.07,5.57-5.76a8.85,8.85,0,0,1,9.34,3.06,10.29,10.29,0,0,1,1.51,2.69c.33.82.22,1.15-.75,1.13C164.27,382.63,161.75,382.66,159.24,382.66Z" transform="translate(-26.91 -345.55)"/>
    <path class="cls-1" d="M670.61,382.66c-2.52,0-5,0-7.55,0-.77,0-.93-.2-.77-1,1.32-6.4,8.44-7.58,12.91-4.72a9.06,9.06,0,0,1,3.57,4.66c.31.82.11,1.05-.74,1C675.55,382.64,673.08,382.66,670.61,382.66Z" transform="translate(-26.91 -345.55)"/>
    <path class="cls-1" d="M457.59,396.29a46.74,46.74,0,0,1,5.45-4.78A7.19,7.19,0,0,1,457.59,396.29Z" transform="translate(-26.91 -345.55)"/>
    <path class="cls-1" d="M463,391.53c0-.21.11-.28.25-.36Z" transform="translate(-26.91 -345.55)"/>
  </g>
</svg>
