<svg id="Layer_1" data-name="Layer 1" xmlns="http://www.w3.org/2000/svg" width="9.46in" height="8.2in" viewBox="0 0 680.9 590.48">
  <defs>
    <style>
      .cls-1 {
        fill: #1e1f1e;
      }

      .cls-2 {
        fill: #8ec646;
      }
    </style>
  </defs>
  <g>
    <path class="cls-1" d="M189.62,64.54H530.86c-.22.75.38,1.2.68,1.73q49,84.89,98,169.77Q664.76,297,700,358a3.15,3.15,0,0,1,0,3.7c-3.77,6.35-7.42,12.78-11.12,19.18Q610.34,516.9,531.82,653a3.5,3.5,0,0,1-3.53,2.06q-168.18-.07-336.37,0a3.33,3.33,0,0,1-3.38-1.92q-17.92-31.27-36-62.45Q86.45,476.22,20.32,361.81a3.5,3.5,0,0,1,.08-4.09c8-13.68,15.89-27.4,23.81-41.11Q105.58,210.32,166.92,104,178.31,84.31,189.62,64.54ZM491.31,321.18c0-25.16,0-50.32,0-75.48a8.67,8.67,0,0,0-5-8.37C477,232.2,467.65,227,458.3,221.74c-5.3-3-7.19-1.89-7.19,4.08q-.06,39.3-.12,78.62c0,3.63-1.25,4.31-4.47,2.51-3.65-2.05-7.32-4.09-10.87-6.3-3.16-2-6.08-1.86-9.27,0q-25.58,14.85-51.27,29.54a8.22,8.22,0,0,0-4.48,7.88q.06,29.52,0,59a8.27,8.27,0,0,0,4.51,7.88q25.56,14.65,51,29.46a8.91,8.91,0,0,0,9.76-.05q25-14.49,50-28.82a9.75,9.75,0,0,0,5.41-9.4C491.25,371.18,491.31,346.18,491.31,321.18ZM344.07,366.7c0-10,0-20,0-30a7.53,7.53,0,0,0-4.15-7.07q-25.65-14.72-51.24-29.56a8.43,8.43,0,0,0-9.3,0c-8.39,4.94-16.85,9.76-25.29,14.62s-16.71,9.7-25.13,14.41a8.91,8.91,0,0,0-5,8.67c0,1.61.1,3.22.1,4.83q0,26.73,0,53.45c0,3.43,1.21,6.07,4.26,7.82q25.41,14.65,50.81,29.35a9,9,0,0,0,10-.15c16.49-10.06,33.31-19.54,50.2-28.91a8.46,8.46,0,0,0,4.76-8.23C344,386.22,344.07,376.46,344.07,366.7ZM76.84,375.91q0,20.82,0,41.62c0,3.15,2.32,4.59,5.22,3.26.43-.2.87-.41,1.29-.65,9.78-5.59,19.56-11.21,29.36-16.78a8.05,8.05,0,0,0,4.38-7.7c-.09-12,0-24-.06-36.05a8.05,8.05,0,0,1,4.59-7.83c3.69-2,7.34-4,10.89-6.25a7.9,7.9,0,0,1,9.24,0,60.57,60.57,0,0,0,8.57,4.94c5.4,2.31,7.1,6.22,6.95,11.9-.31,11.28-.12,22.57-.13,33.86a7,7,0,0,0,3.43,6.53q15.67,9,31.45,17.95c2.88,1.61,5.12.16,5.21-3.15.09-3.06.12-6.12.12-9.18,0-23.47-.05-46.94.12-70.4,0-5-1.83-8.12-6.1-10.52Q167,313.69,142.79,299.58c-3.9-2.26-7.4-2.34-11.31,0-10.18,6-20.48,11.84-30.73,17.75-6.7,3.86-13.39,7.71-20.06,11.61A7.3,7.3,0,0,0,76.76,336C77,349.3,76.84,362.61,76.84,375.91Zm481-9.32c0-2.66.09-5.32,0-8a5.19,5.19,0,0,1,3-5.27q7-3.83,13.79-8a5.51,5.51,0,0,1,6.3,0c4.55,2.74,9.14,5.42,13.79,8a5.35,5.35,0,0,1,3,5.5c-.16,4.18-.16,8.39,0,12.57.16,3.81,2.46,5.12,5.7,3.26,10.48-6,20.89-12.11,31.32-18.2a6.92,6.92,0,0,0,3.52-6.45c0-4.11-.14-8.23,0-12.33s-1.49-6.67-4.93-8.65q-25-14.38-49.92-29a9.34,9.34,0,0,0-10.39,0Q548,314.74,522.69,329.15c-3.42,2-5,4.73-4.76,8.51.43,7,.21,14,.19,21,0,12.42.3,24.83-.2,37.24a8.31,8.31,0,0,0,4.44,8.21c16.68,9.41,33.36,18.83,49.95,28.42,3.92,2.26,7.32,2.33,11.26.05,9.33-5.41,18.83-10.51,28.25-15.76a10.3,10.3,0,0,0,2.18-1.5,3,3,0,0,0-.14-4.82,15.21,15.21,0,0,0-2.25-1.41q-25.14-14.4-50.3-28.77c-2.44-1.39-3.68-3.14-3.49-6C558,371.76,557.86,369.17,557.86,366.59Zm32,.47c-.55-2.6.74-6.41-2.9-8.77-3-1.92-5.66-4.62-9.55-3.91-6.79,1.25-11.78,5.39-11.07,13.53.49,5.58,6.85,11.15,12.33,10.7C584.8,378.09,590.23,372.83,589.82,367.06Z" transform="translate(-19.7 -64.54)"/>
    <path class="cls-2" d="M491.31,321.18c0,25-.06,50,.05,75a9.75,9.75,0,0,1-5.41,9.4q-25.08,14.31-50,28.82a8.91,8.91,0,0,1-9.76.05q-25.47-14.79-51-29.46a8.27,8.27,0,0,1-4.51-7.88q.06-29.52,0-59a8.22,8.22,0,0,1,4.48-7.88q25.69-14.69,51.27-29.54c3.19-1.86,6.11-2,9.27,0,3.55,2.21,7.22,4.25,10.87,6.3,3.22,1.8,4.46,1.12,4.47-2.51q.08-39.31.12-78.62c0-6,1.89-7,7.19-4.08,9.35,5.22,18.69,10.46,28.08,15.59a8.67,8.67,0,0,1,5,8.37C491.27,270.86,491.31,296,491.31,321.18Zm-80.44,46.2c0,3.06.06,6.13,0,9.19a3.73,3.73,0,0,0,2.06,3.74q8.1,4.57,16.11,9.27a3.29,3.29,0,0,0,3.62.09q8.14-4.76,16.31-9.42a3.7,3.7,0,0,0,2-3.56c0-6.13-.09-12.25-.08-18.38a3.46,3.46,0,0,0-1.84-3.37c-5.46-3.11-10.91-6.23-16.32-9.41a3.39,3.39,0,0,0-3.81.07q-8,4.69-16.11,9.28a3.56,3.56,0,0,0-2,3.55C410.93,361.41,410.87,364.4,410.87,367.38Z" transform="translate(-19.7 -64.54)"/>
    <path class="cls-2" d="M344.07,366.7c0,9.76-.08,19.52,0,29.27a8.46,8.46,0,0,1-4.76,8.23c-16.89,9.37-33.71,18.85-50.2,28.91a9,9,0,0,1-10,.15q-25.4-14.7-50.81-29.35c-3.05-1.75-4.27-4.39-4.26-7.82q0-26.71,0-53.45c0-1.61-.06-3.22-.1-4.83a8.91,8.91,0,0,1,5-8.67c8.42-4.71,16.76-9.59,25.13-14.41s16.9-9.68,25.29-14.62a8.43,8.43,0,0,1,9.3,0q25.57,14.85,51.24,29.56a7.53,7.53,0,0,1,4.15,7.07C344.05,346.71,344.07,356.71,344.07,366.7Z" transform="translate(-19.7 -64.54)"/>
    <path class="cls-2" d="M76.84,375.91c0-13.3.13-26.61-.08-39.91a7.3,7.3,0,0,1,3.93-7.09c6.67-3.9,13.36-7.75,20.06-11.61,10.25-5.91,20.55-11.74,30.73-17.75,3.91-2.31,7.41-2.23,11.31,0q24.21,14.09,48.59,27.88c4.27,2.4,6.14,5.56,6.1,10.52-.17,23.46-.09,46.93-.12,70.4,0,3.06,0,6.12-.12,9.18-.09,3.31-2.33,4.76-5.21,3.15q-15.79-8.86-31.45-17.95a7,7,0,0,1-3.43-6.53c0-11.29-.18-22.58.13-33.86.15-5.68-1.55-9.59-6.95-11.9a60.57,60.57,0,0,1-8.57-4.94,7.9,7.9,0,0,0-9.24,0c-3.55,2.21-7.2,4.28-10.89,6.25a8.05,8.05,0,0,0-4.59,7.83c.06,12,0,24,.06,36.05a8.05,8.05,0,0,1-4.38,7.7c-9.8,5.57-19.58,11.19-29.36,16.78-.42.24-.86.45-1.29.65-2.9,1.33-5.22-.11-5.22-3.26Q76.84,396.73,76.84,375.91Z" transform="translate(-19.7 -64.54)"/>
    <path class="cls-2" d="M557.86,366.59c0,2.58.13,5.17,0,7.73-.19,2.88,1,4.63,3.49,6q25.19,14.32,50.3,28.77a15.21,15.21,0,0,1,2.25,1.41,3,3,0,0,1,.14,4.82,10.3,10.3,0,0,1-2.18,1.5c-9.42,5.25-18.92,10.35-28.25,15.76-3.94,2.28-7.34,2.21-11.26-.05-16.59-9.59-33.27-19-49.95-28.42a8.31,8.31,0,0,1-4.44-8.21c.5-12.41.15-24.82.2-37.24,0-7,.24-14-.19-21-.23-3.78,1.34-6.55,4.76-8.51q25.27-14.41,50.42-29.07a9.34,9.34,0,0,1,10.39,0q24.88,14.63,49.92,29c3.44,2,5.1,4.64,4.93,8.65s0,8.22,0,12.33a6.92,6.92,0,0,1-3.52,6.45c-10.43,6.09-20.84,12.19-31.32,18.2-3.24,1.86-5.54.55-5.7-3.26-.19-4.18-.19-8.39,0-12.57a5.35,5.35,0,0,0-3-5.5c-4.65-2.56-9.24-5.24-13.79-8a5.51,5.51,0,0,0-6.3,0q-6.81,4.14-13.79,8a5.19,5.19,0,0,0-3,5.27C558,361.27,557.86,363.93,557.86,366.59Z" transform="translate(-19.7 -64.54)"/>
    <path class="cls-2" d="M589.82,367.06c.41,5.77-5,11-11.19,11.55-5.48.45-11.84-5.12-12.33-10.7-.71-8.14,4.28-12.28,11.07-13.53,3.89-.71,6.59,2,9.55,3.91C590.56,360.65,589.27,364.46,589.82,367.06Z" transform="translate(-19.7 -64.54)"/>
    <path class="cls-1" d="M410.87,367.38c0-3,.06-6,0-8.95a3.56,3.56,0,0,1,2-3.55q8.08-4.61,16.11-9.28a3.39,3.39,0,0,1,3.81-.07c5.41,3.18,10.86,6.3,16.32,9.41a3.46,3.46,0,0,1,1.84,3.37c0,6.13,0,12.25.08,18.38a3.7,3.7,0,0,1-2,3.56q-8.18,4.67-16.31,9.42a3.29,3.29,0,0,1-3.62-.09q-8-4.68-16.11-9.27a3.73,3.73,0,0,1-2.06-3.74C410.93,373.51,410.87,370.44,410.87,367.38Z" transform="translate(-19.7 -64.54)"/>
  </g>
</svg>
