<svg id="Layer_1" data-name="Layer 1" xmlns="http://www.w3.org/2000/svg" width="9.55in" height="8.28in" viewBox="0 0 687.76 596.42">
  <defs>
    <style>
      .cls-1 {
        fill: #306c96;
      }

      .cls-2 {
        fill: #fefeff;
      }

      .cls-3 {
        fill: #336c97;
      }
    </style>
  </defs>
  <g>
    <path class="cls-1" d="M187.73,61.37h345c-.16.91.52,1.47.9,2.13q84.86,147,169.78,294a3.69,3.69,0,0,1-.09,4.31c-7.14,12.21-14.19,24.49-21.27,36.75Q607.8,527.15,533.59,655.78a3.53,3.53,0,0,1-3.56,2q-169.87-.06-339.75,0a3.48,3.48,0,0,1-3.52-2q-16-27.94-32.16-55.82Q85.83,480.83,17,361.75a3.83,3.83,0,0,1,.08-4.47Q101.59,211,186,64.74A11.19,11.19,0,0,0,187.73,61.37Zm323.1,358.2c-.26-.86.24-1.35.55-1.88a416.4,416.4,0,0,0,27.21-55.61,380.83,380.83,0,0,0,16.1-47.84c2.25-8.61,4-17.33,5.47-26.12a224.29,224.29,0,0,0,3.05-28.4,93.7,93.7,0,0,0-1.34-19.14c-1.09-6.54-2.79-12.9-6.36-18.63-5.13-8.27-11.87-15.08-19.09-21.51a119.29,119.29,0,0,0-23.13-16.16,123.06,123.06,0,0,0-28.44-10.92,148.14,148.14,0,0,0-34.17-4.55,210.1,210.1,0,0,0-22.57.93,186.63,186.63,0,0,0-30.05,5.56,12.64,12.64,0,0,1-5.58.64,173.86,173.86,0,0,0-29.94-2.59,114.46,114.46,0,0,0-18.92,1.27c-11.39,1.78-22.3,5-32.33,10.82a6.4,6.4,0,0,1-5.42.63,255.83,255.83,0,0,0-32.79-8.27,227.08,227.08,0,0,0-27.23-3.06,123,123,0,0,0-15.47.26,130.1,130.1,0,0,0-18.76,2.52c-15.15,3.28-28.7,9.71-40.19,20.28a79.62,79.62,0,0,0-17.15,22.26c-7.86,15.3-11.62,31.68-12.3,48.77a217,217,0,0,0,0,22.67,201.79,201.79,0,0,0,3.76,25.95c2.18,11.05,4.17,22.16,6.77,33.12,3,12.58,6.18,25.11,10,37.47,8.19,26.49,16.88,52.77,31.87,76.43,7.36,11.61,16.2,21.67,29.21,27.18a33.06,33.06,0,0,0,18,2.28,44,44,0,0,0,19.53-8.31c1.28-.92,2-.91,3.12.32a31.2,31.2,0,0,0,8.67,6.47c8.79,4.9,18.46,6.69,28.27,7.47a71.81,71.81,0,0,0,33.66-5c1.85-.76,2.28-.48,2.26,1.48-.07,9.53,0,19.06.69,28.58.44,6.13.58,12.32,1.54,18.38a130.83,130.83,0,0,0,5.77,24c3.83,10.61,8.64,20.58,17.59,28,10.13,8.42,22,10.78,34.67,10,7.77-.46,15.4-2.4,22.89-4.65,10.48-3.13,20.13-7.82,28.15-15.39,7.21-6.81,12.31-15.08,16.11-24.21,7-16.74,9.44-34.41,10.87-52.28.65-8,1.06-16.11,1.48-24.16.1-1.86.86-2.42,2.66-2.42,6.28,0,12.55.1,18.81-.44a105.31,105.31,0,0,0,22-4.22A90.4,90.4,0,0,0,549,462.81c7.15-5.49,13.61-11.67,15.64-20.94,2.73-12.45-5-24.51-18.74-26-5.31-.58-10.54.29-15.74,1.24A187.87,187.87,0,0,1,510.83,419.57Z" transform="translate(-16.32 -61.37)"/>
    <path class="cls-2" d="M510.83,419.57a187.87,187.87,0,0,0,19.28-2.48c5.2-.95,10.43-1.82,15.74-1.24,13.71,1.51,21.47,13.57,18.74,26-2,9.27-8.49,15.45-15.64,20.94a90.4,90.4,0,0,1-28.58,14.89,105.31,105.31,0,0,1-22,4.22c-6.26.54-12.53.45-18.81.44-1.8,0-2.56.56-2.66,2.42-.42,8.05-.83,16.12-1.48,24.16-1.43,17.87-3.91,35.54-10.87,52.28-3.8,9.13-8.9,17.4-16.11,24.21-8,7.57-17.67,12.26-28.15,15.39-7.49,2.25-15.12,4.19-22.89,4.65-12.63.74-24.54-1.62-34.67-10-8.95-7.45-13.76-17.42-17.59-28a130.83,130.83,0,0,1-5.77-24c-1-6.06-1.1-12.25-1.54-18.38-.68-9.52-.76-19.05-.69-28.58,0-2-.41-2.24-2.26-1.48a71.81,71.81,0,0,1-33.66,5c-9.81-.78-19.48-2.57-28.27-7.47a31.2,31.2,0,0,1-8.67-6.47c-1.08-1.23-1.84-1.24-3.12-.32a44,44,0,0,1-19.53,8.31,33.06,33.06,0,0,1-18-2.28c-13-5.51-21.85-15.57-29.21-27.18-15-23.66-23.68-49.94-31.87-76.43-3.82-12.36-7-24.89-10-37.47-2.6-11-4.59-22.07-6.77-33.12A201.79,201.79,0,0,1,142,291.5a217,217,0,0,1,0-22.67c.68-17.09,4.44-33.47,12.3-48.77a79.62,79.62,0,0,1,17.15-22.26c11.49-10.57,25-17,40.19-20.28A130.1,130.1,0,0,1,230.38,175a123,123,0,0,1,15.47-.26,227.08,227.08,0,0,1,27.23,3.06,255.83,255.83,0,0,1,32.79,8.27,6.4,6.4,0,0,0,5.42-.63c10-5.83,20.94-9,32.33-10.82a114.46,114.46,0,0,1,18.92-1.27,173.86,173.86,0,0,1,29.94,2.59,12.64,12.64,0,0,0,5.58-.64,186.63,186.63,0,0,1,30.05-5.56,210.1,210.1,0,0,1,22.57-.93,148.14,148.14,0,0,1,34.17,4.55,123.06,123.06,0,0,1,28.44,10.92,119.29,119.29,0,0,1,23.13,16.16c7.22,6.43,14,13.24,19.09,21.51,3.57,5.73,5.27,12.09,6.36,18.63a93.7,93.7,0,0,1,1.34,19.14,224.29,224.29,0,0,1-3.05,28.4c-1.48,8.79-3.22,17.51-5.47,26.12a380.83,380.83,0,0,1-16.1,47.84,416.4,416.4,0,0,1-27.21,55.61C511.07,418.22,510.57,418.71,510.83,419.57ZM346.3,473.12c0,.42.07.8.08,1.17.11,11.13-.2,22.26.37,33.38.19,3.57-.06,7.17.15,10.74.38,6.38,1,12.76,1.44,19.14.56,7.22,1.13,14.45,3.38,21.41,3.1,9.57,7.69,18.21,15.3,25.06s16.4,9.72,26.34,9.86A78.69,78.69,0,0,0,434.42,583,43.47,43.47,0,0,0,453,561.24c4.54-11.07,6-22.81,7.6-34.5,1.25-9,2.29-18,3.42-26.95,1.27-10.08,2.57-20.16,3.76-30.25.15-1.35.28-1.71,1.78-1.36a65.65,65.65,0,0,0,12.4,1.65,117.35,117.35,0,0,0,19.63-1.33A81.78,81.78,0,0,0,540,453.19c4.43-3.27,8.64-6.82,11.21-11.86,3.14-6.14.28-12.15-6.42-13.6-4.55-1-9,.26-13.43.82-9.92,1.25-19.68,4.27-29.85,2.57-3.08-.51-6.18-.86-9.08-2.2-2-.9-2.34-1.64-1.05-3.62a395.28,395.28,0,0,0,37.78-74.45c7.22-18.83,13.35-38,17.1-57.87,2.33-12.36,4.22-24.74,4.12-37.33a100,100,0,0,0-1-13.17c-.73-5.15-1.95-10.25-4.8-14.72-4.9-7.65-11.22-14.08-18.08-19.93a108.56,108.56,0,0,0-26.24-16.55c-16-7.17-32.94-10.16-50.34-10.83a137.89,137.89,0,0,0-18.27.78,168.6,168.6,0,0,0-33.17,6.15c-2.06.62-4.08,1.87-6.56,1.26a147.61,147.61,0,0,0-26.65-3.5,99.07,99.07,0,0,0-19.63,1.06c-11.77,1.67-22.92,5.3-32.9,12a5.07,5.07,0,0,1-4.87.73c-5.07-1.83-10.21-3.39-15.38-4.9a208.47,208.47,0,0,0-47.16-7.82,125.71,125.71,0,0,0-12.57.28,116.12,116.12,0,0,0-17.16,2,74.72,74.72,0,0,0-35.82,17.34,69.33,69.33,0,0,0-18.26,26.69,103,103,0,0,0-6.82,28.38,186.3,186.3,0,0,0-1.07,23.63c.28,8.4,1.74,16.61,3.09,24.86q3.2,19.54,7.73,38.81c2.81,11.95,5.86,23.87,9.53,35.6C181.55,408,189.3,432.1,202.52,454c5.57,9.23,11.78,17.89,21.31,23.51,4.91,2.89,10.11,4.42,16,3.54,9.53-1.44,15.9-7.53,21.85-14.31,3.32-3.79,6.53-7.69,9.85-11.49,3.17-3.63,6.42-7.2,9.65-10.78q6.19-6.87,12.42-13.71a2,2,0,0,1,2.71-.51A56.44,56.44,0,0,0,319,436c-.66,2.25-2.5,3.61-3.76,5.35-3.47,4.82-7.56,8.86-13.63,10.27-4.05.94-8.07,2-12.1,3-5.1,1.24-10.37,2.06-14.75,5.25-6.82,5-7.68,11.74-1.37,17.46a27.58,27.58,0,0,0,7.95,4.93,65.81,65.81,0,0,0,32.64,4.47,56.5,56.5,0,0,0,28.41-11C343.56,474.84,344.47,473.37,346.3,473.12Z" transform="translate(-16.32 -61.37)"/>
    <path class="cls-3" d="M346.3,473.12c-1.83.25-2.74,1.72-3.95,2.62a56.5,56.5,0,0,1-28.41,11,65.81,65.81,0,0,1-32.64-4.47,27.58,27.58,0,0,1-7.95-4.93c-6.31-5.72-5.45-12.49,1.37-17.46,4.38-3.19,9.65-4,14.75-5.25,4-1,8-2,12.1-3,6.07-1.41,10.16-5.45,13.63-10.27,1.26-1.74,3.1-3.1,3.76-5.35a56.44,56.44,0,0,1-22.68-5.77,2,2,0,0,0-2.71.51q-6.21,6.86-12.42,13.71c-3.23,3.58-6.48,7.15-9.65,10.78-3.32,3.8-6.53,7.7-9.85,11.49-5.95,6.78-12.32,12.87-21.85,14.31-5.86.88-11.06-.65-16-3.54-9.53-5.62-15.74-14.28-21.31-23.51-13.22-21.9-21-46-28.53-70.22-3.67-11.73-6.72-23.65-9.53-35.6q-4.53-19.26-7.73-38.81c-1.35-8.25-2.81-16.46-3.09-24.86a186.3,186.3,0,0,1,1.07-23.63,103,103,0,0,1,6.82-28.38,69.33,69.33,0,0,1,18.26-26.69,74.72,74.72,0,0,1,35.82-17.34,116.12,116.12,0,0,1,17.16-2,125.71,125.71,0,0,1,12.57-.28A208.47,208.47,0,0,1,292.5,194c5.17,1.51,10.31,3.07,15.38,4.9a5.07,5.07,0,0,0,4.87-.73c10-6.66,21.13-10.29,32.9-12a99.07,99.07,0,0,1,19.63-1.06,147.61,147.61,0,0,1,26.65,3.5c2.48.61,4.5-.64,6.56-1.26a168.6,168.6,0,0,1,33.17-6.15,137.89,137.89,0,0,1,18.27-.78c17.4.67,34.29,3.66,50.34,10.83a108.56,108.56,0,0,1,26.24,16.55c6.86,5.85,13.18,12.28,18.08,19.93,2.85,4.47,4.07,9.57,4.8,14.72a100,100,0,0,1,1,13.17c.1,12.59-1.79,25-4.12,37.33-3.75,19.89-9.88,39-17.1,57.87a395.28,395.28,0,0,1-37.78,74.45c-1.29,2-.91,2.72,1.05,3.62,2.9,1.34,6,1.69,9.08,2.2,10.17,1.7,19.93-1.32,29.85-2.57,4.45-.56,8.88-1.81,13.43-.82,6.7,1.45,9.56,7.46,6.42,13.6-2.57,5-6.78,8.59-11.21,11.86a81.78,81.78,0,0,1-38.4,15.31A117.35,117.35,0,0,1,482,469.83a65.65,65.65,0,0,1-12.4-1.65c-1.5-.35-1.63,0-1.78,1.36-1.19,10.09-2.49,20.17-3.76,30.25-1.13,9-2.17,18-3.42,26.95-1.63,11.69-3.06,23.43-7.6,34.5A43.47,43.47,0,0,1,434.42,583a78.69,78.69,0,0,1-41.06,10.9c-9.94-.14-18.83-3.1-26.34-9.86s-12.2-15.49-15.3-25.06c-2.25-7-2.82-14.19-3.38-21.41-.49-6.38-1.06-12.76-1.44-19.14-.21-3.57,0-7.17-.15-10.74-.57-11.12-.26-22.25-.37-33.38C346.37,473.92,346.33,473.54,346.3,473.12Zm-68.75-178.6a4,4,0,0,0,2.33-.79c11.68-5.73,23.75-9.91,37-9.79,16.14.14,27.51,9.07,31.42,24.72a188.76,188.76,0,0,1,5,33.94c1.16,18.24-1.34,35.82-9.06,52.55a240.64,240.64,0,0,0-11.06,28.41c-.55,1.74-.53,2.71,1.76,2.42a12.45,12.45,0,0,1,3.79.25A24.51,24.51,0,0,1,359,450.75q-.21,19.69,0,39.39.24,25.8,2.19,51.5c.71,9.14,2.82,17.71,7.67,25.53,5.08,8.19,12.17,13.36,22,14.19,11.64,1,22.55-2,33.09-6.59a33.37,33.37,0,0,0,18.1-19,71.81,71.81,0,0,0,4.19-15.88c4.53-30.36,8.74-60.78,10.91-91.43.77-10.73,5.55-18.4,16-22,1.67-.56,1.43-1.14.55-2.27q-3.6-4.6-7-9.35c-5.73-7.9-9.14-17.08-13.93-25.5-7.12-12.51-14-25.16-19.13-38.63-4.28-11.17-8-22.48-8-34.66.06-17.78,9.86-29.55,27.29-33,7.19-1.43,14.42-1,21.64-1,2.7,0,2.74,0,1.79-2.41C467.4,257.24,453.8,238.2,435,223c-22.07-17.82-47.5-25.89-75.71-25.54-27.92.34-49.43,12.16-63.92,36.2-8.49,14.08-13.14,29.55-15.92,45.65A131.7,131.7,0,0,0,277.55,294.52ZM165.91,283.9c-.16,7.55,2.15,19.88,4.55,32.23,5.78,29.76,12.91,59.15,23,87.75,5.5,15.51,11.54,30.8,20.26,44.87,3.87,6.25,8.13,12.19,14.09,16.68,6.21,4.69,11.92,4.59,18.06-.25a60.37,60.37,0,0,0,7.68-7.82q14.58-16.58,29.2-33.14c1.1-1.23,1.07-2-.08-3.11-1.54-1.49-3-3.1-4.38-4.73-12.09-14.09-17.13-30.42-15.27-48.85.73-7.2,1.65-14.37,2-21.61.53-11.31-.36-22.59-.62-33.88a190.49,190.49,0,0,1,5.05-46.38c4.71-20.9,13.3-39.92,28.3-55.62,1.58-1.66.12-1.67-.87-2-12.27-3.7-24.63-7-37.4-8.45-14.46-1.66-28.92-2-43.21,1.32-22.39,5.18-37.5,18.56-44.9,40.47C167.33,253.55,166.1,266.09,165.91,283.9Zm249.81-87.79c3.9,2.07,7.79,4,11.52,6.28,28.77,17.4,48.55,42.31,61.08,73.24a42.17,42.17,0,0,1,3,21.47c-1.2,9.79-2.05,19.62-3.32,29.4-1.42,11,.2,21.91,1.57,32.79,2.29,18.24,1.87,36.07-7.57,52.6-.62,1.1-.85,2.17.43,2.87s1.57-.73,2-1.39c24.48-40,42.59-82.53,51-128.86,2.28-12.54,3.65-25.21,2.14-38-.62-5.24-1.56-10.4-4.93-14.73A97.6,97.6,0,0,0,497,203.24c-14.08-6.68-29-9.67-44.51-10.37A141.15,141.15,0,0,0,415.72,196.11ZM341,345.71c-.45-9.83-2.4-21.18-4.6-32.51-2.15-11.08-8.78-16.78-20.11-16.63-14,.19-26.39,5.14-37.89,12.75a3.21,3.21,0,0,0-1.35,3.31c.72,11.4.87,22.82.53,34.24-.12,3.9-.35,7.79-.8,11.66-1,8.37-2.11,16.7-.7,25.17,3.4,20.36,20,37.76,40.23,39.68,3.46.32,3.67.3,4.85-3,3.06-8.52,5.69-17.21,9.57-25.41A105.87,105.87,0,0,0,341,345.71ZM466.53,294.5A45.2,45.2,0,0,0,452.72,296c-8.55,2.29-13.11,7.48-14.25,16.18-1.06,8.09.8,15.84,3.15,23.46,7.09,22.95,19.89,43.23,30.6,64.49.73,1.44,1.27.65,1.67-.28a45.74,45.74,0,0,0,3.87-15.66,178.54,178.54,0,0,0-1.71-33.08,117.59,117.59,0,0,1,.1-33c1-6.77,1.69-13.57,2.6-20.35.26-1.93-.26-2.74-2.33-2.75C473.08,295,469.78,294.26,466.53,294.5ZM306.76,474.75c14.95.16,27.11-5.41,36.74-17,5.1-6.14,2.82-13.14-1.77-16.8-4.24-3.38-7.15-3.29-10.67.8-3,3.5-5.91,7.09-8.81,10.67a29.41,29.41,0,0,1-15.39,10.29c-7.12,1.95-14.22,4-21.41,5.7-.65.16-1.61.05-1.67.94,0,.71.86.84,1.4,1.08A54.07,54.07,0,0,0,306.76,474.75ZM535.59,441a4.1,4.1,0,0,0-3,0c-9.4,1.82-18.86,3.06-28.46,2.58-6.94-.34-13.69-1.33-19.84-5.14-4.54-2.81-12.39.86-13.73,6.06a52.4,52.4,0,0,0-1.13,8.74,1.93,1.93,0,0,0,1.77,2.36c2.58.45,5.14,1.16,7.74,1.41,6,.58,12.07-.08,18.1-.5A66.87,66.87,0,0,0,535.59,441Z" transform="translate(-16.32 -61.37)"/>
    <path class="cls-2" d="M277.55,294.52a131.7,131.7,0,0,1,1.91-15.18c2.78-16.1,7.43-31.57,15.92-45.65,14.49-24,36-35.86,63.92-36.2,28.21-.35,53.64,7.72,75.71,25.54,18.79,15.17,32.39,34.21,41.33,56.6,1,2.37.91,2.39-1.79,2.41-7.22,0-14.45-.42-21.64,1-17.43,3.47-27.23,15.24-27.29,33,0,12.18,3.68,23.49,8,34.66,5.16,13.47,12,26.12,19.13,38.63,4.79,8.42,8.2,17.6,13.93,25.5q3.44,4.74,7,9.35c.88,1.13,1.12,1.71-.55,2.27-10.45,3.57-15.23,11.24-16,22-2.17,30.65-6.38,61.07-10.91,91.43A71.81,71.81,0,0,1,442,555.76a33.37,33.37,0,0,1-18.1,19c-10.54,4.64-21.45,7.57-33.09,6.59-9.79-.83-16.88-6-22-14.19-4.85-7.82-7-16.39-7.67-25.53q-2-25.73-2.19-51.5-.18-19.69,0-39.39a24.51,24.51,0,0,0-20.26-24.52A12.45,12.45,0,0,0,335,426c-2.29.29-2.31-.68-1.76-2.42a240.64,240.64,0,0,1,11.06-28.41c7.72-16.73,10.22-34.31,9.06-52.55a188.76,188.76,0,0,0-5-33.94C344.38,293,333,284.08,316.87,283.94c-13.24-.12-25.31,4.06-37,9.79A4,4,0,0,1,277.55,294.52Z" transform="translate(-16.32 -61.37)"/>
    <path class="cls-2" d="M165.91,283.9c.19-17.81,1.42-30.35,5.51-42.48,7.4-21.91,22.51-35.29,44.9-40.47,14.29-3.31,28.75-3,43.21-1.32,12.77,1.47,25.13,4.75,37.4,8.45,1,.29,2.45.3.87,2-15,15.7-23.59,34.72-28.3,55.62A190.49,190.49,0,0,0,264.45,312c.26,11.29,1.15,22.57.62,33.88-.35,7.24-1.27,14.41-2,21.61-1.86,18.43,3.18,34.76,15.27,48.85,1.4,1.63,2.84,3.24,4.38,4.73,1.15,1.1,1.18,1.88.08,3.11q-14.66,16.53-29.2,33.14a60.37,60.37,0,0,1-7.68,7.82c-6.14,4.84-11.85,4.94-18.06.25-6-4.49-10.22-10.43-14.09-16.68-8.72-14.07-14.76-29.36-20.26-44.87-10.14-28.6-17.27-58-23-87.75C168.06,303.78,165.75,291.45,165.91,283.9Z" transform="translate(-16.32 -61.37)"/>
    <path class="cls-2" d="M415.72,196.11a141.15,141.15,0,0,1,36.77-3.24c15.47.7,30.43,3.69,44.51,10.37a97.6,97.6,0,0,1,35.6,28.55c3.37,4.33,4.31,9.49,4.93,14.73,1.51,12.78.14,25.45-2.14,38-8.43,46.33-26.54,88.87-51,128.86-.4.66-.56,2.17-2,1.39s-1-1.77-.43-2.87c9.44-16.53,9.86-34.36,7.57-52.6-1.37-10.88-3-21.78-1.57-32.79,1.27-9.78,2.12-19.61,3.32-29.4a42.17,42.17,0,0,0-3-21.47c-12.53-30.93-32.31-55.84-61.08-73.24C423.51,200.14,419.62,198.18,415.72,196.11Z" transform="translate(-16.32 -61.37)"/>
    <path class="cls-2" d="M341,345.71A105.87,105.87,0,0,1,330.74,395c-3.88,8.2-6.51,16.89-9.57,25.41-1.18,3.27-1.39,3.29-4.85,3-20.19-1.92-36.83-19.32-40.23-39.68-1.41-8.47-.27-16.8.7-25.17.45-3.87.68-7.76.8-11.66.34-11.42.19-22.84-.53-34.24a3.21,3.21,0,0,1,1.35-3.31c11.5-7.61,23.93-12.56,37.89-12.75,11.33-.15,18,5.55,20.11,16.63C338.61,324.53,340.56,335.88,341,345.71ZM320.51,318a10.83,10.83,0,0,0,8.2-3.16c4.22-3.88,3.13-8.55-2.4-10.24-2-.59-4-.92-6-1.55-3.4-1.09-6.59-.19-9.68,1.05a4,4,0,0,0-2.36,5.49C309.9,314.09,315.48,318,320.51,318Z" transform="translate(-16.32 -61.37)"/>
    <path class="cls-2" d="M466.53,294.5c3.25-.24,6.55.51,9.89.51,2.07,0,2.59.82,2.33,2.75-.91,6.78-1.64,13.58-2.6,20.35a117.59,117.59,0,0,0-.1,33,178.54,178.54,0,0,1,1.71,33.08,45.74,45.74,0,0,1-3.87,15.66c-.4.93-.94,1.72-1.67.28-10.71-21.26-23.51-41.54-30.6-64.49-2.35-7.62-4.21-15.37-3.15-23.46,1.14-8.7,5.7-13.89,14.25-16.18A45.2,45.2,0,0,1,466.53,294.5Zm-10,18.64c4.7,0,9.74-3.62,11.23-7.83.68-2,.24-3.63-1.68-4.36a18.29,18.29,0,0,0-17.63,2.14c-2.08,1.43-2.27,3.4-.76,5.39A11.74,11.74,0,0,0,456.5,313.14Z" transform="translate(-16.32 -61.37)"/>
    <path class="cls-2" d="M306.76,474.75a54.07,54.07,0,0,1-21.58-4.3c-.54-.24-1.44-.37-1.4-1.08.06-.89,1-.78,1.67-.94,7.19-1.73,14.29-3.75,21.41-5.7a29.41,29.41,0,0,0,15.39-10.29c2.9-3.58,5.8-7.17,8.81-10.67,3.52-4.09,6.43-4.18,10.67-.8,4.59,3.66,6.87,10.66,1.77,16.8C333.87,469.34,321.71,474.91,306.76,474.75Z" transform="translate(-16.32 -61.37)"/>
    <path class="cls-2" d="M535.59,441a66.87,66.87,0,0,1-38.5,15.51c-6,.42-12.06,1.08-18.1.5-2.6-.25-5.16-1-7.74-1.41a1.93,1.93,0,0,1-1.77-2.36,52.4,52.4,0,0,1,1.13-8.74c1.34-5.2,9.19-8.87,13.73-6.06,6.15,3.81,12.9,4.8,19.84,5.14,9.6.48,19.06-.76,28.46-2.58A4.1,4.1,0,0,1,535.59,441Z" transform="translate(-16.32 -61.37)"/>
    <path class="cls-3" d="M320.51,318c-5,0-10.61-4-12.21-8.41a4,4,0,0,1,2.36-5.49c3.09-1.24,6.28-2.14,9.68-1.05,2,.63,4,1,6,1.55,5.53,1.69,6.62,6.36,2.4,10.24A10.83,10.83,0,0,1,320.51,318Z" transform="translate(-16.32 -61.37)"/>
    <path class="cls-3" d="M456.5,313.14a11.74,11.74,0,0,1-8.84-4.66c-1.51-2-1.32-4,.76-5.39A18.29,18.29,0,0,1,466.05,301c1.92.73,2.36,2.4,1.68,4.36C466.24,309.52,461.2,313.11,456.5,313.14Z" transform="translate(-16.32 -61.37)"/>
  </g>
</svg>
