<svg id="Layer_1" data-name="Layer 1" xmlns="http://www.w3.org/2000/svg" width="9.66in" height="8.37in" viewBox="0 0 695.29 602.78">
  <defs>
    <style>
      .cls-1 {
        fill: #132c3a;
      }

      .cls-2 {
        fill: #0cb4dc;
      }
    </style>
  </defs>
  <g>
    <path class="cls-1" d="M185.91,58.21H534.58c1,3,3,5.64,4.55,8.39q84,145.5,168,291a3.36,3.36,0,0,1,.07,3.91Q621.28,510.15,535.48,658.91a3.56,3.56,0,0,1-3.55,2.08q-171.78-.07-343.57,0a3.35,3.35,0,0,1-3.39-1.92q-16.22-28.3-32.55-56.53Q82.81,482,13.13,361.4a3.12,3.12,0,0,1-.05-3.64q19.4-33.42,38.67-66.89Q112.35,185.93,173,81C177.32,73.42,181.59,65.8,185.91,58.21Zm-8.26,304q0,78.22-.06,156.44c0,2.25.61,2.74,2.77,2.73,18-.09,36.06-.05,54.09-.05,3.66,0,3.66,0,3.66-3.66q0-64.33,0-128.68c0-1.81.35-2.46,2.34-2.43,13,.16,26-.34,39-1.35,11.75-.92,23.23-2.94,34.15-7.62,21.39-9.16,37.66-23.66,46.42-45.49,8.26-20.58,8.76-42,3.46-63.24-7.61-30.54-26.28-51.18-57.14-59.61-18.2-5-37-5.85-55.7-6.07-23.33-.27-46.68,0-70-.12-2.34,0-3,.43-3,3Q177.71,284.06,177.65,362.16Zm305,164.94c12.06,0,23.92-1.38,35.33-5.42,20-7.11,35.1-19.91,43.87-39.48,5.14-11.47,6.36-23.62,5.15-36.09a64.36,64.36,0,0,0-14.44-35.61c-7.63-9.25-17.27-16.06-27.44-22.18-13.71-8.24-28.38-14.65-42.55-22-4.56-2.37-9.17-4.69-13.05-8.13-6.41-5.7-6-14.63.77-19.8a18.22,18.22,0,0,1,5.74-3c8.29-2.52,16.35-1.67,24.23,1.7,9.62,4.11,17.52,10.69,25,17.85,1.23,1.17,1.76.89,2.77-.13q16.88-17.07,33.85-34.07c1-1,1.21-1.54.26-2.74a97.91,97.91,0,0,0-15.56-16.09c-21.77-17.48-46.59-24.12-74.19-20.73-16.28,2-30.56,8.34-42.59,19.59-20.3,19-26.36,46.8-15.45,71.65,5.83,13.24,15.58,23.26,26.93,31.88C454,414,468.46,420.66,482.7,427.72c8.37,4.15,16.6,8.5,23.18,15.37,5.75,6,7.45,13.08,4.37,19.07A20.66,20.66,0,0,1,500,471.6a33.53,33.53,0,0,1-23.1,1.59c-15.32-4.14-28.07-12.52-38.6-24.3-1.24-1.39-1.81-1.33-3,0q-16.74,18.36-33.62,36.59c-1.07,1.16-1,1.8-.09,3A105.69,105.69,0,0,0,425,510.52C442.41,522.3,461.85,527.09,482.66,527.1Z" transform="translate(-12.52 -58.21)"/>
    <path class="cls-2" d="M177.65,362.16q0-78.09-.07-156.2c0-2.52.7-3,3-3,23.34.1,46.69-.15,70,.12,18.74.22,37.5,1.09,55.7,6.07,30.86,8.43,49.53,29.07,57.14,59.61,5.3,21.26,4.8,42.66-3.46,63.24-8.76,21.83-25,36.33-46.42,45.49-10.92,4.68-22.4,6.7-34.15,7.62-13,1-26,1.51-39,1.35-2,0-2.34.62-2.34,2.43q.08,64.35,0,128.68c0,3.66,0,3.66-3.66,3.66-18,0-36.06,0-54.09.05-2.16,0-2.77-.48-2.77-2.73Q177.7,440.39,177.65,362.16Zm60.46-67.37c0,10.29,0,20.58,0,30.88,0,1.57.41,2,2,2,8.13-.09,16.25.07,24.37-.13a113.07,113.07,0,0,0,19.16-1.79c14.6-2.86,24-14.07,24.32-29,.23-12.07-3.57-22.11-14.47-28.5-5.89-3.45-12.49-4.48-19.12-5.28-11.29-1.37-22.63-.87-34-1.05-2,0-2.32.7-2.3,2.46C238.15,274.52,238.11,284.65,238.11,294.79Z" transform="translate(-12.52 -58.21)"/>
    <path class="cls-2" d="M482.66,527.1c-20.81,0-40.25-4.8-57.67-16.58a105.69,105.69,0,0,1-23.45-22.07c-.94-1.18-1-1.82.09-3q16.89-18.23,33.62-36.59c1.2-1.32,1.77-1.38,3,0,10.53,11.78,23.28,20.16,38.6,24.3A33.53,33.53,0,0,0,500,471.6a20.66,20.66,0,0,0,10.29-9.44c3.08-6,1.38-13.06-4.37-19.07-6.58-6.87-14.81-11.22-23.18-15.37C468.46,420.66,454,414,441.24,404.3c-11.35-8.62-21.1-18.64-26.93-31.88-10.91-24.85-4.85-52.66,15.45-71.65,12-11.25,26.31-17.59,42.59-19.59,27.6-3.39,52.42,3.25,74.19,20.73A97.91,97.91,0,0,1,562.1,318c.95,1.2.7,1.78-.26,2.74q-17,17-33.85,34.07c-1,1-1.54,1.3-2.77.13-7.43-7.16-15.33-13.74-25-17.85-7.88-3.37-15.94-4.22-24.23-1.7a18.22,18.22,0,0,0-5.74,3c-6.8,5.17-7.18,14.1-.77,19.8,3.88,3.44,8.49,5.76,13.05,8.13,14.17,7.35,28.84,13.76,42.55,22,10.17,6.12,19.81,12.93,27.44,22.18A64.36,64.36,0,0,1,567,446.11c1.21,12.47,0,24.62-5.15,36.09C553.09,501.77,538,514.57,518,521.68,506.58,525.72,494.72,527.1,482.66,527.1Z" transform="translate(-12.52 -58.21)"/>
    <path class="cls-1" d="M238.11,294.79c0-10.14,0-20.27,0-30.4,0-1.76.26-2.5,2.3-2.46,11.33.18,22.67-.32,34,1.05,6.63.8,13.23,1.83,19.12,5.28,10.9,6.39,14.7,16.43,14.47,28.5-.28,14.93-9.72,26.14-24.32,29a113.07,113.07,0,0,1-19.16,1.79c-8.12.2-16.24,0-24.37.13-1.59,0-2-.44-2-2C238.14,315.37,238.11,305.08,238.11,294.79Z" transform="translate(-12.52 -58.21)"/>
  </g>
</svg>
