<svg id="Layer_1" data-name="Layer 1" xmlns="http://www.w3.org/2000/svg" width="9.42in" height="8.16in" viewBox="0 0 677.99 587.44">
  <defs>
    <style>
      .cls-1 {
        fill: #3779ad;
      }

      .cls-2 {
        fill: #fff;
      }

      .cls-3 {
        fill: #fdd548;
      }
    </style>
  </defs>
  <g>
    <path class="cls-1" d="M20.45,360.47v-.94c.91-.22,1-1.12,1.38-1.75q83.52-144.58,167-289.21a3.82,3.82,0,0,1,3.81-2.24q167.07.08,334.14,0a3.85,3.85,0,0,1,3.86,2.19q83.55,144.84,167.21,289.62a3.27,3.27,0,0,1,0,3.83c-5,8.51-9.89,17.08-14.83,25.63Q607,519.17,531.07,650.76c-1.24,2.15-2.48,3-5.06,3q-166.24-.12-332.49-.07a11.35,11.35,0,0,0-1.65,0c-1.37.2-2.07-.48-2.73-1.62q-13-22.73-26.18-45.41Q92.34,484.37,21.7,362.07C21.36,361.49,21.23,360.71,20.45,360.47ZM276.68,249.34q-37.29,0-74.59,0a58.18,58.18,0,0,0-19.37,3.25c-19,6.63-31.53,20.13-39.79,38-8.78,19-11.57,39.24-11.77,59.94-.07,7-.11,13.91.28,20.89.89,15.61,2.59,31.07,7.16,46.08,4.34,14.25,10.49,27.54,21.41,38.09,9.16,8.85,19.77,15,32.79,15.61,13.24.66,26.5.14,39.75.26,1.6,0,2.3-.74,2.27-2.29,0-.47,0-.94,0-1.41-.06-14.74-.05-29.48-.19-44.22-.11-11,.8-21.89,4.63-32.37,6.71-18.39,19-30.85,38.1-36.13,9.17-2.53,18.55-2.67,28-2.66q50.13.09,100.24,0a83.58,83.58,0,0,0,24.77-3.7c23.64-7.3,38.38-26,39.08-50.15.29-9.95-.08-19.91-.08-29.87,0-24,.08-48,0-72,0-3.66.86-7.26.37-11-1.57-12-7.33-21.66-16.39-29.48-10.63-9.19-23.27-14.26-36.64-17.86-16.45-4.43-33.31-5.78-50.23-6.45-7.42-.29-14.87,0-22.31.14a215.22,215.22,0,0,0-34.39,3c-12.79,2.26-25.2,5.68-36.73,11.83a56.81,56.81,0,0,0-12.91,9.35c-8,7.76-12,17-11.64,28.36.48,15.43-.13,30.89.4,46.33.14,4,.18,4,4.23,4H354.8c.7,0,1.41,0,2.12,0,1.67,0,2.37.73,2.32,2.44-.09,2.82,0,5.65,0,8.47,0,3.2-.2,3.41-3.47,3.5-.7,0-1.41,0-2.12,0Zm165,218.89v.08h74.59c19.11,0,35-7.29,47.25-21.82,16.82-20,22.67-43.88,22.77-69.49,0-9.32-.37-18.66,0-28,.58-16.57-.69-32.85-5.74-48.74C576,286.16,569.89,273,559,262.5c-9.32-9-20.18-15-33.33-15.49s-26.49-.13-39.74-.19c-1.81,0-1.47,1.2-1.47,2.25q0,25.64,0,51.29a79.88,79.88,0,0,1-2.4,19.54c-7.19,28.93-28.79,45.79-58.6,45.83-19,0-37.95.13-56.93.13-17.41,0-34.82-.14-52.23-.12a82.59,82.59,0,0,0-29.46,5.14c-21.38,8.11-34.94,26.7-35.22,48.42q-.22,16.69-.24,33.4-.06,34.94,0,69.87c0,.86,0,1.73-.06,2.58a38.86,38.86,0,0,0,3.37,19.47c5.49,12.32,15.14,20.58,26.86,26.59,16.06,8.25,33.42,11.9,51.22,13.62a306.74,306.74,0,0,0,72.92-1.35c13.3-1.88,26.33-4.86,38.52-10.77a60.45,60.45,0,0,0,18.42-13.21A34.48,34.48,0,0,0,470.1,534c-.59-15.44-.19-30.88-.21-46.31,0-3.9,0-3.9-3.87-3.9q-52,0-104,0c-2.14,0-2.94-.56-2.83-2.78.16-3.44.11-6.9,0-10.34-.05-1.87.7-2.47,2.49-2.47Q401.69,468.25,441.68,468.23Z" transform="translate(-20.45 -66.33)"/>
    <path class="cls-2" d="M276.68,249.34h76.94c.71,0,1.42,0,2.12,0,3.27-.09,3.47-.3,3.47-3.5,0-2.82-.06-5.65,0-8.47.05-1.71-.65-2.47-2.32-2.44-.71,0-1.42,0-2.12,0H253.15c-4.05,0-4.09,0-4.23-4-.53-15.44.08-30.9-.4-46.33-.36-11.38,3.61-20.6,11.64-28.36a56.81,56.81,0,0,1,12.91-9.35c11.53-6.15,23.94-9.57,36.73-11.83a215.22,215.22,0,0,1,34.39-3c7.44-.11,14.89-.43,22.31-.14,16.92.67,33.78,2,50.23,6.45,13.37,3.6,26,8.67,36.64,17.86,9.06,7.82,14.82,17.46,16.39,29.48.49,3.71-.38,7.31-.37,11,0,24,0,48,0,72,0,10,.37,19.92.08,29.87-.7,24.16-15.44,42.85-39.08,50.15a83.58,83.58,0,0,1-24.77,3.7q-50.11,0-100.24,0c-9.42,0-18.8.13-28,2.66-19.12,5.28-31.39,17.74-38.1,36.13-3.83,10.48-4.74,21.33-4.63,32.37.14,14.74.13,29.48.19,44.22,0,.47,0,.94,0,1.41,0,1.55-.67,2.3-2.27,2.29-13.25-.12-26.51.4-39.75-.26-13-.65-23.63-6.76-32.79-15.61-10.92-10.55-17.07-23.84-21.41-38.09-4.57-15-6.27-30.47-7.16-46.08-.39-7-.35-13.93-.28-20.89.2-20.7,3-40.92,11.77-59.94,8.26-17.88,20.78-31.38,39.79-38a58.18,58.18,0,0,1,19.37-3.25Q239.4,249.4,276.68,249.34ZM277,186.9a19.68,19.68,0,0,0,21.16,20c11.22-.8,18.5-9.15,18.66-19.82A19.91,19.91,0,1,0,277,186.9Z" transform="translate(-20.45 -66.33)"/>
    <path class="cls-3" d="M441.68,468.23q-40,0-80,0c-1.79,0-2.54.6-2.49,2.47.1,3.44.15,6.9,0,10.34-.11,2.22.69,2.79,2.83,2.78q52-.07,104,0c3.87,0,3.87,0,3.87,3.9,0,15.43-.38,30.87.21,46.31a34.48,34.48,0,0,1-9.45,25.54,60.45,60.45,0,0,1-18.42,13.21C430,578.62,417,581.6,403.71,583.48a306.74,306.74,0,0,1-72.92,1.35c-17.8-1.72-35.16-5.37-51.22-13.62-11.72-6-21.37-14.27-26.86-26.59a38.86,38.86,0,0,1-3.37-19.47c.07-.85.06-1.72.06-2.58q0-34.94,0-69.87,0-16.69.24-33.4c.28-21.72,13.84-40.31,35.22-48.42a82.59,82.59,0,0,1,29.46-5.14c17.41,0,34.82.13,52.23.12,19,0,37.95-.11,56.93-.13,29.81,0,51.41-16.9,58.6-45.83a79.88,79.88,0,0,0,2.4-19.54q0-25.65,0-51.29c0-1-.34-2.26,1.47-2.25,13.25.06,26.51-.25,39.74.19s24,6.5,33.33,15.49c10.87,10.48,17,23.66,21.48,37.78,5,15.89,6.32,32.17,5.74,48.74-.32,9.32.09,18.66,0,28-.1,25.61-5.95,49.47-22.77,69.49-12.21,14.53-28.14,21.82-47.25,21.82H441.68Zm-19.26,43.21a19.93,19.93,0,0,0-20.22,19.79,20.18,20.18,0,0,0,20.08,20,19.89,19.89,0,0,0,19.84-19.67C442.16,520.24,433.6,511.48,422.42,511.44Z" transform="translate(-20.45 -66.33)"/>
    <path class="cls-1" d="M277,186.9a19.91,19.91,0,1,1,39.82.15c-.16,10.67-7.44,19-18.66,19.82A19.68,19.68,0,0,1,277,186.9Z" transform="translate(-20.45 -66.33)"/>
    <path class="cls-1" d="M422.42,511.44c11.18,0,19.74,8.8,19.7,20.17a19.89,19.89,0,0,1-19.84,19.67,20.18,20.18,0,0,1-20.08-20A19.93,19.93,0,0,1,422.42,511.44Z" transform="translate(-20.45 -66.33)"/>
  </g>
</svg>
