<?xml version="1.0" encoding="UTF-8"?>
<svg id="Layer_1" data-name="Layer 1" xmlns="http://www.w3.org/2000/svg" viewBox="0 0 978.28 848.95">
  <defs>
    <style>
      .cls-1 {
        fill: #222;
      }

      .cls-2 {
        fill: #01d8ff;
      }
    </style>
  </defs>
  <path class="cls-2" d="m489.76.12c79.96,0,159.92.03,239.88-.09,3.8,0,5.74,1.2,7.63,4.49,20.93,36.59,42.06,73.06,63.13,109.57,15.41,26.69,30.81,53.39,46.22,80.08,43.41,75.21,86.81,150.43,130.31,225.59,1.63,2.82,1.87,4.83.25,7.84-5.24,9.76-11.06,19.16-16.55,28.74-4.78,8.33-9.89,16.52-14.21,25.15-3.74,7.48-8.28,14.56-12.46,21.81-10.97,19.03-21.91,38.07-32.9,57.09-26.89,46.58-53.8,93.15-80.7,139.73-8.79,15.22-17.28,30.63-26.45,45.62-5.74,9.38-11.5,18.85-16.76,28.4-11.76,21.37-24.84,41.99-36,63.65-4.44,8.61-9.66,11.19-19.24,11.17-157.46-.34-314.92-.26-472.38-.15-3.82,0-5.72-1.25-7.59-4.51-28.6-49.76-57.38-99.42-86.06-149.13-8.56-14.84-16.65-29.96-25.43-44.67-27.62-46.33-53.9-93.42-81.13-139.97-16.3-27.87-32.43-55.85-48.71-83.73-1.43-2.45-.04-4.01.99-5.8,14.4-24.99,28.81-49.98,43.23-74.97,28.21-48.85,56.44-97.7,84.64-146.55,8.47-14.67,16.75-29.45,25.35-44.05,14.73-25.01,28.98-50.29,43.54-75.4,14.64-25.25,29.3-50.49,43.75-75.85C243.91,1.04,245.81,0,249.38,0c80.13.11,160.25.08,240.38.08v.03Zm-.12,18.95c-76.19,0-152.38.07-228.57-.17-4.93-.02-7.33,1.83-9.03,5.68-3.66,8.31-8.16,16.31-12.94,23.86-5.28,8.37-9.82,17.14-15,25.55-9.11,14.78-17.48,30.02-26.16,45.06-15.9,27.54-31.8,55.09-47.7,82.63-16.23,28.11-32.45,56.23-48.67,84.35-6.14,10.65-12.29,21.3-18.44,31.95-19.25,33.36-38.48,66.73-57.78,100.06-2.02,3.49-3.35,7.32-.94,10.57,2.33,3.15,3.62,6.67,5.5,9.95,16.8,29.3,33.77,58.5,50.65,87.75,25.74,44.59,51.49,89.18,77.17,133.81,4.42,7.68,9.23,15.12,13.44,22.96,8.21,15.26,17.19,30.1,25.86,45.11,14.73,25.51,29.55,50.98,44.15,76.57,2.72,4.77,6.29,9.01,8.31,14.22,3.2,8.26,9.11,10.97,18.19,10.94,90.97-.32,181.93-.2,272.9-.2,58.95,0,117.9-.03,176.84.06,4.18,0,6.91-1.19,9.02-5.06,5.84-10.68,12.16-21.1,18.15-31.7,9.03-16,18.11-31.98,27.22-47.92,7.56-13.22,15.64-26.19,23.2-39.44,10.03-17.59,19.87-35.32,30.16-52.73,10.47-17.73,20.91-35.51,31.31-53.28,11.98-20.48,23.73-41.13,35.49-61.76,10.54-18.49,21.63-36.67,31.91-55.3,10.25-18.58,21.87-36.39,31.43-55.39,1.42-2.82,1.31-4.1.12-6.19-5.64-9.81-11.25-19.64-16.96-29.4-16.83-28.73-33.38-57.61-50.06-86.43-16.44-28.4-32.81-56.84-49.06-85.34-6.89-12.07-14.28-23.87-20.63-36.21-5.25-10.19-11.91-19.46-17.41-29.48-11.56-21.07-23.79-41.77-35.84-62.58-6.57-11.34-13.41-22.52-19.97-33.86-6.64-11.47-13.23-22.99-19.55-34.64-1.73-3.18-3.69-4.09-7.23-4.09-76.35.12-152.71.09-229.06.09Z"/>
  <path class="cls-1" d="m489.64,19.06c76.35,0,152.71.03,229.06-.09,3.54,0,5.5.9,7.23,4.09,6.32,11.65,12.91,23.17,19.55,34.64,6.56,11.34,13.4,22.52,19.97,33.86,12.05,20.8,24.28,41.51,35.84,62.58,5.5,10.02,12.17,19.3,17.41,29.48,6.36,12.34,13.75,24.14,20.63,36.21,16.26,28.5,32.63,56.94,49.06,85.34,16.68,28.81,33.23,57.7,50.06,86.43,5.72,9.76,11.32,19.6,16.96,29.4,1.2,2.09,1.31,3.36-.12,6.19-9.56,19-21.18,36.8-31.43,55.39-10.28,18.63-21.36,36.81-31.91,55.3-11.76,20.63-23.51,41.27-35.49,61.76-10.39,17.77-20.83,35.55-31.31,53.28-10.29,17.42-20.13,35.14-30.16,52.73-7.56,13.25-15.64,26.22-23.2,39.44-9.11,15.94-18.2,31.92-27.22,47.92-5.98,10.6-12.31,21.02-18.15,31.7-2.11,3.86-4.84,5.06-9.02,5.06-58.95-.09-117.9-.06-176.84-.06-90.97,0-181.94-.13-272.9.2-9.07.03-14.99-2.68-18.19-10.94-2.02-5.21-5.59-9.45-8.31-14.22-14.6-25.59-29.41-51.06-44.15-76.57-8.67-15.01-17.65-29.85-25.86-45.11-4.21-7.83-9.02-15.27-13.44-22.96-25.68-44.63-51.43-89.22-77.17-133.81-16.89-29.25-33.85-58.45-50.65-87.75-1.88-3.28-3.17-6.8-5.5-9.95-2.41-3.25-1.07-7.08.94-10.57,19.3-33.33,38.53-66.7,57.78-100.06,6.15-10.65,12.29-21.3,18.44-31.95,16.22-28.12,32.44-56.23,48.67-84.35,15.9-27.54,31.8-55.09,47.7-82.63,8.68-15.04,17.05-30.28,26.16-45.06,5.18-8.4,9.72-17.18,15-25.55,4.77-7.56,9.27-15.55,12.94-23.86,1.7-3.85,4.1-5.7,9.03-5.68,76.19.24,152.38.17,228.57.17Zm-211.74,184.04c-6.02.34-14.82-.11-23.63.97-13.27,1.62-26.3,3.94-38.74,8.98-13.52,5.48-25.62,12.87-34.63,24.77-12.94,17.08-14.44,36.89-11.01,56.5,5.6,31.99,20.91,60.1,39.66,86.37,9.83,13.78,20.61,26.76,31.96,39.31,1.85,2.05,5.26,4.42,2.59,8.03-2.31,3.13-4.93,6.04-7.56,8.91-15.73,17.14-30.08,35.46-41.95,55.35-8.77,14.7-16.24,30.26-21.29,46.93-4.51,14.9-6.38,29.94-3.76,45.02,4.6,26.44,22.55,41.69,46.21,51.44,9.34,3.85,19.24,6.07,28.98,8.19,10.12,2.2,20.78,1.98,31.21,2.63,8.16.51,16.32-.95,24.44-.77,12.91.28,25.47-2.5,38.23-3.44,8.33-.61,16.58-3.33,24.66-5.79,4.19-1.27,5.82-.77,7.18,3.57,7.95,25.42,17.36,50.25,30.78,73.38,11.1,19.14,23.42,37.31,40.64,51.64,10.95,9.11,22.58,16.62,37.19,18.7,4.44.63,8.82-.58,12.8.1,9.49,1.62,17.55-1.92,25.6-5.36,11.24-4.79,20.35-12.79,28.83-21.45,15.08-15.39,26.25-33.49,36.15-52.46,2.32-4.44,5.95-8.43,7.23-13.11,2.39-8.66,6.61-16.56,9.28-25.07,3.19-10.17,7.71-19.93,9.66-30.46.56-3,2.03-2.41,3.73-2.01,4.7,1.12,9.34,2.58,14.08,3.5,17.5,3.39,35.18,5.53,52.93,7.09,11.46,1.01,22.94,1.46,34.41.01,9.94-1.26,20.01-1.12,29.84-3.76,12.01-3.23,23.79-6.74,34.63-13.06,21.34-12.45,32.16-31.29,32.09-55.58-.03-11.24-1.33-22.59-5.01-33.74-7.31-22.19-18.06-42.5-31.18-61.56-12.16-17.66-25.79-34.25-40.85-49.57-2.17-2.21-1.76-3.41.22-5.47,7.63-7.92,14.8-16.26,21.66-24.85,19.69-24.64,37.12-50.67,47.34-80.79,5.82-17.16,9.17-34.81,6.22-53.11-1.39-8.6-4.19-16.98-9.17-23.82-7.37-10.13-17.11-17.86-28.77-23.29-17.39-8.1-35.65-12.3-54.62-12.65-21.5-.39-43.04-1.2-64.38,3.53-12.05,2.67-24.49,3.69-36.38,7.23-4.44,1.32-5.88.02-6.91-4.38-2.84-12.11-7.21-23.85-11.62-35.38-2.54-6.64-4.75-13.7-8.62-20.11-5.17-8.55-8.99-17.97-14.25-26.57-9.95-16.28-21.04-31.61-35.71-44.09-21.28-18.11-45.08-26.02-72.19-15.92-7.49,2.79-14.55,7.79-21.07,13-21.41,17.09-36.84,38.87-49.38,62.87-5.11,9.77-10.31,19.59-14.3,29.84-4.83,12.38-9.6,24.84-12.99,37.74-.82,3.11-2.69,3.48-5.41,2.78-6.2-1.58-12.37-3.22-18.75-4.14-10.45-1.5-20.76-4.04-31.22-5.43-10.68-1.42-21.49-1.29-35.05-1.21Z"/>
  <path class="cls-2" d="m277.9,203.1c13.56-.09,24.38-.22,35.05,1.21,10.46,1.39,20.77,3.93,31.22,5.43,6.39.92,12.55,2.56,18.75,4.14,2.72.7,4.59.33,5.41-2.78,3.39-12.9,8.16-25.36,12.99-37.74,4-10.25,9.2-20.06,14.3-29.84,12.55-24,27.98-45.77,49.38-62.87,6.52-5.21,13.58-10.21,21.07-13,27.11-10.1,50.91-2.18,72.19,15.92,14.67,12.48,25.76,27.81,35.71,44.09,5.26,8.6,9.07,18.02,14.25,26.57,3.88,6.41,6.08,13.47,8.62,20.11,4.42,11.53,8.78,23.28,11.62,35.38,1.03,4.41,2.47,5.7,6.91,4.38,11.89-3.54,24.33-4.56,36.38-7.23,21.34-4.72,42.88-3.91,64.38-3.53,18.96.34,37.22,4.54,54.62,12.65,11.66,5.43,21.4,13.16,28.77,23.29,4.98,6.84,7.78,15.22,9.17,23.82,2.96,18.3-.4,35.95-6.22,53.11-10.21,30.12-27.64,56.15-47.34,80.79-6.87,8.59-14.03,16.94-21.66,24.85-1.98,2.06-2.39,3.26-.22,5.47,15.06,15.32,28.69,31.91,40.85,49.57,13.12,19.06,23.87,39.37,31.18,61.56,3.68,11.15,4.97,22.5,5.01,33.74.07,24.3-10.74,43.14-32.09,55.58-10.84,6.32-22.63,9.84-34.63,13.06-9.83,2.64-19.9,2.5-29.84,3.76-11.47,1.45-22.95,1-34.41-.01-17.75-1.57-35.43-3.71-52.93-7.09-4.74-.92-9.37-2.38-14.08-3.5-1.7-.4-3.17-.99-3.73,2.01-1.95,10.53-6.47,20.29-9.66,30.46-2.67,8.51-6.89,16.4-9.28,25.07-1.29,4.68-4.92,8.67-7.23,13.11-9.9,18.98-21.07,37.07-36.15,52.46-8.48,8.65-17.59,16.66-28.83,21.45-8.05,3.43-16.12,6.98-25.6,5.36-3.98-.68-8.36.54-12.8-.1-14.61-2.09-26.24-9.59-37.19-18.7-17.21-14.33-29.53-32.5-40.64-51.64-13.42-23.14-22.83-47.97-30.78-73.38-1.36-4.35-3-4.84-7.18-3.57-8.08,2.46-16.33,5.18-24.66,5.79-12.76.94-25.32,3.71-38.23,3.44-8.11-.17-16.27,1.28-24.44.77-10.44-.65-21.1-.43-31.21-2.63-9.73-2.12-19.64-4.34-28.98-8.19-23.66-9.75-41.61-25-46.21-51.44-2.63-15.08-.75-30.13,3.76-45.02,5.05-16.67,12.52-32.23,21.29-46.93,11.87-19.9,26.22-38.22,41.95-55.35,2.63-2.87,5.25-5.79,7.56-8.91,2.67-3.61-.74-5.98-2.59-8.03-11.35-12.55-22.13-25.53-31.96-39.31-18.75-26.27-34.05-54.38-39.66-86.37-3.44-19.61-1.93-39.42,11.01-56.5,9.01-11.9,21.11-19.29,34.63-24.77,12.44-5.04,25.47-7.36,38.74-8.98,8.82-1.08,17.62-.63,23.63-.97Zm96.43,270.35c-.87,4.08.99,8.37.84,12.76-.1,2.96,1.05,4.82,3.51,6.43,34.74,22.74,70.57,43.57,107.82,61.93,2.51,1.24,4.37,1.04,6.8-.1,18.69-8.78,36.25-19.63,54.35-29.48,17.78-9.69,34.71-20.84,51.6-32,2.37-1.57,3.62-3.38,3.64-6.38.03-4.22.65-8.44.86-12.67.68-13.19,1.56-26.37,1.86-39.57.24-10.94-.22-21.88-.57-32.83-.38-11.92-1.21-23.83-1.39-35.76-.05-3.18.19-6.91-3.51-9.39-33.53-22.51-68.43-42.62-104.6-60.57-3.25-1.62-7.55-2.29-9.77-1.12-5.29,2.78-11.15,4.36-16.15,7.71-8.63,5.79-18.24,9.81-27.2,15.05-11.56,6.77-23.33,13.18-34.74,20.25-8.89,5.51-17.48,11.47-26.35,16.96-5.71,3.53-8.38,7.56-6.71,13.78.7,2.6.57,4.97-.03,7.6-.82,3.59-1.47,7.25-1.41,11.05.44,28.65-.67,57.32,1.14,86.34Zm118.99-379.45c-6.68.98-12.56.76-17.83,3.61-15.99,8.67-27.94,21.6-38.06,36.33-17.77,25.85-29.95,54.31-39.15,84.2-1.51,4.9.4,5.88,3.94,6.66,11.24,2.51,21.65,7.45,32.48,11.16,12.22,4.18,24.31,8.86,36.11,14.11,5.36,2.39,10.69,4.76,16.12,6.97,2.22.91,3.67,1.29,5.77.33,6.45-2.95,12.93-5.86,19.47-8.62,21.54-9.11,43.36-17.47,65.77-24.25,1.8-.54,3.07-1.49,1.75-3.49-.94-1.43-.8-3.11-1.25-4.62-7.27-24.57-16.64-48.28-29.44-70.47-9.5-16.47-20.54-31.85-36.24-43.23-6.19-4.48-13.13-7.17-19.43-8.7Zm-218.4,139.78c-6.88.01-16.18,0-25.54,1.77-13.35,2.53-26.15,5.99-37.22,14.18-10.14,7.51-13.5,18.41-13.08,30.21.26,7.3,2.03,14.67,4.23,21.79,12.16,39.22,36.44,70.72,63.77,100.29,1.59,1.72,2.6,1.67,4.3.08,22.52-21.02,46.68-40.03,71.64-58.04,1.68-1.21,2.72-2.48,2.76-4.78.21-13.79,2.44-27.42,4.08-41.05,2.02-16.88,5.55-33.59,8.97-50.26.74-3.61-.71-3.87-3.01-4.38-9.47-2.13-19.01-3.83-28.58-5.5-16.56-2.87-33.08-4.52-52.33-4.32Zm34.84,380.3c15.73-1.9,31.45-3.84,46.9-7.68,4.1-1.02,4.59-3.06,3.41-5.79-4.24-9.78-4.42-20.41-6.14-30.59-3.21-19.01-6.31-38.12-7.42-57.44-.2-3.53-1.72-6.23-5.08-8.22-5.31-3.15-10.46-6.65-15.33-10.46-18.58-14.55-37.47-28.74-54.78-44.84-1.88-1.75-2.8-1.21-4.29.38-23.15,24.62-43.77,50.99-57.95,81.98-5.18,11.33-9.16,23.17-9.97,35.4-1.16,17.62,4.29,29.14,23.29,37.99,18.18,8.48,37.8,10.28,57.53,10.98,9.97.35,19.92-.34,29.82-1.71Zm321.83-284.57c-.61,7.78,1.47,13.55,8.42,17.43,5.25,2.93,10.17,6.59,14.84,10.4,17.39,14.2,35.18,27.93,51.44,43.47,2,1.91,3.06,1.95,4.95-.1,20.85-22.65,39.88-46.63,53.61-74.36,8.52-17.21,14.79-35,13.51-54.84-.7-10.75-5.74-18.16-14.25-23.78-15.69-10.35-33.66-12.99-51.75-13.75-14.09-.59-28.26-.06-42.42,1.53-16.12,1.81-31.79,5.74-47.73,8.26-3.04.48-4.28,2.32-3.57,5.5,4.06,18.05,7.38,36.23,9.75,54.58,1.12,8.7,2.18,17.4,3.21,25.68Zm64.92,284.89c14.48.02,28.86-1.24,42.96-4.43,10.85-2.46,21.32-6.12,29.9-13.72,5.9-5.23,9.35-11.66,9.88-19.63.9-13.47-1.81-26.27-6.85-38.68-14.01-34.46-36.6-63-61.75-89.81-2.09-2.22-3-.61-4.23.52-22.42,20.47-46.21,39.23-70.96,56.78-1.34.95-2.74,1.8-2.98,3.67-.67,5.28-1.66,10.54-2.01,15.84-.78,12.12-2.92,24.06-4.64,36.04-1.83,12.76-4.82,25.35-7.23,38.03-.33,1.74-.55,4.65,1.26,4.7,3.25.09,5.62,2.14,8.65,2.57,7.84,1.12,15.56,2.88,23.41,4.05,14.81,2.2,29.61,3.89,44.58,4.08Zm-207.87,139.62c8.59.2,14.98-2.39,20.94-6.2,8.53-5.46,15.59-12.54,21.89-20.38,23.31-29.05,36.46-63.03,47.46-98.04.88-2.79.11-4.5-3.03-5.36-4.86-1.32-9.61-3.06-14.37-4.7-23.23-8-45.99-17.18-68.24-27.6-2.54-1.19-4.43-.9-6.82.17-7,3.15-13.97,6.38-20.99,9.5-20.73,9.2-41.94,17.08-63.4,24.34-2.25.76-3.65,1.11-2.64,4.29,7.31,23.07,15.97,45.56,27.78,66.74,9.31,16.7,19.95,32.44,34.69,44.91,8.08,6.83,16.79,12.54,26.73,12.33Zm-34.51-181.26c-26.03-13.66-50.33-27.8-74.83-42.99,2.19,19.67,5.25,38.09,9.16,56.36,2.32,10.82,2.37,10.85,12.89,7.32,17.52-5.88,34.67-12.69,52.78-20.69Zm-75.27-253.12c24.5-15.84,48.85-29.79,74.56-43.31-9.54-3.68-18.2-7.13-26.94-10.36-11.14-4.12-22.35-8.02-33.5-12.1-2.66-.97-3.48-.24-4.27,2.53-1.61,5.64-2.11,11.45-3.27,17.15-3.03,14.87-5.37,29.86-6.58,46.08Zm-35.97,148.51c-1.79-29.27.29-57.22-.26-85.72-15.98,12.51-31.3,24.8-45.81,38.07-4.35,3.98-4.41,5.94-.15,9.88,1.56,1.45,3.11,2.95,4.87,4.12,8.26,5.49,14.8,13.03,23,18.73,5.98,4.16,11.87,8.82,18.35,14.91Zm292.42-10.66c0,1.64-.11,3.29.04,4.91.11,1.21-.76,2.87.68,3.55,1.4.66,2.28-.93,3.29-1.63,8.71-6.01,15.7-14.18,24.8-19.69,2.21-1.34,2.03-4.77,4.48-5.56,5.48-1.75,8.93-6.23,13.31-9.42,4.81-3.51,4.68-5.28.09-9.44-13.81-12.51-28.19-24.34-42.98-35.69-.79-.6-1.3-2.2-2.72-1.48-1.22.61-.91,1.93-1,3.06-.44,5.89.91,11.69.93,17.52.05,17.96,1.2,35.95-.93,53.88Zm-109.44,114.88c20.36,9.29,40.95,16.16,61.59,23.02,5.4-21.49,8.67-43.02,11.51-65.41-24.11,15.29-48.06,29.09-73.09,42.39Zm-.37-295.96c25.47,13.17,49.45,27.17,73.76,42.49-1.19-8.42-2.07-15.92-3.33-23.36-2.24-13.2-4.65-26.37-7.15-39.52-.21-1.12-.33-3.06-3.17-1.95-9.65,3.73-19.58,6.74-29.29,10.33-10.09,3.73-20.06,7.81-30.81,12.02Z"/>
  <path class="cls-1" d="m374.33,473.45c-1.81-29.01-.7-57.68-1.14-86.34-.06-3.8.59-7.46,1.41-11.05.61-2.64.73-5.01.03-7.6-1.67-6.22,1-10.25,6.71-13.78,8.88-5.49,17.46-11.46,26.35-16.96,11.41-7.07,23.18-13.48,34.74-20.25,8.96-5.25,18.58-9.26,27.2-15.05,5-3.36,10.85-4.93,16.15-7.71,2.22-1.17,6.52-.5,9.77,1.12,36.16,17.95,71.07,38.06,104.6,60.57,3.7,2.48,3.46,6.21,3.51,9.39.18,11.93,1.01,23.84,1.39,35.76.35,10.94.82,21.89.57,32.83-.29,13.2-1.17,26.38-1.86,39.57-.22,4.23-.84,8.44-.86,12.67-.02,2.99-1.27,4.81-3.64,6.38-16.89,11.17-33.82,22.32-51.6,32-18.1,9.86-35.66,20.7-54.35,29.48-2.43,1.14-4.29,1.34-6.8.1-37.26-18.36-73.09-39.19-107.82-61.93-2.46-1.61-3.61-3.46-3.51-6.43.15-4.39-1.71-8.68-.84-12.76Zm51.15-50.95c-.21,37.41,28.22,66.37,65.28,66.19,36.2-.17,63.03-27.42,63.7-64.59.57-31.41-25.47-67.96-72.11-63.93-27.64,2.39-55.82,27.52-56.87,62.34Z"/>
  <path class="cls-1" d="m493.32,94c6.3,1.53,13.24,4.22,19.43,8.7,15.7,11.38,26.75,26.76,36.24,43.23,12.8,22.2,22.18,45.91,29.44,70.47.45,1.52.31,3.19,1.25,4.62,1.32,2.01.04,2.95-1.75,3.49-22.4,6.78-44.23,15.14-65.77,24.25-6.54,2.76-13.01,5.67-19.47,8.62-2.1.96-3.55.58-5.77-.33-5.43-2.22-10.76-4.59-16.12-6.97-11.79-5.26-23.89-9.93-36.11-14.11-10.83-3.7-21.24-8.65-32.48-11.16-3.54-.79-5.45-1.77-3.94-6.66,9.2-29.9,21.38-58.35,39.15-84.2,10.13-14.73,22.07-27.67,38.06-36.33,5.27-2.85,11.15-2.63,17.83-3.61Z"/>
  <path class="cls-1" d="m274.92,233.78c19.25-.2,35.78,1.45,52.33,4.32,9.57,1.66,19.11,3.37,28.58,5.5,2.31.52,3.75.77,3.01,4.38-3.42,16.67-6.95,33.39-8.97,50.26-1.63,13.63-3.86,27.26-4.08,41.05-.04,2.3-1.07,3.57-2.76,4.78-24.96,18.01-49.13,37.01-71.64,58.04-1.7,1.59-2.71,1.64-4.3-.08-27.33-29.57-51.61-61.07-63.77-100.29-2.21-7.12-3.97-14.49-4.23-21.79-.43-11.8,2.94-22.7,13.08-30.21,11.07-8.2,23.87-11.65,37.22-14.18,9.36-1.78,18.66-1.76,25.54-1.77Z"/>
  <path class="cls-1" d="m309.76,614.09c-9.91,1.37-19.85,2.06-29.82,1.71-19.73-.7-39.35-2.5-57.53-10.98-19-8.86-24.45-20.37-23.29-37.99.81-12.24,4.78-24.07,9.97-35.4,14.18-30.99,34.8-57.36,57.95-81.98,1.49-1.59,2.41-2.13,4.29-.38,17.31,16.1,36.19,30.29,54.78,44.84,4.86,3.81,10.01,7.31,15.33,10.46,3.35,1.99,4.87,4.69,5.08,8.22,1.11,19.32,4.21,38.43,7.42,57.44,1.72,10.19,1.9,20.82,6.14,30.59,1.19,2.73.69,4.78-3.41,5.79-15.45,3.84-31.17,5.78-46.9,7.68Z"/>
  <path class="cls-1" d="m631.59,329.52c-1.03-8.28-2.09-16.99-3.21-25.68-2.37-18.35-5.69-36.53-9.75-54.58-.71-3.18.53-5.02,3.57-5.5,15.95-2.52,31.62-6.45,47.73-8.26,14.16-1.59,28.33-2.12,42.42-1.53,18.08.76,36.06,3.41,51.75,13.75,8.51,5.62,13.55,13.03,14.25,23.78,1.29,19.84-4.99,37.63-13.51,54.84-13.73,27.73-32.76,51.71-53.61,74.36-1.89,2.06-2.94,2.02-4.95.1-16.26-15.53-34.05-29.27-51.44-43.47-4.67-3.82-9.59-7.48-14.84-10.4-6.95-3.87-9.03-9.64-8.42-17.43Z"/>
  <path class="cls-1" d="m696.51,614.41c-14.97-.18-29.77-1.87-44.58-4.07-7.85-1.17-15.58-2.93-23.41-4.05-3.03-.43-5.4-2.48-8.65-2.57-1.81-.05-1.59-2.96-1.26-4.7,2.41-12.68,5.39-25.27,7.23-38.03,1.72-11.98,3.86-23.92,4.64-36.04.34-5.3,1.34-10.56,2.01-15.84.24-1.87,1.64-2.71,2.98-3.67,24.75-17.55,48.54-36.32,70.96-56.78,1.24-1.13,2.15-2.74,4.23-.52,25.15,26.8,47.74,55.34,61.75,89.81,5.05,12.41,7.75,25.21,6.85,38.68-.53,7.98-3.98,14.41-9.88,19.63-8.57,7.59-19.05,11.26-29.9,13.72-14.11,3.19-28.49,4.45-42.97,4.42Z"/>
  <path class="cls-1" d="m488.65,754.03c-9.94.21-18.65-5.5-26.73-12.33-14.75-12.48-25.38-28.21-34.69-44.91-11.81-21.18-20.47-43.67-27.78-66.74-1.01-3.18.39-3.53,2.64-4.29,21.46-7.26,42.67-15.13,63.4-24.34,7.02-3.12,13.99-6.35,20.99-9.5,2.38-1.07,4.28-1.36,6.82-.17,22.25,10.41,45.01,19.6,68.24,27.6,4.77,1.64,9.51,3.39,14.37,4.7,3.15.85,3.91,2.57,3.03,5.36-11,35.01-24.16,68.99-47.46,98.04-6.29,7.84-13.36,14.93-21.89,20.38-5.96,3.82-12.36,6.4-20.94,6.2Z"/>
  <path class="cls-1" d="m454.14,572.78c-18.11,8-35.26,14.82-52.78,20.69-10.52,3.53-10.58,3.5-12.89-7.32-3.91-18.28-6.97-36.69-9.16-56.36,24.5,15.2,48.8,29.33,74.83,42.99Z"/>
  <path class="cls-1" d="m378.87,319.66c1.21-16.23,3.54-31.21,6.58-46.08,1.16-5.7,1.67-11.51,3.27-17.15.79-2.77,1.61-3.5,4.27-2.53,11.15,4.07,22.37,7.98,33.5,12.1,8.74,3.23,17.4,6.68,26.94,10.36-25.71,13.51-50.06,27.47-74.56,43.31Z"/>
  <path class="cls-1" d="m342.9,468.17c-6.48-6.09-12.36-10.75-18.35-14.91-8.2-5.7-14.74-13.24-23-18.73-1.76-1.17-3.31-2.68-4.87-4.12-4.26-3.94-4.2-5.9.15-9.88,14.51-13.27,29.84-25.56,45.81-38.07.55,28.49-1.54,56.45.26,85.72Z"/>
  <path class="cls-1" d="m635.32,457.52c2.12-17.93.98-35.92.93-53.88-.02-5.83-1.37-11.63-.93-17.52.08-1.13-.22-2.44,1-3.06,1.42-.71,1.93.88,2.72,1.48,14.78,11.34,29.17,23.17,42.98,35.69,4.59,4.16,4.72,5.93-.09,9.44-4.38,3.19-7.83,7.68-13.31,9.42-2.45.78-2.28,4.22-4.48,5.56-9.1,5.51-16.09,13.68-24.8,19.69-1.01.7-1.89,2.29-3.29,1.63-1.44-.68-.57-2.34-.68-3.55-.15-1.63-.04-3.27-.04-4.91Z"/>
  <path class="cls-1" d="m525.88,572.4c25.03-13.3,48.98-27.1,73.09-42.39-2.84,22.39-6.1,43.92-11.51,65.41-20.63-6.86-41.22-13.73-61.59-23.02Z"/>
  <path class="cls-1" d="m525.5,276.44c10.75-4.21,20.72-8.29,30.81-12.02,9.71-3.59,19.64-6.6,29.29-10.33,2.85-1.1,2.96.84,3.17,1.95,2.5,13.15,4.91,26.32,7.15,39.52,1.26,7.44,2.14,14.94,3.33,23.36-24.3-15.31-48.29-29.32-73.76-42.49Z"/>
  <path class="cls-2" d="m425.48,422.5c1.05-34.81,29.23-59.95,56.87-62.34,46.65-4.03,72.68,32.52,72.11,63.93-.67,37.17-27.5,64.42-63.7,64.59-37.06.18-65.49-28.78-65.28-66.19Z"/>
</svg>