<svg id="Layer_1" data-name="Layer 1" xmlns="http://www.w3.org/2000/svg" width="5.87in" height="7.52in" viewBox="0 0 422.51 541.58">
  <defs>
    <style>
      .cls-1 {
        fill: #fff;
      }
    </style>
  </defs>
  <path class="cls-1" d="M514.67,72H180a44,44,0,0,0-43.91,43.91V569.66A44,44,0,0,0,180,613.57H514.67a44,44,0,0,0,43.91-43.91V115.9A44,44,0,0,0,514.67,72Zm-138.2,76H487.86a9.5,9.5,0,0,1,0,19H376.47a9.5,9.5,0,0,1,0-19Zm121.46,162.6a9.53,9.53,0,0,1-9.5,9.49H377.05a9.5,9.5,0,1,1,0-19H488.43A9.53,9.53,0,0,1,497.93,310.54ZM376.47,224.49H487.86a9.5,9.5,0,0,1,0,19H376.47a9.5,9.5,0,0,1,0-19ZM258.23,134.62c22.73,0,41.42,18.68,41.37,41.24a41.28,41.28,0,0,1-82.56-.39C217.15,153.21,235.94,134.57,258.23,134.62ZM246.8,238.76c42.72-5.7,78.19,21.52,83.62,64.17C332,315.61,328.09,320,315.13,320H258.34q-29.49,0-59,0c-9.69,0-13.39-3.72-13.27-13.21C186.46,273.92,213.92,243.15,246.8,238.76ZM195.44,377.59h293a9.5,9.5,0,1,1,0,19h-293a9.5,9.5,0,0,1,0-19Zm0,76.56h293a9.49,9.49,0,1,1,0,19h-293a9.49,9.49,0,1,1,0-19Zm293.12,95.54h-293a9.5,9.5,0,1,1,0-19h293a9.5,9.5,0,0,1,0,19Z" transform="translate(-136.08 -71.99)"/>
</svg>
