<?xml version="1.0" encoding="UTF-8"?>
<svg id="Layer_1" data-name="Layer 1" xmlns="http://www.w3.org/2000/svg" viewBox="0 0 940.56 815.96">
  <defs>
    <style>
      .cls-1 {
        fill: #fff;
      }

      .cls-2 {
        fill: #3178c6;
      }
    </style>
  </defs>
  <g>
    <path class="cls-2" d="m940.56,406.92v1.44c-.87,2.74-2.35,5.19-3.77,7.67-10.28,18.05-20.75,36-30.93,54.11-13.82,24.59-28.14,48.9-42.25,73.32-41.57,71.96-83.07,143.96-124.91,215.77-8.16,14.02-16.47,27.95-24.08,42.28-1.35,2.54-2.54,5.16-4.23,7.51-3.34,4.62-7.88,6.78-13.53,6.77-10.94,0-21.87,0-32.81,0-.48.03-.96.08-1.43.08-28.06,0-56.12,0-84.19,0-.72,0-1.44.07-2.14-.2-1.21-.6-2.51-.4-3.78-.4-92.01,0-184.03,0-276.04,0-.64,0-1.28,0-1.92.01-.65,0-1.27.11-1.84.44-.94.28-1.91.15-2.86.15-15.99,0-31.99-.13-47.97.09-4.65.06-7.49-1.59-9.72-5.63-5.91-10.7-12.09-21.25-18.25-31.82-33.78-58.01-66.9-116.4-100.62-174.44C76.06,539.94,39.16,475.61,1.76,411.57c-.36-.62-.83-1.18-.92-1.93.02-.94.05-1.89.07-2.83,0-.6.39-1.04.67-1.52,23.05-39.95,46.1-79.9,69.16-119.84,2.96-5.12,5.98-10.2,8.98-15.3.03-.15.06-.3.09-.45.67-1.82,2.02-3.23,2.96-4.88.09-.23.17-.46.26-.69,2.31-3.93,4.62-7.86,6.94-11.79.09-.23.17-.46.26-.68,1.67-2.81,3.34-5.62,5.01-8.43.09-.23.18-.46.27-.69,2.31-3.93,4.63-7.86,6.94-11.79.09-.23.17-.46.26-.69.45-.75.9-1.49,1.34-2.25,3.63-6.22,7.25-12.44,10.88-18.66.09-.23.17-.46.26-.69,1.3-2.15,2.59-4.31,3.89-6.46.03-.15.06-.3.09-.45.66-1.83,2.05-3.21,2.96-4.88.09-.23.17-.46.26-.69,3.58-6.28,7.14-12.56,10.75-18.82,2.53-4.39,5.13-8.75,7.7-13.12.09-.23.17-.46.26-.69,1.67-2.81,3.34-5.62,5-8.43.09-.23.18-.46.27-.69,1.03-1.69,2.07-3.38,3.1-5.07.09-.23.17-.46.26-.68,1.25-2.21,2.38-4.53,3.72-6.63,2.09-3.29,3.9-6.75,6.1-9.96.09-.23.17-.46.26-.68,2.31-3.93,4.62-7.86,6.94-11.79.09-.23.17-.46.26-.69.64-1.1,1.29-2.2,1.93-3.3,4.23-7.31,8.45-14.61,12.68-21.92.09-.23.17-.46.26-.69,2.31-3.93,4.62-7.86,6.92-11.78.09-.23.18-.46.27-.69,1.67-2.81,3.35-5.62,5.02-8.43.09-.23.17-.46.26-.69,1.67-2.81,3.35-5.62,5.02-8.43.09-.23.17-.46.26-.68.66-1.03,1.31-2.07,1.97-3.1.03-.15.06-.3.09-.45.32-1.6,1.63-2.61,2.37-3.97,1.87-3.39,3.9-6.69,5.87-10.03.09-.23.17-.46.26-.68,1.67-2.81,3.35-5.62,5.02-8.43.09-.23.17-.46.26-.69,2.95-5.05,5.9-10.1,8.84-15.14.09-.23.18-.46.27-.69.55-.89,1.11-1.78,1.66-2.67.09-.23.17-.46.26-.69.55-.89,1.11-1.78,1.66-2.67.09-.23.17-.46.26-.69.55-.89,1.11-1.78,1.66-2.67.09-.23.17-.46.26-.69.55-.89,1.11-1.78,1.66-2.67.09-.23.17-.46.26-.69.86-1.44,1.65-2.93,2.94-4.05.29-.17.58-.34.87-.51.33-.7.99-.29,1.49-.45.68.02,1.33-.05,1.89-.49h13.44c1.33.8,2.81.49,4.23.49,147.23.01,294.45.01,441.68.01.72,0,1.44,0,2.16,0,.73,0,1.44-.07,2.07-.5C703.18,0,703.34,0,703.5,0c.37.28.72.75,1.12.79,1.98.24,3.03,1.61,4,3.1.48.74.9,1.51,1.34,2.27,17.99,31.22,35.97,62.45,53.96,93.67,12.28,21.3,24.58,42.59,36.87,63.88,6.41,11.1,12.82,22.2,19.23,33.3,7.26,12.57,14.51,25.15,21.77,37.72,6.49,11.24,12.98,22.48,19.47,33.72,25.32,43.81,50.64,87.62,75.95,131.43,1.3,2.25,2.82,4.41,3.35,7.03Z"/>
    <path class="cls-2" d="m703.02,0c-.63.42-1.34.49-2.07.5-.72,0-1.44,0-2.16,0-147.23,0-294.45,0-441.68-.01-1.42,0-2.89.31-4.23-.49h450.13Z"/>
    <path class="cls-2" d="m0,406.92c.34.29.62.01.92-.11-.02.94-.05,1.89-.07,2.83-.28-.11-.56-.22-.85-.32,0-.8,0-1.6,0-2.4Z"/>
    <path class="cls-2" d="m237.56.49c0-.16-.02-.33-.03-.49.64,0,1.28,0,1.92,0-.56.44-1.22.51-1.89.49Z"/>
    <path class="cls-2" d="m576.32,815.68c-.88.03-1.76.09-2.63.09-92.93,0-185.86,0-278.79,0-.72,0-1.44-.03-2.16-.05.57-.33,1.2-.43,1.84-.44.64,0,1.28-.01,1.92-.01,92.01,0,184.03,0,276.04,0,1.27,0,2.57-.2,3.78.4Z"/>
    <path class="cls-2" d="m235.21,1.44c.05-.57.56-.37.87-.51-.29.17-.58.34-.87.51Z"/>
    <path class="cls-2" d="m232.01,6.18c0-.26-.12-.57.26-.69-.09.23-.17.46-.26.69Z"/>
    <path class="cls-2" d="m230.09,9.54c0-.26-.12-.57.26-.69-.09.23-.17.46-.26.69Z"/>
    <path class="cls-2" d="m228.17,12.9c0-.26-.12-.57.26-.69-.09.23-.17.46-.26.69Z"/>
    <path class="cls-2" d="m226.25,16.25c0-.26-.12-.57.26-.69-.09.23-.17.46-.26.69Z"/>
    <path class="cls-2" d="m224.32,19.62c.02-.26-.11-.57.27-.69-.09.23-.18.46-.27.69Z"/>
    <path class="cls-2" d="m215.21,35.45c0-.26-.12-.57.26-.69-.09.23-.17.46-.26.69Z"/>
    <path class="cls-2" d="m209.93,44.57c0-.26-.12-.57.26-.68-.09.23-.17.46-.26.68Z"/>
    <path class="cls-2" d="m166.74,119.42c0-.26-.12-.57.26-.69-.09.23-.17.46-.26.69Z"/>
    <path class="cls-2" d="m159.55,131.9c0-.26-.12-.57.26-.68-.09.23-.17.46-.26.68Z"/>
    <path class="cls-2" d="m149.47,149.18c0-.26-.12-.57.26-.68-.09.23-.17.46-.26.68Z"/>
    <path class="cls-2" d="m146.1,154.94c.02-.26-.11-.57.27-.69-.09.23-.18.46-.27.69Z"/>
    <path class="cls-2" d="m140.83,164.05c0-.26-.12-.57.26-.69-.09.23-.17.46-.26.69Z"/>
    <path class="cls-2" d="m122.12,196.68c0-.26-.12-.57.26-.69-.09.23-.17.46-.26.69Z"/>
    <path class="cls-2" d="m114.92,209.16c0-.26-.12-.57.26-.69-.09.23-.17.46-.26.69Z"/>
    <path class="cls-2" d="m102.44,230.75c0-.26-.12-.57.26-.69-.09.23-.17.46-.26.69Z"/>
    <path class="cls-2" d="m95.23,243.23c.02-.26-.11-.57.27-.69-.09.23-.18.46-.27.69Z"/>
    <path class="cls-2" d="m89.96,252.35c0-.26-.12-.57.26-.68-.09.23-.17.46-.26.68Z"/>
    <path class="cls-2" d="m82.77,264.82c0-.26-.12-.57.26-.69-.09.23-.17.46-.26.69Z"/>
    <path class="cls-2" d="m188.81,81.04c.02-.26-.11-.57.27-.69-.09.23-.18.46-.27.69Z"/>
    <path class="cls-2" d="m194.1,71.92c0-.26-.12-.57.26-.69-.09.23-.17.46-.26.69Z"/>
    <path class="cls-2" d="m199.38,62.8c0-.26-.12-.57.26-.68-.09.23-.17.46-.26.68Z"/>
    <path class="cls-2" d="m181.62,93.51c0-.26-.12-.57.26-.69-.09.23-.17.46-.26.69Z"/>
    <path class="cls-2" d="m201.61,59.02c-.03-.16,0-.31.09-.45-.03.15-.06.3-.09.45Z"/>
    <path class="cls-2" d="m119.07,202.01c-.03-.16,0-.31.09-.45-.03.15-.06.3-.09.45Z"/>
    <path class="cls-2" d="m79.72,270.15c-.03-.16,0-.31.09-.45-.03.15-.06.3-.09.45Z"/>
  </g>
  <g>
    <path class="cls-1" d="m664.34,604.65c.72.03,1.45.07,2.17.1,1.82.81,3.75.51,5.63.49,2.83-.04,5.71.41,8.49-.52.37-.02.75-.04,1.12-.06,1.06.16,2.1.23,3.06-.39,6.24-.84,12.21-2.5,17.68-5.72,3.28-1.93,6.19-4.36,7.95-7.78,3.78-7.32,3.5-14.53-1.11-21.43-2.1-3.14-4.82-5.75-7.8-8.05-6.32-4.86-13.34-8.48-20.62-11.69-3.29-1.45-6.61-2.85-9.87-4.38-2.72-1.27-5.58-2.25-8.34-3.42-14.73-6.27-28.55-13.94-39.55-25.9-5.26-5.71-9.35-12.22-11.96-19.47-3.18-8.83-4.12-18.07-3.63-27.46.32-6.12,1.18-12.18,3.13-17.93,2.09-6.19,5.32-11.91,9.4-17.1,4.36-5.54,9.49-10.21,15.35-14.11,9.5-6.32,19.95-10.27,31.06-12.62,1.76-.37,3.52-.71,5.28-1.07.75.17,1.44.04,2.07-.42,1.57-.21,3.14-.43,4.72-.64.92.2,1.8.12,2.62-.4.37-.03.74-.05,1.11-.08,1.41.17,2.81.2,4.13-.45.71-.03,1.42-.06,2.14-.09.78.03,1.56.12,2.34.09,6.8-.28,13.59-.19,20.39,0,.95.03,1.91-.06,2.86-.1,1.07.04,2.13.09,3.2.13,1.33.67,2.73.55,4.14.39.54.03,1.08.07,1.61.1,1.14.62,2.37.6,3.61.43.37.03.74.06,1.11.09.79.53,1.67.58,2.58.43.36.03.72.06,1.08.09.64.44,1.34.58,2.1.39,4.27.71,8.56,1.36,12.7,2.65,3.7,1.15,7.54,1.88,11.06,3.62.77.38,1.06.77,1.1,1.51.02.43.02.87.02,1.31,0,14.46,0,28.91,0,43.37,0,.86.18,1.75-.32,2.55-.12-.07-.25-.08-.39-.02-13.46-8.66-28.32-13.26-44.09-15.23-1.83-.78-3.74-.6-5.65-.48-.21,0-.42-.02-.63-.02-3.14-.69-6.28-.7-9.42,0-.37.02-.74.03-1.12.05-1.58-.14-3.16-.26-4.64.48-4.62.75-9.2,1.68-13.55,3.51-5.79,2.43-10.6,6-13.71,11.59-.64,1.14-.92,2.39-1.18,3.65-1.19,5.76-.28,11.09,3.25,15.88,1.93,2.62,4.25,4.85,6.8,6.85,2.13,1.67,4.37,3.19,6.7,4.56,6.41,3.76,13.05,7.02,19.9,9.93,10.26,4.36,20.58,8.6,30.25,14.21,5.82,3.38,11.42,7.06,16.48,11.52,5.44,4.79,10.22,10.14,13.82,16.49,4.62,8.17,7,16.99,7.61,26.29.42,6.36.31,12.73-.69,19.05-3.57,22.4-16.34,37.67-36.61,47.09-6.33,2.94-12.95,4.99-19.77,6.47-3.81.83-7.63,1.51-11.5,1.97-1.24-.16-2.46-.14-3.61.47-.2.02-.39.03-.59.05-4.37.01-8.72.51-13.07.82-.16.01-.32.12-.48.18-4.71.18-9.43.17-14.14,0-2.9-.71-5.85-.58-8.8-.5,0,0-.12,0-.12,0-3.4-.72-6.85-1.03-10.33-1.05,0,0-.15-.01-.15-.01-.97-.55-2.01-.63-3.08-.45-.19-.02-.38-.04-.57-.06-.95-.57-1.99-.64-3.06-.49-2.3.09-4.42-.79-6.62-1.24-4.24-.88-8.48-1.84-12.61-3.1-3.22-.98-6.29-2.44-9.4-3.75-1.34-.56-2.78-.9-3.99-1.8-.63-.47-.98-.93-.94-1.7.03-.43,0-.87,0-1.31,0-15.43,0-30.87.02-46.3,0-.81-.46-1.92.41-2.39,1.06-.58,1.72.55,2.43,1.1,5.32,4.13,10.96,7.73,16.95,10.82,5.02,2.59,10.21,4.81,15.62,6.38,5.71,1.65,11.46,3.26,17.45,3.67.96.62,2,.55,3.06.41Z"/>
    <path class="cls-1" d="m520.36,452.11c-.01,1.13-.04,2.27-.04,3.4,0,61.51,0,123.02,0,184.54,0,3.76.49,3.38-3.31,3.38-15.53.01-31.06.02-46.59,0-3.93,0-3.41.44-3.41-3.54-.01-61.25,0-122.5,0-183.75q0-4.29-4.3-4.29c-19.72,0-39.44,0-59.16,0-.7,0-1.4-.03-2.09,0-.97.03-1.49-.36-1.41-1.38.01-.17,0-.35,0-.52.02-13.52.04-27.05.06-40.57,1.3-.06,2.61-.17,3.91-.17,60,0,120,0,180,0,1.13,0,2.26.08,3.4.12.04,2.96.1,5.92.1,8.87.01,10.1,0,20.2,0,30.3,0,.7-.03,1.39,0,2.09.03.87-.34,1.3-1.23,1.26-.26-.01-.52.01-.78.01-21.16-.01-42.32-.03-63.48-.04-.6-.18-1.2-.29-1.65.31Z"/>
  </g>
</svg>